<?xml version="1.0" encoding="UTF-8"?>
<svg width="596px" height="324px" viewBox="0 0 596 324" version="1.1" xmlns="http://www.w3.org/2000/svg" xmlns:xlink="http://www.w3.org/1999/xlink">
    <!-- Generator: Sketch 57.1 (83088) - https://sketch.com -->
    <title>crumbs 3</title>
    <desc>Created with Sketch.</desc>
    <defs>
        <linearGradient x1="53.1910409%" y1="68.6813404%" x2="33.8262983%" y2="31.2650293%" id="linearGradient-1">
            <stop stop-color="#F5F4F9" offset="0%"></stop>
            <stop stop-color="#5255C9" offset="100%"></stop>
        </linearGradient>
    </defs>
    <g id="Page-1" stroke="none" stroke-width="1" fill="none" fill-rule="evenodd" opacity="0.149553571">
        <g id="Stop-Wasting-time_Landing_1" transform="translate(97.000000, -2713.000000)" fill="url(#linearGradient-1)" fill-rule="nonzero">
            <path d="M406,3009 C413.731986,3009 420,3015.26801 420,3023 C420,3030.73199 413.731986,3037 406,3037 C398.268014,3037 392,3030.73199 392,3023 C392,3015.26801 398.268014,3009 406,3009 Z M264.5,2889 C290.181241,2889 311,2909.81876 311,2935.5 C311,2961.18124 290.181241,2982 264.5,2982 C238.818759,2982 218,2961.18124 218,2935.5 C218,2909.81876 238.818759,2889 264.5,2889 Z M100,2951 C107.179702,2951 113,2956.8203 113,2964 C113,2971.1797 107.179702,2977 100,2977 C92.8202983,2977 87,2971.1797 87,2964 C87,2956.8203 92.8202983,2951 100,2951 Z M264.5,2916.64865 C254.088686,2916.64865 245.648649,2925.08869 245.648649,2935.5 C245.648649,2945.91131 254.088686,2954.35135 264.5,2954.35135 C274.911314,2954.35135 283.351351,2945.91131 283.351351,2935.5 C283.351351,2925.08869 274.911314,2916.64865 264.5,2916.64865 Z M363.5,2906 C367.642136,2906 371,2909.35786 371,2913.5 C371,2917.64214 367.642136,2921 363.5,2921 C359.357864,2921 356,2917.64214 356,2913.5 C356,2909.35786 359.357864,2906 363.5,2906 Z M52.5,2854 C67.6878306,2854 80,2866.31217 80,2881.5 C80,2896.68783 67.6878306,2909 52.5,2909 C37.3121694,2909 25,2896.68783 25,2881.5 C25,2866.31217 37.3121694,2854 52.5,2854 Z M459.5,2831 C481.315248,2831 499,2848.46089 499,2870 C499,2891.53911 481.315248,2909 459.5,2909 C437.684752,2909 420,2891.53911 420,2870 C420,2848.46089 437.684752,2831 459.5,2831 Z M52.1180556,2869.27778 C45.1569665,2869.27778 39.5138889,2874.92086 39.5138889,2881.88194 C39.5138889,2888.84303 45.1569665,2894.48611 52.1180556,2894.48611 C59.0791446,2894.48611 64.7222222,2888.84303 64.7222222,2881.88194 C64.7222222,2874.92086 59.0791446,2869.27778 52.1180556,2869.27778 Z M459.062646,2852.27273 C448.485556,2852.27273 439.911131,2860.73862 439.911131,2871.18182 C439.911131,2881.62502 448.485556,2890.09091 459.062646,2890.09091 C469.639735,2890.09091 478.214161,2881.62502 478.214161,2871.18182 C478.214161,2860.73862 469.639735,2852.27273 459.062646,2852.27273 Z M213.5,2798 C224.269553,2798 233,2807.17816 233,2818.5 C233,2829.82184 224.269553,2839 213.5,2839 C202.730447,2839 194,2829.82184 194,2818.5 C194,2807.17816 202.730447,2798 213.5,2798 Z M116,2819 C118.761424,2819 121,2821.23858 121,2824 C121,2826.76142 118.761424,2829 116,2829 C113.238576,2829 111,2826.76142 111,2824 C111,2821.23858 113.238576,2819 116,2819 Z M-56,2798 C-48.2680135,2798 -42,2804.26801 -42,2812 C-42,2819.73199 -48.2680135,2826 -56,2826 C-63.7319865,2826 -70,2819.73199 -70,2812 C-70,2804.26801 -63.7319865,2798 -56,2798 Z M344,2748 C351.179702,2748 357,2753.8203 357,2761 C357,2768.1797 351.179702,2774 344,2774 C336.820298,2774 331,2768.1797 331,2761 C331,2753.8203 336.820298,2748 344,2748 Z M50.5,2717 C54.6421356,2717 58,2720.35786 58,2724.5 C58,2728.64214 54.6421356,2732 50.5,2732 C46.3578644,2732 43,2728.64214 43,2724.5 C43,2720.35786 46.3578644,2717 50.5,2717 Z M-92,2713 C-89.2385763,2713 -87,2715.23858 -87,2718 C-87,2720.76142 -89.2385763,2723 -92,2723 C-94.7614237,2723 -97,2720.76142 -97,2718 C-97,2715.23858 -94.7614237,2713 -92,2713 Z" id="crumbs-3" transform="translate(201.000000, 2875.000000) scale(-1, 1) translate(-201.000000, -2875.000000) "></path>
        </g>
    </g>
</svg>