<?xml version="1.0" encoding="UTF-8"?>
<svg width="324px" height="596px" viewBox="0 0 324 596" version="1.1" xmlns="http://www.w3.org/2000/svg" xmlns:xlink="http://www.w3.org/1999/xlink">
    <!-- Generator: Sketch 57.1 (83088) - https://sketch.com -->
    <title>crumbs 3 copy</title>
    <desc>Created with Sketch.</desc>
    <defs>
        <linearGradient x1="53.1910409%" y1="68.6813404%" x2="33.8262983%" y2="31.2650293%" id="linearGradient-1">
            <stop stop-color="#F5F4F9" offset="0%"></stop>
            <stop stop-color="#5255C9" offset="100%"></stop>
        </linearGradient>
    </defs>
    <g id="Page-1" stroke="none" stroke-width="1" fill="none" fill-rule="evenodd" opacity="0.149553571">
        <g id="Stop-Wasting-time_Landing_1" transform="translate(-1116.000000, -3525.000000)" fill="url(#linearGradient-1)" fill-rule="nonzero">
            <path d="M1483,3957 C1490.73199,3957 1497,3963.26801 1497,3971 C1497,3978.73199 1490.73199,3985 1483,3985 C1475.26801,3985 1469,3978.73199 1469,3971 C1469,3963.26801 1475.26801,3957 1483,3957 Z M1341.5,3837 C1367.18124,3837 1388,3857.81876 1388,3883.5 C1388,3909.18124 1367.18124,3930 1341.5,3930 C1315.81876,3930 1295,3909.18124 1295,3883.5 C1295,3857.81876 1315.81876,3837 1341.5,3837 Z M1177,3899 C1184.1797,3899 1190,3904.8203 1190,3912 C1190,3919.1797 1184.1797,3925 1177,3925 C1169.8203,3925 1164,3919.1797 1164,3912 C1164,3904.8203 1169.8203,3899 1177,3899 Z M1341.5,3864.64865 C1331.08869,3864.64865 1322.64865,3873.08869 1322.64865,3883.5 C1322.64865,3893.91131 1331.08869,3902.35135 1341.5,3902.35135 C1351.91131,3902.35135 1360.35135,3893.91131 1360.35135,3883.5 C1360.35135,3873.08869 1351.91131,3864.64865 1341.5,3864.64865 Z M1440.5,3854 C1444.64214,3854 1448,3857.35786 1448,3861.5 C1448,3865.64214 1444.64214,3869 1440.5,3869 C1436.35786,3869 1433,3865.64214 1433,3861.5 C1433,3857.35786 1436.35786,3854 1440.5,3854 Z M1129.5,3802 C1144.68783,3802 1157,3814.31217 1157,3829.5 C1157,3844.68783 1144.68783,3857 1129.5,3857 C1114.31217,3857 1102,3844.68783 1102,3829.5 C1102,3814.31217 1114.31217,3802 1129.5,3802 Z M1536.5,3779 C1558.31525,3779 1576,3796.46089 1576,3818 C1576,3839.53911 1558.31525,3857 1536.5,3857 C1514.68475,3857 1497,3839.53911 1497,3818 C1497,3796.46089 1514.68475,3779 1536.5,3779 Z M1129.11806,3817.27778 C1122.15697,3817.27778 1116.51389,3822.92086 1116.51389,3829.88194 C1116.51389,3836.84303 1122.15697,3842.48611 1129.11806,3842.48611 C1136.07914,3842.48611 1141.72222,3836.84303 1141.72222,3829.88194 C1141.72222,3822.92086 1136.07914,3817.27778 1129.11806,3817.27778 Z M1536.06265,3800.27273 C1525.48556,3800.27273 1516.91113,3808.73862 1516.91113,3819.18182 C1516.91113,3829.62502 1525.48556,3838.09091 1536.06265,3838.09091 C1546.63974,3838.09091 1555.21416,3829.62502 1555.21416,3819.18182 C1555.21416,3808.73862 1546.63974,3800.27273 1536.06265,3800.27273 Z M1290.5,3746 C1301.26955,3746 1310,3755.17816 1310,3766.5 C1310,3777.82184 1301.26955,3787 1290.5,3787 C1279.73045,3787 1271,3777.82184 1271,3766.5 C1271,3755.17816 1279.73045,3746 1290.5,3746 Z M1193,3767 C1195.76142,3767 1198,3769.23858 1198,3772 C1198,3774.76142 1195.76142,3777 1193,3777 C1190.23858,3777 1188,3774.76142 1188,3772 C1188,3769.23858 1190.23858,3767 1193,3767 Z M1021,3746 C1028.73199,3746 1035,3752.26801 1035,3760 C1035,3767.73199 1028.73199,3774 1021,3774 C1013.26801,3774 1007,3767.73199 1007,3760 C1007,3752.26801 1013.26801,3746 1021,3746 Z M1421,3696 C1428.1797,3696 1434,3701.8203 1434,3709 C1434,3716.1797 1428.1797,3722 1421,3722 C1413.8203,3722 1408,3716.1797 1408,3709 C1408,3701.8203 1413.8203,3696 1421,3696 Z M1127.5,3665 C1131.64214,3665 1135,3668.35786 1135,3672.5 C1135,3676.64214 1131.64214,3680 1127.5,3680 C1123.35786,3680 1120,3676.64214 1120,3672.5 C1120,3668.35786 1123.35786,3665 1127.5,3665 Z M985,3661 C987.761424,3661 990,3663.23858 990,3666 C990,3668.76142 987.761424,3671 985,3671 C982.238576,3671 980,3668.76142 980,3666 C980,3663.23858 982.238576,3661 985,3661 Z" id="crumbs-3-copy" transform="translate(1278.000000, 3823.000000) scale(-1, 1) rotate(90.000000) translate(-1278.000000, -3823.000000) "></path>
        </g>
    </g>
</svg>