<?xml version="1.0" encoding="UTF-8"?>
<svg width="511px" height="400px" viewBox="0 0 511 400" version="1.1" xmlns="http://www.w3.org/2000/svg" xmlns:xlink="http://www.w3.org/1999/xlink">
    <!-- Generator: Sketch 57.1 (83088) - https://sketch.com -->
    <title>crumbs 4</title>
    <desc>Created with Sketch.</desc>
    <defs>
        <linearGradient x1="56.8668503%" y1="31.5094545%" x2="53.1910409%" y2="68.6498282%" id="linearGradient-1">
            <stop stop-color="#F5F4F9" offset="0%"></stop>
            <stop stop-color="#5255C9" offset="100%"></stop>
        </linearGradient>
    </defs>
    <g id="Page-1" stroke="none" stroke-width="1" fill="none" fill-rule="evenodd" opacity="0.099562872">
        <g id="Stop-Wasting-time_Landing_1" transform="translate(-327.000000, -5411.000000)" fill="url(#linearGradient-1)" fill-rule="nonzero">
            <path d="M756,5745 C763.179702,5745 769,5750.8203 769,5758 C769,5765.1797 763.179702,5771 756,5771 C748.820298,5771 743,5765.1797 743,5758 C743,5750.8203 748.820298,5745 756,5745 Z M624.5,5633 C648.524387,5633 668,5652.47561 668,5676.5 C668,5700.52439 648.524387,5720 624.5,5720 C600.475613,5720 581,5700.52439 581,5676.5 C581,5652.47561 600.475613,5633 624.5,5633 Z M471,5691 C477.627417,5691 483,5696.37258 483,5703 C483,5709.62742 477.627417,5715 471,5715 C464.372583,5715 459,5709.62742 459,5703 C459,5696.37258 464.372583,5691 471,5691 Z M624.5,5658.86486 C614.760384,5658.86486 606.864865,5666.76038 606.864865,5676.5 C606.864865,5686.23962 614.760384,5694.13514 624.5,5694.13514 C634.239616,5694.13514 642.135135,5686.23962 642.135135,5676.5 C642.135135,5666.76038 634.239616,5658.86486 624.5,5658.86486 Z M717,5649 C720.865993,5649 724,5652.13401 724,5656 C724,5659.86599 720.865993,5663 717,5663 C713.134007,5663 710,5659.86599 710,5656 C710,5652.13401 713.134007,5649 717,5649 Z M426.5,5601 C440.583261,5601 452,5612.41674 452,5626.5 C452,5640.58326 440.583261,5652 426.5,5652 C412.416739,5652 401,5640.58326 401,5626.5 C401,5612.41674 412.416739,5601 426.5,5601 Z M806,5579 C826.434536,5579 843,5595.34161 843,5615.5 C843,5635.65839 826.434536,5652 806,5652 C785.565464,5652 769,5635.65839 769,5615.5 C769,5595.34161 785.565464,5579 806,5579 Z M426.145833,5615.16667 C419.691005,5615.16667 414.458333,5620.39934 414.458333,5626.85417 C414.458333,5633.30899 419.691005,5638.54167 426.145833,5638.54167 C432.600661,5638.54167 437.833333,5633.30899 437.833333,5626.85417 C437.833333,5620.39934 432.600661,5615.16667 426.145833,5615.16667 Z M805.590326,5598.90909 C795.682673,5598.90909 787.650932,5606.83229 787.650932,5616.60606 C787.650932,5626.37983 795.682673,5634.30303 805.590326,5634.30303 C815.49798,5634.30303 823.52972,5626.37983 823.52972,5616.60606 C823.52972,5606.83229 815.49798,5598.90909 805.590326,5598.90909 Z M577,5548 C586.941125,5548 595,5556.50659 595,5567 C595,5577.49341 586.941125,5586 577,5586 C567.058875,5586 559,5577.49341 559,5567 C559,5556.50659 567.058875,5548 577,5548 Z M485.5,5568 C487.985281,5568 490,5570.01472 490,5572.5 C490,5574.98528 487.985281,5577 485.5,5577 C483.014719,5577 481,5574.98528 481,5572.5 C481,5570.01472 483.014719,5568 485.5,5568 Z M325,5548 C332.179702,5548 338,5553.8203 338,5561 C338,5568.1797 332.179702,5574 325,5574 C317.820298,5574 312,5568.1797 312,5561 C312,5553.8203 317.820298,5548 325,5548 Z M698,5502 C704.627417,5502 710,5507.37258 710,5514 C710,5520.62742 704.627417,5526 698,5526 C691.372583,5526 686,5520.62742 686,5514 C686,5507.37258 691.372583,5502 698,5502 Z M425,5473 C428.865993,5473 432,5476.13401 432,5480 C432,5483.86599 428.865993,5487 425,5487 C421.134007,5487 418,5483.86599 418,5480 C418,5476.13401 421.134007,5473 425,5473 Z M291.5,5469 C293.985281,5469 296,5471.01472 296,5473.5 C296,5475.98528 293.985281,5478 291.5,5478 C289.014719,5478 287,5475.98528 287,5473.5 C287,5471.01472 289.014719,5469 291.5,5469 Z" id="crumbs-4" transform="translate(565.000000, 5620.000000) rotate(13.000000) translate(-565.000000, -5620.000000) "></path>
        </g>
    </g>
</svg>