<?xml version="1.0" encoding="UTF-8"?>
<svg width="565px" height="782px" viewBox="0 0 565 782" version="1.1" xmlns="http://www.w3.org/2000/svg" xmlns:xlink="http://www.w3.org/1999/xlink">
    <!-- Generator: Sketch 57.1 (83088) - https://sketch.com -->
    <title>crumbs 1</title>
    <desc>Created with Sketch.</desc>
    <g id="Page-1" stroke="none" stroke-width="1" fill="none" fill-rule="evenodd">
        <g id="Stop-Wasting-time_Landing_1" transform="translate(-924.000000, -904.000000)" fill="#844DDA" fill-rule="nonzero">
            <path d="M938.5,1540 C948.717268,1540 957,1548.28273 957,1558.5 C957,1568.71727 948.717268,1577 938.5,1577 C928.282732,1577 920,1568.71727 920,1558.5 C920,1548.28273 928.282732,1540 938.5,1540 Z M1153,1302 C1186.68937,1302 1214,1329.31063 1214,1363 C1214,1396.68937 1186.68937,1424 1153,1424 C1119.31063,1424 1092,1396.68937 1092,1363 C1092,1329.31063 1119.31063,1302 1153,1302 Z M1153,1338.27027 C1139.34215,1338.27027 1128.27027,1349.34215 1128.27027,1363 C1128.27027,1376.65785 1139.34215,1387.72973 1153,1387.72973 C1166.65785,1387.72973 1177.72973,1376.65785 1177.72973,1363 C1177.72973,1349.34215 1166.65785,1338.27027 1153,1338.27027 Z M973.5,1355 C978.746705,1355 983,1359.25329 983,1364.5 C983,1369.74671 978.746705,1374 973.5,1374 C968.253295,1374 964,1369.74671 964,1364.5 C964,1359.25329 968.253295,1355 973.5,1355 Z M1340.5,1324 C1349.06041,1324 1356,1331.61116 1356,1341 C1356,1350.38884 1349.06041,1358 1340.5,1358 C1331.93959,1358 1325,1350.38884 1325,1341 C1325,1331.61116 1331.93959,1324 1340.5,1324 Z M868,1167 C896.718807,1167 920,1190.28119 920,1219 C920,1247.71881 896.718807,1271 868,1271 C839.281193,1271 816,1247.71881 816,1219 C816,1190.28119 839.281193,1167 868,1167 Z M1403,1215 C1416.80712,1215 1428,1226.19288 1428,1240 C1428,1253.80712 1416.80712,1265 1403,1265 C1389.19288,1265 1378,1253.80712 1378,1240 C1378,1226.19288 1389.19288,1215 1403,1215 Z M1403,1229 C1396.92487,1229 1392,1233.92487 1392,1240 C1392,1246.07513 1396.92487,1251 1403,1251 C1409.07513,1251 1414,1246.07513 1414,1240 C1414,1233.92487 1409.07513,1229 1403,1229 Z M869.575758,1195.36364 C855.651488,1195.36364 844.363636,1206.65149 844.363636,1220.57576 C844.363636,1234.50003 855.651488,1245.78788 869.575758,1245.78788 C883.500028,1245.78788 894.787879,1234.50003 894.787879,1220.57576 C894.787879,1206.65149 883.500028,1195.36364 869.575758,1195.36364 Z M1189,1123 C1202.80712,1123 1214,1134.41674 1214,1148.5 C1214,1162.58326 1202.80712,1174 1189,1174 C1175.19288,1174 1164,1162.58326 1164,1148.5 C1164,1134.41674 1175.19288,1123 1189,1123 Z M1318.5,1151 C1322.08985,1151 1325,1153.91015 1325,1157.5 C1325,1161.08985 1322.08985,1164 1318.5,1164 C1314.91015,1164 1312,1161.08985 1312,1157.5 C1312,1153.91015 1314.91015,1151 1318.5,1151 Z M1543.5,1123 C1553.71727,1123 1562,1131.28273 1562,1141.5 C1562,1151.71727 1553.71727,1160 1543.5,1160 C1533.28273,1160 1525,1151.71727 1525,1141.5 C1525,1131.28273 1533.28273,1123 1543.5,1123 Z M1020.5,1078 C1029.06041,1078 1036,1084.93959 1036,1093.5 C1036,1102.06041 1029.06041,1109 1020.5,1109 C1011.93959,1109 1005,1102.06041 1005,1093.5 C1005,1084.93959 1011.93959,1078 1020.5,1078 Z M1402.5,1019 C1407.74671,1019 1412,1023.25329 1412,1028.5 C1412,1033.74671 1407.74671,1038 1402.5,1038 C1397.25329,1038 1393,1033.74671 1393,1028.5 C1393,1023.25329 1397.25329,1019 1402.5,1019 Z M1590.5,1013 C1594.08985,1013 1597,1015.91015 1597,1019.5 C1597,1023.08985 1594.08985,1026 1590.5,1026 C1586.91015,1026 1584,1023.08985 1584,1019.5 C1584,1015.91015 1586.91015,1013 1590.5,1013 Z" id="crumbs-1" transform="translate(1206.500000, 1295.000000) rotate(90.000000) translate(-1206.500000, -1295.000000) "></path>
        </g>
    </g>
</svg>