<?xml version="1.0" encoding="UTF-8"?>
<svg width="657px" height="2090px" viewBox="0 0 657 2090" version="1.1" xmlns="http://www.w3.org/2000/svg" xmlns:xlink="http://www.w3.org/1999/xlink">
    <!-- Generator: Sketch 57.1 (83088) - https://sketch.com -->
    <title>Group</title>
    <desc>Created with Sketch.</desc>
    <defs>
        <linearGradient x1="57.8344459%" y1="79.145088%" x2="44.7742688%" y2="-15.0335947%" id="linearGradient-1">
            <stop stop-color="#785EEF" offset="0%"></stop>
            <stop stop-color="#6D54D0" offset="100%"></stop>
        </linearGradient>
        <linearGradient x1="44.7742688%" y1="-15.0335947%" x2="57.8344459%" y2="79.145088%" id="linearGradient-2">
            <stop stop-color="#7158E3" offset="0%"></stop>
            <stop stop-color="#6D54D0" offset="100%"></stop>
        </linearGradient>
        <linearGradient x1="56.8668503%" y1="31.5094545%" x2="53.1910409%" y2="68.6498282%" id="linearGradient-3">
            <stop stop-color="#F5F4F9" offset="0%"></stop>
            <stop stop-color="#5255C9" offset="100%"></stop>
        </linearGradient>
    </defs>
    <g id="Page-1" stroke="none" stroke-width="1" fill="none" fill-rule="evenodd">
        <g id="Stop-Wasting-time_Landing_1" transform="translate(2.000000, -7501.000000)" fill-rule="nonzero">
            <g id="Group" transform="translate(-2.000000, 7501.000000)">
                <path d="M134.694572,760.143766 C132.832163,752.066224 137.861962,744.006325 145.928944,742.141478 C153.995926,740.27663 162.045288,745.313014 163.907698,753.390556 C165.770107,761.468098 160.740308,769.527997 152.673326,771.392845 C144.606344,773.257692 136.556982,768.221308 134.694572,760.143766 Z M257.925119,849.763307 C256.931834,845.455285 259.614394,841.156672 263.916785,840.162086 C268.219175,839.167501 272.512168,841.853573 273.505453,846.161595 C274.498738,850.469617 271.816178,854.76823 267.513788,855.762816 C263.211398,856.757401 258.918405,854.07133 257.925119,849.763307 Z M234.015441,697.130111 C233.394638,694.437597 235.071237,691.750964 237.760231,691.129348 C240.449225,690.507732 243.132346,692.186527 243.753149,694.879041 C244.373952,697.571555 242.697353,700.258188 240.008359,700.879804 C237.319365,701.501419 234.636244,699.822625 234.015441,697.130111 Z M173.138799,940.227474 C172.517996,937.53496 174.194596,934.848327 176.88359,934.226711 C179.572584,933.605095 182.255705,935.28389 182.876508,937.976404 C183.497311,940.668918 181.820711,943.355551 179.131717,943.977167 C176.442723,944.598783 173.759602,942.919988 173.138799,940.227474 Z M136.310855,1220.90015 C135.317569,1216.59212 138.000129,1212.29351 142.30252,1211.29893 C146.60491,1210.30434 150.897903,1212.99041 151.891188,1217.29843 C152.884473,1221.60646 150.201913,1225.90507 145.899523,1226.89966 C141.597133,1227.89424 137.30414,1225.20817 136.310855,1220.90015 Z M185.920249,1044.59591 C183.374956,1033.55661 190.902973,1022.39024 202.734547,1019.65513 C214.56612,1016.92002 226.220873,1023.6519 228.766166,1034.69121 C231.311459,1045.73051 223.783441,1056.89688 211.951868,1059.63199 C200.120295,1062.3671 188.465542,1055.63522 185.920249,1044.59591 Z M284.359405,1164.59487 C282.683236,1157.32508 287.210056,1150.07117 294.470339,1148.39281 C301.730623,1146.71444 308.975049,1151.24719 310.651217,1158.51698 C312.327386,1165.78676 307.800566,1173.04067 300.540283,1174.71904 C293.279999,1176.3974 286.035573,1171.86465 284.359405,1164.59487 Z M15.3487825,958.731084 C13.672614,951.461296 18.1994337,944.207387 25.4597173,942.529024 C32.720001,940.850661 39.9644269,945.383407 41.6405955,952.653195 C43.316764,959.922983 38.7899443,967.176892 31.5296606,968.855255 C24.269377,970.533617 17.0249511,966.000872 15.3487825,958.731084 Z M25.4550286,1291.71542 C23.5926191,1283.63788 28.6224188,1275.57798 36.6894006,1273.71313 C44.7563825,1271.84828 52.8057446,1276.88467 54.6681541,1284.96221 C56.5305636,1293.03975 51.5007639,1301.09965 43.4337821,1302.9645 C35.3668002,1304.82935 27.3174381,1299.79296 25.4550286,1291.71542 Z M73.2458771,893.996207 C69.5831384,878.110375 79.4750778,862.259239 95.3401421,858.591706 C111.205206,854.924172 127.035619,864.829061 130.698357,880.714894 C134.361096,896.600726 124.469157,912.451862 108.604092,916.119395 C92.7390279,919.786929 76.9086158,909.88204 73.2458771,893.996207 Z M88.3148375,890.091918 C89.9935927,897.372925 97.2491983,901.912666 104.520686,900.231713 C111.792174,898.55076 116.325979,891.285656 114.647224,884.00465 C112.968469,876.723643 105.712863,872.183902 98.4413756,873.864855 C91.1698878,875.545808 86.6360822,882.810912 88.3148375,890.091918 Z M48.9607888,1131.20223 C42.7527571,1104.27709 59.5187561,1077.41075 86.4086956,1071.1946 C113.298635,1064.97844 140.129842,1081.76638 146.337874,1108.69152 C152.545905,1135.61666 135.779907,1162.483 108.889967,1168.69915 C82.0000275,1174.91531 55.1688205,1158.12737 48.9607888,1131.20223 Z M77.910733,1124.50985 C80.4275026,1135.42545 91.305019,1142.23138 102.206346,1139.71131 C113.107673,1137.19125 119.904699,1126.29949 117.38793,1115.38389 C114.87116,1104.4683 103.993644,1097.66237 93.0923168,1100.18244 C82.19099,1102.7025 75.3939634,1113.59426 77.910733,1124.50985 Z M171.788366,1316.94088 C166.511539,1294.05451 180.544652,1271.26852 203.132201,1266.04695 C225.719751,1260.82538 248.308291,1275.14552 253.585117,1298.03189 C258.861944,1320.91826 244.828831,1343.70425 222.241282,1348.92582 C199.653733,1354.1474 177.065193,1339.82725 171.788366,1316.94088 Z M192.479284,1312.04883 C195.037746,1323.14525 205.989765,1330.08835 216.941304,1327.55668 C227.892843,1325.02501 234.696777,1313.97725 232.138315,1302.88083 C229.579853,1291.78441 218.627834,1284.84131 207.676295,1287.37298 C196.724756,1289.90465 189.920822,1300.95241 192.479284,1312.04883 Z" id="crumbs-6-copy" fill="url(#linearGradient-1)" opacity="0.512276786"></path>
                <path d="M176.305428,69.1437664 C174.443018,77.2213085 166.393656,82.2576925 158.326674,80.392845 C150.259692,78.5279974 145.229893,70.4680982 147.092302,62.3905561 C148.954712,54.3130141 157.004074,49.27663 165.071056,51.1414776 C173.138038,53.0063251 178.167837,61.0662243 176.305428,69.1437664 Z M53.0748805,158.763307 C52.0815955,163.07133 47.7886023,165.757401 43.486212,164.762816 C39.1838217,163.76823 36.5012619,159.469617 37.4945469,155.161595 C38.487832,150.853573 42.7808251,148.167501 47.0832155,149.162086 C51.3856058,150.156672 54.0681656,154.455285 53.0748805,158.763307 Z M76.9845592,6.13011076 C76.3637561,8.82262478 73.6806354,10.5014195 70.9916414,9.87980361 C68.3026475,9.25818777 66.6260476,6.57155469 67.2468508,3.87904067 C67.8676539,1.18652665 70.5507746,-0.492268028 73.2397686,0.129347813 C75.9287625,0.750963655 77.6053624,3.43759674 76.9845592,6.13011076 Z M137.861201,249.227474 C137.240398,251.919988 134.557277,253.598783 131.868283,252.977167 C129.179289,252.355551 127.502689,249.668918 128.123492,246.976404 C128.744295,244.28389 131.427416,242.605095 134.11641,243.226711 C136.805404,243.848327 138.482004,246.53496 137.861201,249.227474 Z M174.689145,529.900147 C173.69586,534.208169 169.402867,536.894241 165.100477,535.899655 C160.798087,534.90507 158.115527,530.606457 159.108812,526.298435 C160.102097,521.990412 164.39509,519.304341 168.69748,520.298926 C172.999871,521.293511 175.682431,525.592124 174.689145,529.900147 Z M125.079751,353.595914 C122.534458,364.635222 110.879705,371.367104 99.0481321,368.631994 C87.2165587,365.896885 79.688541,354.730513 82.233834,343.691206 C84.779127,332.651898 96.43388,325.920016 108.265453,328.655126 C120.097027,331.390235 127.625044,342.556607 125.079751,353.595914 Z M26.6405955,473.594866 C24.9644269,480.864654 17.720001,485.3974 10.4597173,483.719037 C3.19943367,482.040674 -1.32738604,474.786765 0.348782516,467.516977 C2.02495107,460.247189 9.26937697,455.714444 16.5296606,457.392806 C23.7899443,459.071169 28.316764,466.325078 26.6405955,473.594866 Z M295.651217,267.731084 C293.975049,275.000872 286.730623,279.533617 279.470339,277.855255 C272.210056,276.176892 267.683236,268.922983 269.359405,261.653195 C271.035573,254.383407 278.279999,249.850661 285.540283,251.529024 C292.800566,253.207387 297.327386,260.461296 295.651217,267.731084 Z M285.544971,600.715421 C283.682562,608.792963 275.6332,613.829347 267.566218,611.9645 C259.499236,610.099652 254.469436,602.039753 256.331846,593.962211 C258.194255,585.884669 266.243618,580.848285 274.310599,582.713133 C282.377581,584.57798 287.407381,592.637879 285.544971,600.715421 Z M237.754123,202.996207 C234.091384,218.88204 218.260972,228.786929 202.395908,225.119395 C186.530843,221.451862 176.638904,205.600726 180.301643,189.714894 C183.964381,173.829061 199.794794,163.924172 215.659858,167.591706 C231.524922,171.259239 241.416862,187.110375 237.754123,202.996207 Z M222.685163,199.091918 C224.363918,191.810912 219.830112,184.545808 212.558624,182.864855 C205.287137,181.183902 198.031531,185.723643 196.352776,193.00465 C194.674021,200.285656 199.207826,207.55076 206.479314,209.231713 C213.750802,210.912666 221.006407,206.372925 222.685163,199.091918 Z M262.039211,440.202225 C255.831179,467.127365 228.999972,483.915312 202.110033,477.699154 C175.220093,471.482995 158.454095,444.616665 164.662126,417.691524 C170.870158,390.766384 197.701365,373.978437 224.591304,380.194596 C251.481244,386.410754 268.247243,413.277085 262.039211,440.202225 Z M233.089267,433.509855 C235.606037,422.594257 228.80901,411.702502 217.907683,409.182437 C207.006356,406.662373 196.12884,413.468297 193.61207,424.383895 C191.095301,435.299492 197.892327,446.191248 208.793654,448.711312 C219.694981,451.231376 230.572497,444.425452 233.089267,433.509855 Z M139.211634,625.940882 C133.934807,648.827251 111.346267,663.147398 88.7587178,657.925825 C66.1711687,652.704252 52.1380556,629.918262 57.4148825,607.031893 C62.6917095,584.145524 85.2802494,569.825377 107.867799,575.04695 C130.455348,580.268523 144.488461,603.054513 139.211634,625.940882 Z M118.520716,621.048828 C121.079178,609.952407 114.275244,598.904654 103.323705,596.372982 C92.3721659,593.841311 81.4201465,600.784412 78.861685,611.880833 C76.3032235,622.977255 83.1071571,634.025007 94.0586961,636.556679 C105.010235,639.088351 115.962254,632.145249 118.520716,621.048828 Z" id="crumbs-5-copy" fill="url(#linearGradient-2)" opacity="0.512276786"></path>
                <path d="M570,2064 C577.179702,2064 583,2069.8203 583,2077 C583,2084.1797 577.179702,2090 570,2090 C562.820298,2090 557,2084.1797 557,2077 C557,2069.8203 562.820298,2064 570,2064 Z M438.5,1952 C462.524387,1952 482,1971.47561 482,1995.5 C482,2019.52439 462.524387,2039 438.5,2039 C414.475613,2039 395,2019.52439 395,1995.5 C395,1971.47561 414.475613,1952 438.5,1952 Z M285,2010 C291.627417,2010 297,2015.37258 297,2022 C297,2028.62742 291.627417,2034 285,2034 C278.372583,2034 273,2028.62742 273,2022 C273,2015.37258 278.372583,2010 285,2010 Z M438.5,1977.86486 C428.760384,1977.86486 420.864865,1985.76038 420.864865,1995.5 C420.864865,2005.23962 428.760384,2013.13514 438.5,2013.13514 C448.239616,2013.13514 456.135135,2005.23962 456.135135,1995.5 C456.135135,1985.76038 448.239616,1977.86486 438.5,1977.86486 Z M531,1968 C534.865993,1968 538,1971.13401 538,1975 C538,1978.86599 534.865993,1982 531,1982 C527.134007,1982 524,1978.86599 524,1975 C524,1971.13401 527.134007,1968 531,1968 Z M240.5,1920 C254.583261,1920 266,1931.41674 266,1945.5 C266,1959.58326 254.583261,1971 240.5,1971 C226.416739,1971 215,1959.58326 215,1945.5 C215,1931.41674 226.416739,1920 240.5,1920 Z M620,1898 C640.434536,1898 657,1914.34161 657,1934.5 C657,1954.65839 640.434536,1971 620,1971 C599.565464,1971 583,1954.65839 583,1934.5 C583,1914.34161 599.565464,1898 620,1898 Z M240.145833,1934.16667 C233.691005,1934.16667 228.458333,1939.39934 228.458333,1945.85417 C228.458333,1952.30899 233.691005,1957.54167 240.145833,1957.54167 C246.600661,1957.54167 251.833333,1952.30899 251.833333,1945.85417 C251.833333,1939.39934 246.600661,1934.16667 240.145833,1934.16667 Z M619.590326,1917.90909 C609.682673,1917.90909 601.650932,1925.83229 601.650932,1935.60606 C601.650932,1945.37983 609.682673,1953.30303 619.590326,1953.30303 C629.49798,1953.30303 637.52972,1945.37983 637.52972,1935.60606 C637.52972,1925.83229 629.49798,1917.90909 619.590326,1917.90909 Z M391,1867 C400.941125,1867 409,1875.50659 409,1886 C409,1896.49341 400.941125,1905 391,1905 C381.058875,1905 373,1896.49341 373,1886 C373,1875.50659 381.058875,1867 391,1867 Z M299.5,1887 C301.985281,1887 304,1889.01472 304,1891.5 C304,1893.98528 301.985281,1896 299.5,1896 C297.014719,1896 295,1893.98528 295,1891.5 C295,1889.01472 297.014719,1887 299.5,1887 Z M139,1867 C146.179702,1867 152,1872.8203 152,1880 C152,1887.1797 146.179702,1893 139,1893 C131.820298,1893 126,1887.1797 126,1880 C126,1872.8203 131.820298,1867 139,1867 Z M512,1821 C518.627417,1821 524,1826.37258 524,1833 C524,1839.62742 518.627417,1845 512,1845 C505.372583,1845 500,1839.62742 500,1833 C500,1826.37258 505.372583,1821 512,1821 Z M239,1792 C242.865993,1792 246,1795.13401 246,1799 C246,1802.86599 242.865993,1806 239,1806 C235.134007,1806 232,1802.86599 232,1799 C232,1795.13401 235.134007,1792 239,1792 Z M105.5,1788 C107.985281,1788 110,1790.01472 110,1792.5 C110,1794.98528 107.985281,1797 105.5,1797 C103.014719,1797 101,1794.98528 101,1792.5 C101,1790.01472 103.014719,1788 105.5,1788 Z" id="crumbs-4-copy" fill="url(#linearGradient-3)" opacity="0.154831659"></path>
            </g>
        </g>
    </g>
</svg>