<?xml version="1.0" encoding="UTF-8"?>
<svg width="403px" height="627px" viewBox="0 0 403 627" version="1.1" xmlns="http://www.w3.org/2000/svg" xmlns:xlink="http://www.w3.org/1999/xlink">
    <!-- Generator: Sketch 57.1 (83088) - https://sketch.com -->
    <title>crumbs 2</title>
    <desc>Created with Sketch.</desc>
    <defs>
        <linearGradient x1="52.8368253%" y1="-12.6737125%" x2="51.3182792%" y2="113.213601%" id="linearGradient-1">
            <stop stop-color="#F5F4F9" offset="0%"></stop>
            <stop stop-color="#5255C9" offset="100%"></stop>
        </linearGradient>
    </defs>
    <g id="Page-1" stroke="none" stroke-width="1" fill="none" fill-rule="evenodd" opacity="0.15">
        <g id="Stop-Wasting-time_Landing_1" transform="translate(-1021.000000, -2269.000000)" fill="url(#linearGradient-1)" fill-rule="nonzero">
            <path d="M1419.60303,2383.52762 C1413.7404,2389.38171 1404.2352,2389.38171 1398.37257,2383.52762 C1392.50994,2377.67354 1392.50994,2368.18219 1398.37257,2362.3281 C1404.2352,2356.47402 1413.7404,2356.47402 1419.60303,2362.3281 C1425.46566,2368.18219 1425.46566,2377.67354 1419.60303,2383.52762 Z M1267.45139,2394.12738 C1264.32465,2397.24956 1259.25521,2397.24956 1256.12847,2394.12738 C1253.00174,2391.0052 1253.00174,2385.94315 1256.12847,2382.82097 C1259.25521,2379.69879 1264.32465,2379.69879 1267.45139,2382.82097 C1270.57812,2385.94315 1270.57812,2391.0052 1267.45139,2394.12738 Z M1368.64992,2277.53003 C1366.69571,2279.48139 1363.52731,2279.48139 1361.5731,2277.53003 C1359.61889,2275.57867 1359.61889,2272.41488 1361.5731,2270.46352 C1363.52731,2268.51216 1366.69571,2268.51216 1368.64992,2270.46352 C1370.60413,2272.41488 1370.60413,2275.57867 1368.64992,2277.53003 Z M1291.51258,2515.67129 C1289.55837,2517.62266 1286.38997,2517.62266 1284.43576,2515.67129 C1282.48155,2513.71993 1282.48155,2510.55615 1284.43576,2508.60479 C1286.38997,2506.65343 1289.55837,2506.65343 1291.51258,2508.60479 C1293.46679,2510.55615 1293.46679,2513.71993 1291.51258,2515.67129 Z M1174.03736,2772.89213 C1170.91062,2776.01431 1165.84118,2776.01431 1162.71444,2772.89213 C1159.58771,2769.76995 1159.58771,2764.7079 1162.71444,2761.58572 C1165.84118,2758.46354 1170.91062,2758.46354 1174.03736,2761.58572 C1177.16409,2764.7079 1177.16409,2769.76995 1174.03736,2772.89213 Z M1225.34431,2597.28944 C1217.33204,2605.29003 1203.86634,2604.81546 1195.26782,2596.22947 C1186.66929,2587.64348 1186.19403,2574.1974 1194.2063,2566.19682 C1202.21856,2558.19623 1215.68426,2558.6708 1224.28278,2567.25679 C1232.88131,2575.84278 1233.35657,2589.28886 1225.34431,2597.28944 Z M1078.14644,2646.75499 C1072.87007,2652.02367 1064.31539,2652.02367 1059.03902,2646.75499 C1053.76266,2641.48631 1053.76266,2632.9441 1059.03902,2627.67542 C1064.31539,2622.40674 1072.87007,2622.40674 1078.14644,2627.67542 C1083.42281,2632.9441 1083.42281,2641.48631 1078.14644,2646.75499 Z M1415.71078,2614.95571 C1410.43441,2620.22439 1401.87973,2620.22439 1396.60336,2614.95571 C1391.32699,2609.68703 1391.32699,2601.14482 1396.60336,2595.87614 C1401.87973,2590.60747 1410.43441,2590.60747 1415.71078,2595.87614 C1420.98714,2601.14482 1420.98714,2609.68703 1415.71078,2614.95571 Z M1230.65192,2891.60944 C1224.78929,2897.46352 1215.28409,2897.46352 1209.42146,2891.60944 C1203.55883,2885.75535 1203.55883,2876.264 1209.42146,2870.40992 C1215.28409,2864.55583 1224.78929,2864.55583 1230.65192,2870.40992 C1236.51455,2876.264 1236.51455,2885.75535 1230.65192,2891.60944 Z M1400.84945,2529.45098 C1389.31961,2540.96402 1370.62605,2540.96402 1359.09621,2529.45098 C1347.56637,2517.93795 1347.56637,2499.27163 1359.09621,2487.75859 C1370.62605,2476.24556 1389.31961,2476.24556 1400.84945,2487.75859 C1412.37929,2499.27163 1412.37929,2517.93795 1400.84945,2529.45098 Z M1390.12119,2518.15929 C1395.4057,2512.88249 1395.4057,2504.32709 1390.12119,2499.05028 C1384.83668,2493.77347 1376.2688,2493.77347 1370.98429,2499.05028 C1365.69978,2504.32709 1365.69978,2512.88249 1370.98429,2518.15929 C1376.2688,2523.4361 1384.83668,2523.4361 1390.12119,2518.15929 Z M1295.75867,2743.2128 C1276.21657,2762.72642 1244.53256,2762.72642 1224.99046,2743.2128 C1205.44836,2723.69918 1205.44836,2692.06136 1224.99046,2672.54774 C1244.53256,2653.03412 1276.21657,2653.03412 1295.75867,2672.54774 C1315.30077,2692.06136 1315.30077,2723.69918 1295.75867,2743.2128 Z M1274.71947,2722.20427 C1282.64195,2714.29334 1282.64195,2701.4672 1274.71947,2693.55627 C1266.797,2685.64534 1253.95213,2685.64534 1246.02966,2693.55627 C1238.10719,2701.4672 1238.10719,2714.29334 1246.02966,2722.20427 C1253.95213,2730.11519 1266.797,2730.11519 1274.71947,2722.20427 Z M1093.00776,2835.43071 C1076.39698,2852.01729 1049.62399,2852.17547 1033.20863,2835.78404 C1016.79327,2819.3926 1016.95169,2792.65863 1033.56247,2776.07206 C1050.17326,2759.48548 1076.94624,2759.32729 1093.3616,2775.71873 C1109.77697,2792.11017 1109.61855,2818.84413 1093.00776,2835.43071 Z M1078.9298,2820.7082 C1086.98351,2812.66623 1087.06032,2799.70431 1079.10136,2791.75694 C1071.14239,2783.80958 1058.16155,2783.88627 1050.10784,2791.92825 C1042.05412,2799.97023 1041.97731,2812.93215 1049.93628,2820.87951 C1057.89524,2828.82688 1070.87608,2828.75018 1078.9298,2820.7082 Z" id="crumbs-2"></path>
        </g>
    </g>
</svg>