<?xml version="1.0" encoding="UTF-8"?>
<svg width="1440px" height="1808px" viewBox="0 0 1440 1808" version="1.1" xmlns="http://www.w3.org/2000/svg" xmlns:xlink="http://www.w3.org/1999/xlink">
    <!-- Generator: Sketch 57.1 (83088) - https://sketch.com -->
    <title>purple bg</title>
    <desc>Created with Sketch.</desc>
    <defs>
        <linearGradient x1="47.8607247%" y1="1.8853099%" x2="21.3248211%" y2="95.2041185%" id="linearGradient-1">
            <stop stop-color="#734CD2" offset="0%"></stop>
            <stop stop-color="#4658C7" offset="100%"></stop>
        </linearGradient>
    </defs>
    <g id="Page-1" stroke="none" stroke-width="1" fill="none" fill-rule="evenodd">
        <g id="Stop-Wasting-time_Landing_1" transform="translate(0.000000, -1324.000000)" fill="url(#linearGradient-1)" fill-rule="nonzero">
            <path d="M0,2738.73634 L0,1324 L1440,1324 L1440,2913.06593 C1370.34826,2996.7101 1285.5307,3067.69925 1188.84222,3121.72645 C1134.1568,3152.28335 1067.55539,3110.8924 1069.3516,3047.4663 C1070.71135,2999.45193 1034.8884,2958.38478 987.552202,2954.18592 C981.110206,2953.61449 974.748663,2953.73593 968.5135,2954.52549 C926.453269,2959.85157 887.527786,2931.177 879.390291,2888.87263 C866.851789,2823.68875 813.190227,2773.90841 747.091595,2768.04526 C715.002246,2765.19883 683.772079,2772.8716 656.954678,2789.61619 C608.536991,2819.84783 545.410627,2791.11328 535.342958,2734.25961 C528.246243,2694.18339 495.454029,2663.3187 454.912006,2659.7225 C413.205948,2656.02304 374.746035,2682.18893 361.888037,2722.02944 C344.262569,2776.64196 278.355848,2796.43383 234.441108,2760.3019 C217.262146,2746.16749 196.445099,2737.51356 173.847862,2735.50912 C143.947309,2732.85685 115.073212,2742.28667 92.4395614,2761.42116 C65.0659233,2784.56284 28.0732087,2755.4194 0,2738.73634 Z" id="purple-bg"></path>
        </g>
    </g>
</svg>