<?xml version="1.0" encoding="UTF-8"?>
<svg width="1440px" height="1324px" viewBox="0 0 1440 1324" version="1.1" xmlns="http://www.w3.org/2000/svg" xmlns:xlink="http://www.w3.org/1999/xlink">
    <!-- Generator: Sketch 57.1 (83088) - https://sketch.com -->
    <title>bg 1</title>
    <desc>Created with Sketch.</desc>
    <defs>
        <linearGradient x1="100%" y1="7.73109568%" x2="4.7958815%" y2="88.2145712%" id="linearGradient-1">
            <stop stop-color="#9059D4" offset="0%"></stop>
            <stop stop-color="#4658C7" offset="100%"></stop>
        </linearGradient>
    </defs>
    <g id="Page-1" stroke="none" stroke-width="1" fill="none" fill-rule="evenodd" opacity="0.571661086">
        <g id="Stop-Wasting-time_Landing_1" fill="url(#linearGradient-1)" fill-rule="nonzero">
            <g id="bg-copy">
                <path d="M128.075758,390.603194 C159.787659,390.603194 189.819415,381.28531 215.443063,364.024081 C280.945029,319.899045 370.354338,354.992046 388.338052,431.88507 C401.457395,487.979485 451.875717,528.464703 510.40404,528.464703 C567.298812,528.464703 616.677517,490.198947 631.377289,436.204709 C652.230947,359.606423 743.599817,327.939414 807.397653,375.198827 C842.73375,401.374688 885.305697,415.668923 930.338384,415.668923 C1023.0981,415.668923 1103.81462,354.045502 1129.11049,266.344904 C1145.52752,209.427168 1203.18478,174.903911 1261.1217,187.300967 C1269.71048,189.138752 1278.55556,190.077363 1287.59596,190.077363 C1354.02535,190.077363 1408.85104,138.214575 1412.72753,72.3279491 C1414.30214,45.5651537 1424.33898,17.7857959 1440,0 L1440,1324 L0,1324 L0,328.5 C5.35183846,332.211813 12.9910357,340.475557 17.8130095,345.250826 C47.0352163,374.18999 86.1147246,390.603194 128.075758,390.603194 Z" id="bg-1"></path>
            </g>
        </g>
    </g>
</svg>