<?xml version="1.0" encoding="UTF-8"?>
<svg width="375px" height="1032px" viewBox="0 0 375 1032" version="1.1" xmlns="http://www.w3.org/2000/svg" xmlns:xlink="http://www.w3.org/1999/xlink">
    <!-- Generator: Sketch 57.1 (83088) - https://sketch.com -->
    <title>Group 2</title>
    <desc>Created with Sketch.</desc>
    <defs>
        <rect id="path-1" x="0" y="0" width="376" height="1063"></rect>
        <linearGradient x1="49.5351013%" y1="1.8853099%" x2="43.7684255%" y2="95.2041185%" id="linearGradient-3">
            <stop stop-color="#734CD2" offset="0%"></stop>
            <stop stop-color="#4658C7" offset="100%"></stop>
        </linearGradient>
        <linearGradient x1="56.8668503%" y1="31.3767031%" x2="53.1910409%" y2="68.7837231%" id="linearGradient-4">
            <stop stop-color="#F5F4F9" offset="0%"></stop>
            <stop stop-color="#5255C9" offset="100%"></stop>
        </linearGradient>
        <linearGradient x1="53.1910409%" y1="68.7514198%" x2="33.8262983%" y2="31.1947487%" id="linearGradient-5">
            <stop stop-color="#F5F4F9" offset="0%"></stop>
            <stop stop-color="#5255C9" offset="100%"></stop>
        </linearGradient>
    </defs>
    <g id="Page-1" stroke="none" stroke-width="1" fill="none" fill-rule="evenodd">
        <g id="mobile-version" transform="translate(0.000000, -1168.000000)">
            <g id="Group-2" transform="translate(-1.000000, 1168.000000)">
                <mask id="mask-2" fill="white">
                    <use xlink:href="#path-1"></use>
                </mask>
                <g id="Rectangle"></g>
                <g id="Group" mask="url(#mask-2)" fill-rule="nonzero">
                    <g transform="translate(-122.000000, -1.000000)">
                        <path d="M123,909.033542 L123,0 L498,0 L498,953.790899 C479.861527,975.26569 457.77362,993.491435 432.594329,1007.36237 C418.353332,1015.20754 401.009217,1004.58084 401.476978,988.29683 C401.831079,975.969628 392.502187,965.426054 380.175053,964.348038 C378.497449,964.20133 376.840798,964.232508 375.217057,964.435219 C364.263872,965.802636 354.127028,958.440732 352.007888,947.579513 C348.742653,930.844214 334.768288,918.063615 317.555103,916.558311 C309.198502,915.82752 301.065646,917.797426 294.081947,922.096429 C281.473175,929.858097 265.034018,922.48079 262.412229,907.88419 C260.564126,897.595025 252.024487,889.670829 241.466668,888.74754 C230.605716,887.797743 220.590113,894.515569 217.241676,904.744217 C212.651711,918.765428 195.488502,923.846789 184.052372,914.570283 C179.578684,910.941416 174.157578,908.719608 168.272881,908.204987 C160.486278,907.524043 152.966982,909.945054 147.072802,914.857641 C139.944251,920.799032 130.310731,913.31675 123,909.033542 Z" id="Path" fill="url(#linearGradient-3)"></path>
                        <path d="M585.760822,863.943173 C590.1791,863.943173 593.760822,867.524895 593.760822,871.943173 C593.760822,876.361451 590.1791,879.943173 585.760822,879.943173 C581.342544,879.943173 577.760822,876.361451 577.760822,871.943173 C577.760822,867.524895 581.342544,863.943173 585.760822,863.943173 Z M505.857756,795.945698 C520.493302,795.945698 532.357756,807.810152 532.357756,822.445698 C532.357756,837.081244 520.493302,848.945698 505.857756,848.945698 C491.22221,848.945698 479.357756,837.081244 479.357756,822.445698 C479.357756,807.810152 491.22221,795.945698 505.857756,795.945698 Z M413.933875,831.709154 C417.799868,831.709154 420.933875,834.843161 420.933875,838.709154 C420.933875,842.575147 417.799868,845.709154 413.933875,845.709154 C410.067881,845.709154 406.933875,842.575147 406.933875,838.709154 C406.933875,834.843161 410.067881,831.709154 413.933875,831.709154 Z M505.857756,811.702455 C499.924427,811.702455 495.114513,816.512369 495.114513,822.445698 C495.114513,828.379027 499.924427,833.188941 505.857756,833.188941 C511.791085,833.188941 516.600999,828.379027 516.600999,822.445698 C516.600999,816.512369 511.791085,811.702455 505.857756,811.702455 Z M562.426299,806.424883 C564.635438,806.424883 566.426299,808.215744 566.426299,810.424883 C566.426299,812.634022 564.635438,814.424883 562.426299,814.424883 C560.21716,814.424883 558.426299,812.634022 558.426299,810.424883 C558.426299,808.215744 560.21716,806.424883 562.426299,806.424883 Z M387.063817,777.247213 C395.62423,777.247213 402.563817,784.1868 402.563817,792.747213 C402.563817,801.307627 395.62423,808.247213 387.063817,808.247213 C378.503403,808.247213 371.563817,801.307627 371.563817,792.747213 C371.563817,784.1868 378.503403,777.247213 387.063817,777.247213 Z M615.812861,763.322592 C628.239267,763.322592 638.312861,773.172327 638.312861,785.322592 C638.312861,797.472856 628.239267,807.322592 615.812861,807.322592 C603.386454,807.322592 593.312861,797.472856 593.312861,785.322592 C593.312861,773.172327 603.386454,763.322592 615.812861,763.322592 Z M386.848539,785.858324 C382.925016,785.858324 379.744372,789.038968 379.744372,792.962491 C379.744372,796.886014 382.925016,800.066658 386.848539,800.066658 C390.772062,800.066658 393.952706,796.886014 393.952706,792.962491 C393.952706,789.038968 390.772062,785.858324 386.848539,785.858324 Z M615.563735,775.322592 C609.53881,775.322592 604.654644,780.098221 604.654644,785.989259 C604.654644,791.880296 609.53881,796.655925 615.563735,796.655925 C621.588659,796.655925 626.472826,791.880296 626.472826,785.989259 C626.472826,780.098221 621.588659,775.322592 615.563735,775.322592 Z M477.927038,745.538321 C484.00217,745.538321 488.927038,750.687046 488.927038,757.038321 C488.927038,763.389595 484.00217,768.538321 477.927038,768.538321 C471.851906,768.538321 466.927038,763.389595 466.927038,757.038321 C466.927038,750.687046 471.851906,745.538321 477.927038,745.538321 Z M423.126263,757.013194 C424.506975,757.013194 425.626263,758.132483 425.626263,759.513194 C425.626263,760.893906 424.506975,762.013194 423.126263,762.013194 C421.745551,762.013194 420.626263,760.893906 420.626263,759.513194 C420.626263,758.132483 421.745551,757.013194 423.126263,757.013194 Z M325.545527,745.149233 C329.963805,745.149233 333.545527,748.730955 333.545527,753.149233 C333.545527,757.567511 329.963805,761.149233 325.545527,761.149233 C321.127249,761.149233 317.545527,757.567511 317.545527,753.149233 C317.545527,748.730955 321.127249,745.149233 325.545527,745.149233 Z M551.11259,717.157855 C554.978583,717.157855 558.11259,720.291862 558.11259,724.157855 C558.11259,728.023849 554.978583,731.157855 551.11259,731.157855 C547.246597,731.157855 544.11259,728.023849 544.11259,724.157855 C544.11259,720.291862 547.246597,717.157855 551.11259,717.157855 Z M386.35671,699.651759 C388.565849,699.651759 390.35671,701.44262 390.35671,703.651759 C390.35671,705.860898 388.565849,707.651759 386.35671,707.651759 C384.147571,707.651759 382.35671,705.860898 382.35671,703.651759 C382.35671,701.44262 384.147571,699.651759 386.35671,699.651759 Z M305.03943,696.909118 C306.420142,696.909118 307.53943,698.028406 307.53943,699.409118 C307.53943,700.78983 306.420142,701.909118 305.03943,701.909118 C303.658718,701.909118 302.53943,700.78983 302.53943,699.409118 C302.53943,698.028406 303.658718,696.909118 305.03943,696.909118 Z" id="crumbs" fill="url(#linearGradient-4)" opacity="0.101167225" transform="translate(470.426145, 788.426145) scale(-1, 1) rotate(-315.000000) translate(-470.426145, -788.426145) "></path>
                        <path d="M68,299 C73.5228475,299 78,303.477153 78,309 C78,314.522847 73.5228475,319 68,319 C62.4771525,319 58,314.522847 58,309 C58,303.477153 62.4771525,299 68,299 Z M186.5,167 C205.001539,167 220,181.998461 220,200.5 C220,219.001539 205.001539,234 186.5,234 C167.998461,234 153,219.001539 153,200.5 C153,181.998461 167.998461,167 186.5,167 Z M186.5,186.918919 C178.999376,186.918919 172.918919,192.999376 172.918919,200.5 C172.918919,208.000624 178.999376,214.081081 186.5,214.081081 C194.000624,214.081081 200.081081,208.000624 200.081081,200.5 C200.081081,192.999376 194.000624,186.918919 186.5,186.918919 Z M87.5,196 C90.5375661,196 93,198.462434 93,201.5 C93,204.537566 90.5375661,207 87.5,207 C84.4624339,207 82,204.537566 82,201.5 C82,198.462434 84.4624339,196 87.5,196 Z M290.5,179 C295.19442,179 299,183.253295 299,188.5 C299,193.746705 295.19442,198 290.5,198 C285.80558,198 282,193.746705 282,188.5 C282,183.253295 285.80558,179 290.5,179 Z M29,92 C45.0162577,92 58,104.983742 58,121 C58,137.016258 45.0162577,150 29,150 C12.9837423,150 0,137.016258 0,121 C0,104.983742 12.9837423,92 29,92 Z M325,119 C332.731986,119 339,125.268014 339,133 C339,140.731986 332.731986,147 325,147 C317.268014,147 311,140.731986 311,133 C311,125.268014 317.268014,119 325,119 Z M325,126.84 C321.597926,126.84 318.84,129.597926 318.84,133 C318.84,136.402074 321.597926,139.16 325,139.16 C328.402074,139.16 331.16,136.402074 331.16,133 C331.16,129.597926 328.402074,126.84 325,126.84 Z M29.8787879,107.818182 C22.1133296,107.818182 15.8181818,114.11333 15.8181818,121.878788 C15.8181818,129.644246 22.1133296,135.939394 29.8787879,135.939394 C37.6442462,135.939394 43.9393939,129.644246 43.9393939,121.878788 C43.9393939,114.11333 37.6442462,107.818182 29.8787879,107.818182 Z M206,68 C213.731986,68 220,74.2680135 220,82 C220,89.7319865 213.731986,96 206,96 C198.268014,96 192,89.7319865 192,82 C192,74.2680135 198.268014,68 206,68 Z M277.5,83 C279.432997,83 281,84.5670034 281,86.5 C281,88.4329966 279.432997,90 277.5,90 C275.567003,90 274,88.4329966 274,86.5 C274,84.5670034 275.567003,83 277.5,83 Z M402,68 C407.522847,68 412,72.4771525 412,78 C412,83.5228475 407.522847,88 402,88 C396.477153,88 392,83.5228475 392,78 C392,72.4771525 396.477153,68 402,68 Z M113.5,43 C118.19442,43 122,46.8055796 122,51.5 C122,56.1944204 118.19442,60 113.5,60 C108.80558,60 105,56.1944204 105,51.5 C105,46.8055796 108.80558,43 113.5,43 Z M324.5,10 C327.537566,10 330,12.4624339 330,15.5 C330,18.5375661 327.537566,21 324.5,21 C321.462434,21 319,18.5375661 319,15.5 C319,12.4624339 321.462434,10 324.5,10 Z M428.5,7 C430.432997,7 432,8.56700338 432,10.5 C432,12.4329966 430.432997,14 428.5,14 C426.567003,14 425,12.4329966 425,10.5 C425,8.56700338 426.567003,7 428.5,7 Z" id="crumbs" fill="#844DDA"></path>
                        <path d="M343,1048 C347.418278,1048 351,1051.58172 351,1056 C351,1060.41828 347.418278,1064 343,1064 C338.581722,1064 335,1060.41828 335,1056 C335,1051.58172 338.581722,1048 343,1048 Z M263,981 C277.359403,981 289,992.640597 289,1007 C289,1021.3594 277.359403,1033 263,1033 C248.640597,1033 237,1021.3594 237,1007 C237,992.640597 248.640597,981 263,981 Z M171.5,1015 C175.642136,1015 179,1018.35786 179,1022.5 C179,1026.64214 175.642136,1030 171.5,1030 C167.357864,1030 164,1026.64214 164,1022.5 C164,1018.35786 167.357864,1015 171.5,1015 Z M263,996.459459 C257.17862,996.459459 252.459459,1001.17862 252.459459,1007 C252.459459,1012.82138 257.17862,1017.54054 263,1017.54054 C268.82138,1017.54054 273.540541,1012.82138 273.540541,1007 C273.540541,1001.17862 268.82138,996.459459 263,996.459459 Z M319,991 C321.209139,991 323,992.790861 323,995 C323,997.209139 321.209139,999 319,999 C316.790861,999 315,997.209139 315,995 C315,992.790861 316.790861,991 319,991 Z M144.5,960 C153.060414,960 160,966.939586 160,975.5 C160,984.060414 153.060414,991 144.5,991 C135.939586,991 129,984.060414 129,975.5 C129,966.939586 135.939586,960 144.5,960 Z M373.5,947 C385.926407,947 396,956.849736 396,969 C396,981.150264 385.926407,991 373.5,991 C361.073593,991 351,981.150264 351,969 C351,956.849736 361.073593,947 373.5,947 Z M144.284722,968.611111 C140.361199,968.611111 137.180556,971.791755 137.180556,975.715278 C137.180556,979.638801 140.361199,982.819444 144.284722,982.819444 C148.208245,982.819444 151.388889,979.638801 151.388889,975.715278 C151.388889,971.791755 148.208245,968.611111 144.284722,968.611111 Z M373.250874,959 C367.22595,959 362.341783,963.775629 362.341783,969.666667 C362.341783,975.557704 367.22595,980.333333 373.250874,980.333333 C379.275799,980.333333 384.159965,975.557704 384.159965,969.666667 C384.159965,963.775629 379.275799,959 373.250874,959 Z M235,929 C241.075132,929 246,934.148725 246,940.5 C246,946.851275 241.075132,952 235,952 C228.924868,952 224,946.851275 224,940.5 C224,934.148725 228.924868,929 235,929 Z M180,941 C181.656854,941 183,942.343146 183,944 C183,945.656854 181.656854,947 180,947 C178.343146,947 177,945.656854 177,944 C177,942.343146 178.343146,941 180,941 Z M83,929 C87.418278,929 91,932.581722 91,937 C91,941.418278 87.418278,945 83,945 C78.581722,945 75,941.418278 75,937 C75,932.581722 78.581722,929 83,929 Z M308.5,900 C312.642136,900 316,903.357864 316,907.5 C316,911.642136 312.642136,915 308.5,915 C304.357864,915 301,911.642136 301,907.5 C301,903.357864 304.357864,900 308.5,900 Z M143,884 C145.209139,884 147,885.790861 147,888 C147,890.209139 145.209139,892 143,892 C140.790861,892 139,890.209139 139,888 C139,885.790861 140.790861,884 143,884 Z M63,881 C64.6568542,881 66,882.343146 66,884 C66,885.656854 64.6568542,887 63,887 C61.3431458,887 60,885.656854 60,884 C60,882.343146 61.3431458,881 63,881 Z" id="crumbs" fill="url(#linearGradient-5)" opacity="0.197149368" transform="translate(228.000000, 972.500000) scale(-1, 1) translate(-228.000000, -972.500000) "></path>
                    </g>
                </g>
            </g>
        </g>
    </g>
</svg>