<?xml version="1.0" encoding="UTF-8"?>
<svg width="375px" height="1531px" viewBox="0 0 375 1531" version="1.1" xmlns="http://www.w3.org/2000/svg" xmlns:xlink="http://www.w3.org/1999/xlink">
    <!-- Generator: Sketch 57.1 (83088) - https://sketch.com -->
    <title>Group 3</title>
    <desc>Created with Sketch.</desc>
    <defs>
        <linearGradient x1="56.8668503%" y1="31.4377454%" x2="53.1910409%" y2="68.722155%" id="linearGradient-1">
            <stop stop-color="#F5F4F9" offset="0%"></stop>
            <stop stop-color="#5255C9" offset="100%"></stop>
        </linearGradient>
        <linearGradient x1="45.1482064%" y1="27.6288529%" x2="51.5298628%" y2="69.4605755%" id="linearGradient-2">
            <stop stop-color="#734CD2" offset="0%"></stop>
            <stop stop-color="#4658C7" offset="100%"></stop>
        </linearGradient>
    </defs>
    <g id="Page-1" stroke="none" stroke-width="1" fill="none" fill-rule="evenodd">
        <g id="mobile-version" transform="translate(0.000000, -5320.000000)" fill-rule="nonzero">
            <g id="Group-3" transform="translate(0.000000, 5320.000000)">
                <path d="M328,146 C331.865993,146 335,149.134007 335,153 C335,156.865993 331.865993,160 328,160 C324.134007,160 321,156.865993 321,153 C321,149.134007 324.134007,146 328,146 Z M258,86 C270.702549,86 281,96.2974508 281,109 C281,121.702549 270.702549,132 258,132 C245.297451,132 235,121.702549 235,109 C235,96.2974508 245.297451,86 258,86 Z M177,118 C180.313708,118 183,120.686292 183,124 C183,127.313708 180.313708,130 177,130 C173.686292,130 171,127.313708 171,124 C171,120.686292 173.686292,118 177,118 Z M258,99.6756757 C252.850318,99.6756757 248.675676,103.850318 248.675676,109 C248.675676,114.149682 252.850318,118.324324 258,118.324324 C263.149682,118.324324 267.324324,114.149682 267.324324,109 C267.324324,103.850318 263.149682,99.6756757 258,99.6756757 Z M306.5,96 C308.432997,96 310,97.5670034 310,99.5 C310,101.432997 308.432997,103 306.5,103 C304.567003,103 303,101.432997 303,99.5 C303,97.5670034 304.567003,96 306.5,96 Z M152.5,70 C159.955844,70 166,76.0441559 166,83.5 C166,90.9558441 159.955844,97 152.5,97 C145.044156,97 139,90.9558441 139,83.5 C139,76.0441559 145.044156,70 152.5,70 Z M355,59 C366.045695,59 375,67.5065898 375,78 C375,88.4934102 366.045695,97 355,97 C343.954305,97 335,88.4934102 335,78 C335,67.5065898 343.954305,59 355,59 Z M152.3125,77.5 C148.895238,77.5 146.125,80.2702381 146.125,83.6875 C146.125,87.1047619 148.895238,89.875 152.3125,89.875 C155.729762,89.875 158.5,87.1047619 158.5,83.6875 C158.5,80.2702381 155.729762,77.5 152.3125,77.5 Z M354.778555,69.3636364 C349.423066,69.3636364 345.081585,73.4880435 345.081585,78.5757576 C345.081585,83.6634716 349.423066,87.7878788 354.778555,87.7878788 C360.134043,87.7878788 364.475524,83.6634716 364.475524,78.5757576 C364.475524,73.4880435 360.134043,69.3636364 354.778555,69.3636364 Z M233.5,41 C238.746705,41 243,45.7010101 243,51.5 C243,57.2989899 238.746705,62 233.5,62 C228.253295,62 224,57.2989899 224,51.5 C224,45.7010101 228.253295,41 233.5,41 Z M185,53 C186.104569,53 187,53.8954305 187,55 C187,56.1045695 186.104569,57 185,57 C183.895431,57 183,56.1045695 183,55 C183,53.8954305 183.895431,53 185,53 Z M100,42 C103.865993,42 107,45.1340068 107,49 C107,52.8659932 103.865993,56 100,56 C96.1340068,56 93,52.8659932 93,49 C93,45.1340068 96.1340068,42 100,42 Z M297,18 C300.313708,18 303,20.6862915 303,24 C303,27.3137085 300.313708,30 297,30 C293.686292,30 291,27.3137085 291,24 C291,20.6862915 293.686292,18 297,18 Z M152.5,3 C154.432997,3 156,4.56700338 156,6.5 C156,8.43299662 154.432997,10 152.5,10 C150.567003,10 149,8.43299662 149,6.5 C149,4.56700338 150.567003,3 152.5,3 Z M83,-2.72848411e-12 C84.1045695,-2.72848411e-12 85,0.8954305 85,2 C85,3.1045695 84.1045695,4 83,4 C81.8954305,4 81,3.1045695 81,2 C81,0.8954305 81.8954305,-2.72848411e-12 83,-2.72848411e-12 Z" id="crumbs" fill="url(#linearGradient-1)" opacity="0.436755952"></path>
                <path d="M0,1440.10066 L0,97 L375,97 L375,1474.78553 C356.861527,1496.26238 334.77362,1514.48986 309.594329,1528.36212 C295.353332,1536.20804 278.009217,1525.58032 278.476978,1509.29476 C278.831079,1496.96638 269.502187,1486.4218 257.175053,1485.34368 C255.497449,1485.19696 253.840798,1485.22814 252.217057,1485.43087 C241.263872,1486.79842 231.127028,1479.43581 229.007888,1468.57356 C225.742653,1451.83666 211.768288,1439.05484 194.555103,1437.54939 C186.198502,1436.81853 178.065646,1438.78863 171.081947,1443.08804 C158.473175,1450.85045 142.034018,1443.47244 139.412229,1428.87444 C137.564126,1418.5843 129.024487,1410.65935 118.466668,1409.73597 C107.605716,1408.78608 97.5901134,1415.50455 94.2416764,1425.73417 C89.6517107,1439.75672 72.488502,1444.83857 61.052372,1435.56118 C56.5786838,1431.93196 51.1575778,1429.70994 45.2728808,1429.19527 C37.4862783,1428.51426 29.9669823,1430.93551 24.0728024,1435.84856 C16.9442509,1441.79052 7.31073142,1444.38428 0,1440.10066 Z" id="Path" fill="url(#linearGradient-2)" transform="translate(187.500000, 814.000000) scale(-1, -1) translate(-187.500000, -814.000000) "></path>
            </g>
        </g>
    </g>
</svg>