<?xml version="1.0" encoding="UTF-8"?>
<svg width="1440px" height="1891px" viewBox="0 0 1440 1891" version="1.1" xmlns="http://www.w3.org/2000/svg" xmlns:xlink="http://www.w3.org/1999/xlink">
    <!-- Generator: Sketch 57.1 (83088) - https://sketch.com -->
    <title>bg 2 copy</title>
    <desc>Created with Sketch.</desc>
    <defs>
        <linearGradient x1="62.9726942%" y1="69.4605755%" x2="8.85851044%" y2="27.6288529%" id="linearGradient-1">
            <stop stop-color="#734CD2" offset="0%"></stop>
            <stop stop-color="#4658C7" offset="100%"></stop>
        </linearGradient>
    </defs>
    <g id="Page-1" stroke="none" stroke-width="1" fill="none" fill-rule="evenodd">
        <g id="Stop-Wasting-time_Landing_1" transform="translate(0.000000, -5551.000000)" fill="url(#linearGradient-1)" fill-rule="nonzero">
            <path d="M1440,5938.8894 L1440,7442 L0,7442 L0,5766.94216 C69.6517372,5684.44106 154.469299,5614.42203 251.157778,5561.13316 C305.843204,5530.99384 372.444608,5571.81915 370.648404,5634.37848 C369.288655,5681.73669 405.111604,5722.24263 452.447798,5726.38411 C458.889794,5726.94773 465.251337,5726.82795 471.4865,5726.04918 C513.546731,5720.79589 552.472214,5749.07859 560.609709,5790.80484 C573.148211,5855.09793 626.809773,5904.19798 692.908405,5909.98101 C724.997754,5912.78854 756.227921,5905.22062 783.045322,5888.70486 C831.463009,5858.88636 894.589373,5887.22824 904.657042,5943.30495 C911.753757,5982.8335 944.545971,6013.2764 985.087994,6016.82346 C1026.79405,6020.47235 1065.25396,5994.66404 1078.11196,5955.36798 C1095.73743,5901.50179 1161.64415,5881.98039 1205.55889,5917.61855 C1222.73785,5931.5598 1243.5549,5940.09547 1266.15214,5942.07252 C1296.05269,5944.68854 1324.92679,5935.38759 1347.56044,5916.51458 C1374.93408,5893.68915 1411.92679,5922.43433 1440,5938.8894 Z" id="bg-2-copy"></path>
        </g>
    </g>
</svg>