<?xml version="1.0" encoding="UTF-8"?>
<svg width="212px" height="50px" viewBox="0 0 212 50" version="1.1" xmlns="http://www.w3.org/2000/svg" xmlns:xlink="http://www.w3.org/1999/xlink">
    <defs>
        <linearGradient x1="50%" y1="0%" x2="50%" y2="100%" id="linearGradient-1">
            <stop stop-color="#FAD961" offset="0%"></stop>
            <stop stop-color="#FFC77C" offset="100%"></stop>
        </linearGradient>
    </defs>
    <g id="v2" stroke="none" stroke-width="1" fill="none" fill-rule="evenodd">
        <g id="centered" transform="translate(-614.000000, -5500.000000)">
            <g id="reviews" transform="translate(-130.000000, 5256.000000)">
                <g id="5-stars">
                    <g transform="translate(744.000000, 244.000000)">
                        <rect id="Rectangle" fill="#FFFFFF" fill-rule="evenodd" x="0" y="0" width="211.538462" height="50" rx="8"></rect>
                        <g id="icon---star-rating" transform="translate(8.653846, 5.769231)" fill="url(#linearGradient-1)" fill-rule="nonzero">
                            <path d="M18.3853491,28.4490767 L12.8790107,31.3439301 C11.991014,31.8107776 10.8926957,31.4693687 10.4258482,30.5813719 C10.2399471,30.227767 10.1757972,29.8227406 10.2433297,29.4289957 L11.2949468,23.2975979 C11.3960143,22.7083291 11.2006501,22.10706 10.7725213,21.6897375 L6.31779999,17.3474575 C5.59939553,16.6471862 5.58469568,15.4971223 6.28496695,14.7787178 C6.56381865,14.4926454 6.92919818,14.3064752 7.32454055,14.2490286 L13.480814,13.3544697 C14.0724735,13.2684966 14.5839435,12.8968919 14.8485417,12.3607574 L17.6017108,6.78222734 C18.0457092,5.88258837 19.1349425,5.51321868 20.0345815,5.95721706 C20.3928224,6.13401954 20.6827893,6.42398638 20.8595917,6.78222734 L23.6127609,12.3607574 C23.8773591,12.8968919 24.3888291,13.2684966 24.9804886,13.3544697 L31.136762,14.2490286 C32.1295726,14.3932924 32.8174556,15.3150733 32.6731918,16.3078839 C32.6157452,16.7032262 32.429575,17.0686058 32.1435026,17.3474575 L27.6887813,21.6897375 C27.2606524,22.10706 27.0652883,22.7083291 27.1663558,23.2975979 L28.2179728,29.4289957 C28.3875651,30.4177946 27.723467,31.3568563 26.734668,31.5264485 C26.3409231,31.5939811 25.9358968,31.5298312 25.5822918,31.3439301 L20.0759535,28.4490767 C19.5467571,28.1708617 18.9145455,28.1708617 18.3853491,28.4490767 Z"></path>
                        </g>
                        <g id="icon---star-rating" transform="translate(48.076923, 5.769231)" fill="url(#linearGradient-1)" fill-rule="nonzero">
                            <path d="M18.3853491,28.4490767 L12.8790107,31.3439301 C11.991014,31.8107776 10.8926957,31.4693687 10.4258482,30.5813719 C10.2399471,30.227767 10.1757972,29.8227406 10.2433297,29.4289957 L11.2949468,23.2975979 C11.3960143,22.7083291 11.2006501,22.10706 10.7725213,21.6897375 L6.31779999,17.3474575 C5.59939553,16.6471862 5.58469568,15.4971223 6.28496695,14.7787178 C6.56381865,14.4926454 6.92919818,14.3064752 7.32454055,14.2490286 L13.480814,13.3544697 C14.0724735,13.2684966 14.5839435,12.8968919 14.8485417,12.3607574 L17.6017108,6.78222734 C18.0457092,5.88258837 19.1349425,5.51321868 20.0345815,5.95721706 C20.3928224,6.13401954 20.6827893,6.42398638 20.8595917,6.78222734 L23.6127609,12.3607574 C23.8773591,12.8968919 24.3888291,13.2684966 24.9804886,13.3544697 L31.136762,14.2490286 C32.1295726,14.3932924 32.8174556,15.3150733 32.6731918,16.3078839 C32.6157452,16.7032262 32.429575,17.0686058 32.1435026,17.3474575 L27.6887813,21.6897375 C27.2606524,22.10706 27.0652883,22.7083291 27.1663558,23.2975979 L28.2179728,29.4289957 C28.3875651,30.4177946 27.723467,31.3568563 26.734668,31.5264485 C26.3409231,31.5939811 25.9358968,31.5298312 25.5822918,31.3439301 L20.0759535,28.4490767 C19.5467571,28.1708617 18.9145455,28.1708617 18.3853491,28.4490767 Z"></path>
                        </g>
                        <g id="icon---star-rating" transform="translate(86.538462, 5.769231)" fill="url(#linearGradient-1)" fill-rule="nonzero">
                            <path d="M18.3853491,28.4490767 L12.8790107,31.3439301 C11.991014,31.8107776 10.8926957,31.4693687 10.4258482,30.5813719 C10.2399471,30.227767 10.1757972,29.8227406 10.2433297,29.4289957 L11.2949468,23.2975979 C11.3960143,22.7083291 11.2006501,22.10706 10.7725213,21.6897375 L6.31779999,17.3474575 C5.59939553,16.6471862 5.58469568,15.4971223 6.28496695,14.7787178 C6.56381865,14.4926454 6.92919818,14.3064752 7.32454055,14.2490286 L13.480814,13.3544697 C14.0724735,13.2684966 14.5839435,12.8968919 14.8485417,12.3607574 L17.6017108,6.78222734 C18.0457092,5.88258837 19.1349425,5.51321868 20.0345815,5.95721706 C20.3928224,6.13401954 20.6827893,6.42398638 20.8595917,6.78222734 L23.6127609,12.3607574 C23.8773591,12.8968919 24.3888291,13.2684966 24.9804886,13.3544697 L31.136762,14.2490286 C32.1295726,14.3932924 32.8174556,15.3150733 32.6731918,16.3078839 C32.6157452,16.7032262 32.429575,17.0686058 32.1435026,17.3474575 L27.6887813,21.6897375 C27.2606524,22.10706 27.0652883,22.7083291 27.1663558,23.2975979 L28.2179728,29.4289957 C28.3875651,30.4177946 27.723467,31.3568563 26.734668,31.5264485 C26.3409231,31.5939811 25.9358968,31.5298312 25.5822918,31.3439301 L20.0759535,28.4490767 C19.5467571,28.1708617 18.9145455,28.1708617 18.3853491,28.4490767 Z"></path>
                        </g>
                        <g id="icon---star-rating" transform="translate(125.000000, 5.769231)" fill="url(#linearGradient-1)" fill-rule="nonzero">
                            <path d="M18.3853491,28.4490767 L12.8790107,31.3439301 C11.991014,31.8107776 10.8926957,31.4693687 10.4258482,30.5813719 C10.2399471,30.227767 10.1757972,29.8227406 10.2433297,29.4289957 L11.2949468,23.2975979 C11.3960143,22.7083291 11.2006501,22.10706 10.7725213,21.6897375 L6.31779999,17.3474575 C5.59939553,16.6471862 5.58469568,15.4971223 6.28496695,14.7787178 C6.56381865,14.4926454 6.92919818,14.3064752 7.32454055,14.2490286 L13.480814,13.3544697 C14.0724735,13.2684966 14.5839435,12.8968919 14.8485417,12.3607574 L17.6017108,6.78222734 C18.0457092,5.88258837 19.1349425,5.51321868 20.0345815,5.95721706 C20.3928224,6.13401954 20.6827893,6.42398638 20.8595917,6.78222734 L23.6127609,12.3607574 C23.8773591,12.8968919 24.3888291,13.2684966 24.9804886,13.3544697 L31.136762,14.2490286 C32.1295726,14.3932924 32.8174556,15.3150733 32.6731918,16.3078839 C32.6157452,16.7032262 32.429575,17.0686058 32.1435026,17.3474575 L27.6887813,21.6897375 C27.2606524,22.10706 27.0652883,22.7083291 27.1663558,23.2975979 L28.2179728,29.4289957 C28.3875651,30.4177946 27.723467,31.3568563 26.734668,31.5264485 C26.3409231,31.5939811 25.9358968,31.5298312 25.5822918,31.3439301 L20.0759535,28.4490767 C19.5467571,28.1708617 18.9145455,28.1708617 18.3853491,28.4490767 Z"></path>
                        </g>
                        <g id="icon---star-rating" transform="translate(163.461538, 5.769231)" fill="url(#linearGradient-1)" fill-rule="nonzero">
                            <path d="M18.3853491,28.4490767 L12.8790107,31.3439301 C11.991014,31.8107776 10.8926957,31.4693687 10.4258482,30.5813719 C10.2399471,30.227767 10.1757972,29.8227406 10.2433297,29.4289957 L11.2949468,23.2975979 C11.3960143,22.7083291 11.2006501,22.10706 10.7725213,21.6897375 L6.31779999,17.3474575 C5.59939553,16.6471862 5.58469568,15.4971223 6.28496695,14.7787178 C6.56381865,14.4926454 6.92919818,14.3064752 7.32454055,14.2490286 L13.480814,13.3544697 C14.0724735,13.2684966 14.5839435,12.8968919 14.8485417,12.3607574 L17.6017108,6.78222734 C18.0457092,5.88258837 19.1349425,5.51321868 20.0345815,5.95721706 C20.3928224,6.13401954 20.6827893,6.42398638 20.8595917,6.78222734 L23.6127609,12.3607574 C23.8773591,12.8968919 24.3888291,13.2684966 24.9804886,13.3544697 L31.136762,14.2490286 C32.1295726,14.3932924 32.8174556,15.3150733 32.6731918,16.3078839 C32.6157452,16.7032262 32.429575,17.0686058 32.1435026,17.3474575 L27.6887813,21.6897375 C27.2606524,22.10706 27.0652883,22.7083291 27.1663558,23.2975979 L28.2179728,29.4289957 C28.3875651,30.4177946 27.723467,31.3568563 26.734668,31.5264485 C26.3409231,31.5939811 25.9358968,31.5298312 25.5822918,31.3439301 L20.0759535,28.4490767 C19.5467571,28.1708617 18.9145455,28.1708617 18.3853491,28.4490767 Z"></path>
                        </g>
                    </g>
                </g>
            </g>
        </g>
    </g>
</svg>