<?xml version="1.0" encoding="UTF-8"?>
<svg width="573px" height="246px" viewBox="0 0 573 246" version="1.1" xmlns="http://www.w3.org/2000/svg" xmlns:xlink="http://www.w3.org/1999/xlink">
    <defs>
        <filter x="-14.2%" y="-39.0%" width="128.4%" height="178.1%" filterUnits="objectBoundingBox" id="filter-1">
            <feOffset dx="0" dy="8" in="SourceAlpha" result="shadowOffsetOuter1"></feOffset>
            <feGaussianBlur stdDeviation="15" in="shadowOffsetOuter1" result="shadowBlurOuter1"></feGaussianBlur>
            <feColorMatrix values="0 0 0 0 0   0 0 0 0 0.0396046997   0 0 0 0 0.472571332  0 0 0 0.0534036276 0" type="matrix" in="shadowBlurOuter1" result="shadowMatrixOuter1"></feColorMatrix>
            <feMerge>
                <feMergeNode in="shadowMatrixOuter1"></feMergeNode>
                <feMergeNode in="SourceGraphic"></feMergeNode>
            </feMerge>
        </filter>
    </defs>
    <g id="v2" stroke="none" stroke-width="1" fill="none" fill-rule="evenodd">
        <g id="centered" transform="translate(-157.000000, -4880.000000)">
            <g id="features" transform="translate(-370.000000, 4274.000000)">
                <g id="upsells">
                    <g transform="translate(556.000000, 627.000000)">
                        <g id="Group" filter="url(#filter-1)" transform="translate(0.000000, 0.000000)">
                            <path d="M18,14 L160,14 C162.209139,14 164,15.790861 164,18 L164,183 C164,185.209139 162.209139,187 160,187 L18,187 C15.790861,187 14,185.209139 14,183 L14,18 C14,15.790861 15.790861,14 18,14 Z" id="Rectangle" fill="#FFFFFF" fill-rule="nonzero"></path>
                            <path d="M99.5299295,47.6964078 C100.294115,47.3020361 101.190797,47.2545644 101.992351,47.5660433 L128.065,57.6977078 C129.38212,58.2095319 130.163505,59.5711024 129.94093,60.9665337 L127.8402,74.1370907 C127.607959,75.5931253 126.352088,76.6645577 124.877648,76.6645577 L114.859444,76.6645577 L114.859444,124.173674 C114.859444,124.7982 114.359203,125.305872 113.740917,125.305872 L64.1570944,125.305872 C63.5407436,125.305872 63.0385677,124.7982 63.0385677,124.173674 L63.0385677,76.6635757 L52.4613708,76.6635757 C50.9868127,76.6635757 49.730877,75.5919755 49.4987698,74.1357997 L47.3994699,60.9653798 C47.1770567,59.5700215 47.9584614,58.2086091 49.2754991,57.6968436 L75.3474961,47.5659665 C76.1489751,47.2545334 77.0455596,47.3019786 77.8096937,47.6962604 L87.2950895,52.5905835 C88.1581776,53.0359241 89.1834563,53.0358906 90.0465153,52.5904935 L99.5299295,47.6964078 Z" id="Path" fill="#C65BB7" opacity="0.261044457"></path>
                            <path d="M28.6923077,152.4 L111.230769,152.4 C112.335339,152.4 113.230769,153.295431 113.230769,154.4 L113.230769,155.244 C113.230769,156.348569 112.335339,157.244 111.230769,157.244 L28.6923077,157.244 C27.5877382,157.244 26.6923077,156.348569 26.6923077,155.244 L26.6923077,154.4 C26.6923077,153.295431 27.5877382,152.4 28.6923077,152.4 Z M28.6923077,163.702667 L87.9319527,163.702667 C89.0365222,163.702667 89.9319527,164.598097 89.9319527,165.702667 L89.9319527,166.546667 C89.9319527,167.651236 89.0365222,168.546667 87.9319527,168.546667 L28.6923077,168.546667 C27.5877382,168.546667 26.6923077,167.651236 26.6923077,166.546667 L26.6923077,165.702667 C26.6923077,164.598097 27.5877382,163.702667 28.6923077,163.702667 Z" id="Shape" fill="#212B36" fill-rule="nonzero" opacity="0.0562918527"></path>
                            <ellipse id="Oval" fill="#212B36" fill-rule="nonzero" opacity="0.0562918527" cx="142.076923" cy="160.464064" rx="8.07692308" ry="8.06406429"></ellipse>
                            <path d="M193,14 L335,14 C337.209139,14 339,15.790861 339,18 L339,183 C339,185.209139 337.209139,187 335,187 L193,187 C190.790861,187 189,185.209139 189,183 L189,18 C189,15.790861 190.790861,14 193,14 Z" id="Rectangle" fill="#FFFFFF" fill-rule="nonzero"></path>
                            <path d="M234.082418,114.34 C229.576138,114.34 225.923077,110.725446 225.923077,106.266667 L302.076923,106.266667 C302.076923,110.725446 298.423862,114.34 293.917582,114.34 L234.082418,114.34 Z M288.695604,81.567623 C296.650917,83.990286 302.072363,91.1934712 302.076923,99.3466667 L225.923077,99.3466667 L225.923077,72.7313319 C225.923077,68.3215589 229.576138,64.7466667 234.082418,64.7466667 C235.116361,64.7396899 236.064959,65.3069742 236.53022,66.2105749 C238.352473,69.8036451 240.936264,70.0697984 244.961538,70.0697984 L245.913462,70.0697984 C250.129121,70.0697984 251.217033,70.0697984 256.792582,65.4121148 C257.754067,64.593935 259.167115,64.5386236 260.192308,65.2790382 L270.908242,73.0773313 C270.659471,73.1935593 270.430203,73.3461226 270.228297,73.5297919 L264.788736,78.8528589 C263.864618,79.9088497 263.92675,81.4829708 264.931353,82.4660589 C265.935955,83.4491469 267.544526,83.5099484 268.623626,82.6056211 L274.063187,77.2825541 C274.559114,76.7933943 274.841851,76.1350824 274.851923,75.446096 C276.86456,76.5639401 279.040385,77.6551688 281.325,78.6931669 L281.107418,78.8528589 L275.667857,84.1759259 C274.743739,85.2319166 274.805871,86.8060377 275.810474,87.7891258 C276.815076,88.7722139 278.423646,88.8330154 279.502747,87.9286881 L284.942308,82.6056211 C285.498534,82.0476892 285.776874,81.2791918 285.703846,80.5030097 C286.710165,80.8756243 287.689286,81.248239 288.695604,81.567623 Z" id="Shape" fill="#4252A6" opacity="0.264439174"></path>
                            <path d="M203.692308,152.4 L286.230769,152.4 C287.335339,152.4 288.230769,153.295431 288.230769,154.4 L288.230769,155.244 C288.230769,156.348569 287.335339,157.244 286.230769,157.244 L203.692308,157.244 C202.587738,157.244 201.692308,156.348569 201.692308,155.244 L201.692308,154.4 C201.692308,153.295431 202.587738,152.4 203.692308,152.4 Z M203.692308,163.702667 L262.931953,163.702667 C264.036522,163.702667 264.931953,164.598097 264.931953,165.702667 L264.931953,166.546667 C264.931953,167.651236 264.036522,168.546667 262.931953,168.546667 L203.692308,168.546667 C202.587738,168.546667 201.692308,167.651236 201.692308,166.546667 L201.692308,165.702667 C201.692308,164.598097 202.587738,163.702667 203.692308,163.702667 Z" id="Shape" fill="#212B36" fill-rule="nonzero" opacity="0.0562918527"></path>
                            <ellipse id="Oval" fill="#212B36" fill-rule="nonzero" opacity="0.0562918527" cx="317.076923" cy="160.464064" rx="8.07692308" ry="8.06406429"></ellipse>
                            <path d="M368,14 L510,14 C512.209139,14 514,15.790861 514,18 L514,183 C514,185.209139 512.209139,187 510,187 L368,187 C365.790861,187 364,185.209139 364,183 L364,18 C364,15.790861 365.790861,14 368,14 Z" id="Rectangle" fill="#FFFFFF" fill-rule="nonzero"></path>
                            <g id="Group-6" opacity="0.398111979" transform="translate(418.230769, 52.060000)" fill-rule="nonzero">
                                <path d="M4,0 L37.5384615,0 C39.7476005,0 41.5384615,1.790861 41.5384615,4 L41.5384615,66.3533333 C41.5384615,68.5624723 39.7476005,70.3533333 37.5384615,70.3533333 L4,70.3533333 C1.790861,70.3533333 0,68.5624723 0,66.3533333 L0,4 C0,1.790861 1.790861,0 4,0 Z" id="Rectangle" fill="#212B36" opacity="0.60093471"></path>
                                <path d="M4.30769231,5.76666667 L37.2307692,5.76666667 C38.3353387,5.76666667 39.2307692,6.66209717 39.2307692,7.76666667 L39.2307692,58.9693939 C39.2307692,60.0739634 38.3353387,60.9693939 37.2307692,60.9693939 L4.30769231,60.9693939 C3.20312281,60.9693939 2.30769231,60.0739634 2.30769231,58.9693939 L2.30769231,7.76666667 C2.30769231,6.66209717 3.20312281,5.76666667 4.30769231,5.76666667 Z M21.4792899,68.0466667 C20.3028254,68.0466667 19.3491124,67.0960858 19.3491124,65.9234848 C19.3491124,64.7508839 20.3028254,63.800303 21.4792899,63.800303 C22.6557545,63.800303 23.6094675,64.7508839 23.6094675,65.9234848 C23.6094675,67.0960858 22.6557545,68.0466667 21.4792899,68.0466667 Z" id="Shape" fill="#FFFFFF" opacity="0.197756"></path>
                            </g>
                            <path d="M378.692308,152.4 L461.230769,152.4 C462.335339,152.4 463.230769,153.295431 463.230769,154.4 L463.230769,155.244 C463.230769,156.348569 462.335339,157.244 461.230769,157.244 L378.692308,157.244 C377.587738,157.244 376.692308,156.348569 376.692308,155.244 L376.692308,154.4 C376.692308,153.295431 377.587738,152.4 378.692308,152.4 Z M378.692308,163.702667 L437.931953,163.702667 C439.036522,163.702667 439.931953,164.598097 439.931953,165.702667 L439.931953,166.546667 C439.931953,167.651236 439.036522,168.546667 437.931953,168.546667 L378.692308,168.546667 C377.587738,168.546667 376.692308,167.651236 376.692308,166.546667 L376.692308,165.702667 C376.692308,164.598097 377.587738,163.702667 378.692308,163.702667 Z" id="Shape" fill="#212B36" fill-rule="nonzero" opacity="0.0562918527"></path>
                            <ellipse id="Oval" fill="#212B36" fill-rule="nonzero" opacity="0.0562918527" cx="492.076923" cy="160.464064" rx="8.07692308" ry="8.06406429"></ellipse>
                            <circle id="Oval" fill="#10C1D6" fill-rule="nonzero" cx="17" cy="17" r="17"></circle>
                            <g id="icon---tick" transform="translate(5.000000, 5.000000)" fill="#FFFFFF" fill-rule="nonzero">
                                <path d="M8.4,16.3029437 L4.44852814,12.3514719 C3.97989899,11.8828427 3.22010101,11.8828427 2.75147186,12.3514719 C2.28284271,12.820101 2.28284271,13.579899 2.75147186,14.0485281 L7.55147186,18.8485281 C8.02010101,19.3171573 8.77989899,19.3171573 9.24852814,18.8485281 L21.2485281,6.84852814 C21.7171573,6.37989899 21.7171573,5.62010101 21.2485281,5.15147186 C20.779899,4.68284271 20.020101,4.68284271 19.5514719,5.15147186 L8.4,16.3029437 Z"></path>
                            </g>
                            <circle id="Oval" fill="#10C1D6" fill-rule="nonzero" cx="191" cy="17" r="17"></circle>
                            <g id="icon---tick" transform="translate(179.000000, 5.000000)" fill="#FFFFFF" fill-rule="nonzero">
                                <path d="M8.4,16.3029437 L4.44852814,12.3514719 C3.97989899,11.8828427 3.22010101,11.8828427 2.75147186,12.3514719 C2.28284271,12.820101 2.28284271,13.579899 2.75147186,14.0485281 L7.55147186,18.8485281 C8.02010101,19.3171573 8.77989899,19.3171573 9.24852814,18.8485281 L21.2485281,6.84852814 C21.7171573,6.37989899 21.7171573,5.62010101 21.2485281,5.15147186 C20.779899,4.68284271 20.020101,4.68284271 19.5514719,5.15147186 L8.4,16.3029437 Z"></path>
                            </g>
                            <circle id="Oval" fill="#10C1D6" fill-rule="nonzero" cx="367" cy="17" r="17"></circle>
                            <g id="icon---tick" transform="translate(355.000000, 5.000000)" fill="#FFFFFF" fill-rule="nonzero">
                                <path d="M8.4,16.3029437 L4.44852814,12.3514719 C3.97989899,11.8828427 3.22010101,11.8828427 2.75147186,12.3514719 C2.28284271,12.820101 2.28284271,13.579899 2.75147186,14.0485281 L7.55147186,18.8485281 C8.02010101,19.3171573 8.77989899,19.3171573 9.24852814,18.8485281 L21.2485281,6.84852814 C21.7171573,6.37989899 21.7171573,5.62010101 21.2485281,5.15147186 C20.779899,4.68284271 20.020101,4.68284271 19.5514719,5.15147186 L8.4,16.3029437 Z"></path>
                            </g>
                        </g>
                    </g>
                </g>
            </g>
        </g>
    </g>
</svg>