<?xml version="1.0" encoding="UTF-8"?>
<svg width="23px" height="19px" viewBox="0 0 23 19" version="1.1" xmlns="http://www.w3.org/2000/svg" xmlns:xlink="http://www.w3.org/1999/xlink">
    <g id="v2" stroke="none" stroke-width="1" fill="none" fill-rule="evenodd">
        <g id="centered" transform="translate(-370.000000, -5157.000000)" fill="#FFFFFF" fill-rule="nonzero">
            <g id="features" transform="translate(-370.000000, 4274.000000)">
                <g id="upsells">
                    <g transform="translate(556.000000, 627.000000)">
                        <g id="Group-3" transform="translate(153.000000, 237.000000)">
                            <g id="icon---cart" transform="translate(28.000000, 13.000000)">
                                <path d="M5.90709973,8.25043296 L4.92877224,8.25043296 C4.3467899,8.25043296 3.875,7.79167685 3.875,7.22577252 C3.875,6.65986818 4.3467899,6.20111208 4.92877224,6.20111208 L6.33380189,6.20111208 C6.33900316,6.20111208 6.34419563,6.20114872 6.34937904,6.20122175 L7.05124019,6.20122175 C8.03113942,6.19104877 9.58049596,6.20657011 9.72297947,7.83680209 L10.0364635,9.15918619 L23.7300179,9.15918619 C24.1834927,9.14929492 24.624811,9.30291062 24.969705,9.590701 C25.4886958,10.0347182 25.6971149,10.7323891 25.5040528,11.3793995 L23.2597918,18.8682695 C23.0396339,19.6057365 22.350471,20.1149017 21.564128,20.1210544 L11.09091,20.1210544 C10.2084798,20.1167325 9.46119427,19.4842557 9.33112437,18.6316323 C8.34237845,13.0970832 7.78562765,10.0920881 7.66087197,9.61664688 C7.47373844,8.90348504 6.87238839,8.25154755 5.90709973,8.25043296 Z M10.2217041,11.2471611 L11.4542665,17.7268432 C11.476005,17.9025689 11.6293097,18.034358 11.8104984,18.0330887 L20.8712526,18.0330887 C21.0295779,18.0330887 21.1689041,17.9310007 21.2132352,17.7825225 L22.7236585,11.6925957 C22.7550539,11.5874429 22.7339374,11.4739868 22.6666614,11.3863594 C22.5993854,11.298732 22.4938025,11.2471611 22.3816759,11.2471611 L10.2217041,11.2471611 Z M12.3947187,24.645 C11.4110115,24.645 10.6135592,23.8659848 10.6135592,22.9050209 C10.6135592,21.944057 11.4110115,21.1650418 12.3947187,21.1650418 C13.378426,21.1650418 14.1758783,21.944057 14.1758783,22.9050209 C14.1758783,23.3664921 13.9882209,23.8090626 13.6541887,24.1353719 C13.3201565,24.4616813 12.8671116,24.645 12.3947187,24.645 Z M18.5168185,22.9050209 C18.5168185,21.944057 19.3142708,21.1650418 20.297978,21.1650418 C21.2816852,21.1650418 22.0791375,21.944057 22.0791375,22.9050209 C22.0791375,23.3664921 21.8914802,23.8090626 21.557448,24.1353719 C21.2234158,24.4616813 20.7703709,24.645 20.297978,24.645 C19.3142708,24.645 18.5168185,23.8659848 18.5168185,22.9050209 Z"></path>
                            </g>
                        </g>
                    </g>
                </g>
            </g>
        </g>
    </g>
</svg>