<?xml version="1.0" encoding="UTF-8"?>
<svg width="30px" height="30px" viewBox="0 0 30 30" version="1.1" xmlns="http://www.w3.org/2000/svg" xmlns:xlink="http://www.w3.org/1999/xlink">
    <defs>
        <linearGradient x1="119.920312%" y1="116.703125%" x2="-17.2359375%" y2="-11.8375%" id="linearGradient-1">
            <stop stop-color="#009EFD" offset="0%"></stop>
            <stop stop-color="#2AF598" offset="100%"></stop>
        </linearGradient>
    </defs>
    <g id="v2" stroke="none" stroke-width="1" fill="none" fill-rule="evenodd">
        <g id="centered" transform="translate(-762.000000, -7978.000000)">
            <g id="cta" transform="translate(-90.000000, 7290.000000)">
                <g id="app-icon---otto">
                    <g transform="translate(852.000000, 688.000000)">
                        <path d="M4.71428571,0 L25.2857143,0 C27.8893424,0 30,2.11065761 30,4.71428571 L30,25.2857143 C30,27.8893424 27.8893424,30 25.2857143,30 L4.71428571,30 C2.11065761,30 0,27.8893424 0,25.2857143 L0,4.71428571 C0,2.11065761 2.11065761,0 4.71428571,0 Z" id="Rectangle" fill="url(#linearGradient-1)"></path>
                        <path d="M15,4.02 C19.7476405,4.02 23.5963636,7.86732407 23.5963636,12.6132388 C23.5963636,13.4318795 23.4818484,14.2237835 23.2679574,14.9738166 C24.2494284,15.7383715 24.8784178,16.8757377 25,18.1225854 C25.1703699,18.3142066 25.2900202,18.5455531 25.348,18.7954512 L26.2,18.7954512 C26.6418278,18.7954512 27,19.1540849 27,19.596482 L27,20.798028 C27,21.0192266 26.8209139,21.1985434 26.6,21.1985434 C26.3790861,21.1985434 26.2,21.0192266 26.2,20.798028 L26.2,19.596482 L25.348,19.596482 C25.2173247,20.0982853 24.8521517,20.5057167 24.368,20.6898889 L24.2,20.7459611 L24.2,21.5990588 L25.4,21.5990588 C25.6209139,21.5990588 25.8,21.7783756 25.8,21.9995741 C25.8,22.2207727 25.6209139,22.4000895 25.4,22.4000895 L24.2,22.4000895 C23.7581722,22.4000895 23.4,22.0414558 23.4,21.5990588 L23.4,20.7459611 C22.8705509,20.6085682 22.4478749,20.2098997 22.2792996,19.6889151 C22.1107242,19.1679304 22.2196086,18.5968211 22.568,18.1746524 C22.5091136,17.8629496 22.3813765,17.5699282 22.1957982,17.3162948 C21.2738772,18.7229693 19.9503163,19.8429235 18.3880077,20.5133244 C18.5248078,20.7120634 18.6006733,20.9504052 18.6,21.1985434 L18.6,22.4000895 L19.1,22.4000895 C19.4566699,22.4006054 19.769916,22.6374763 19.868,22.9808368 L20.44,24.9834136 C20.5091847,25.2256 20.4605632,25.4862655 20.3087386,25.6871213 C20.1569141,25.887977 19.9195734,26.0056239 19.668,26.0047379 L15.8,26.0047379 C15.5790861,26.0047379 15.4,25.8254109 15.4,25.6042124 L15.400017,21.1973387 L15.400017,21.1973387 C15.2674392,21.2034092 15.1340781,21.2064776 15,21.2064776 L14.7994289,21.2041846 L14.7994289,21.2041846 L14.599983,21.1973387 C14.5999889,21.1977403 14.5999945,21.1981418 14.6,21.1985434 L14.6,25.6042124 C14.6,25.8254109 14.4209139,26.0047379 14.2,26.0047379 L10.332,26.0047379 C10.0804266,26.0056239 9.84308595,25.887977 9.69126136,25.6871213 C9.53943677,25.4862655 9.49081529,25.2256 9.56,24.9834136 L10.132,22.9808368 C10.230084,22.6374763 10.5433301,22.4006054 10.9,22.4000895 L11.4,22.4000895 L11.4,21.1985434 C11.4034653,20.9509896 11.4829694,20.7142723 11.6227332,20.5179247 C10.0594641,19.849641 8.73452916,18.7315073 7.81077873,17.3263147 C7.62168604,17.5809184 7.49160333,17.8762022 7.432,18.190673 C7.84087538,18.6842484 7.91641139,19.3744026 7.624,19.9449303 C7.41484315,20.348005 7.04120266,20.6402877 6.6,20.7459611 L6.6,21.5990588 C6.6,22.0414558 6.2418278,22.4000895 5.8,22.4000895 L4.6,22.4000895 C4.3790861,22.4000895 4.2,22.2207727 4.2,21.9995741 C4.2,21.7783756 4.3790861,21.5990588 4.6,21.5990588 L5.8,21.5990588 L5.8,20.7459611 C5.73728498,20.7288072 5.67580942,20.7073968 5.616,20.6818786 C5.13718993,20.4990341 4.77744109,20.093982 4.652,19.596482 L3.8,19.596482 L3.8,20.798028 C3.8,21.0192266 3.6209139,21.1985434 3.4,21.1985434 C3.1790861,21.1985434 3,21.0192266 3,20.798028 L3,19.596482 C3,19.1540849 3.3581722,18.7954512 3.8,18.7954512 L4.652,18.7954512 C4.71107664,18.5471512 4.83063398,18.3173604 5,18.1265906 C5.12104597,16.8792313 5.75077301,15.7416492 6.73326366,14.978094 C6.51858749,14.2267945 6.40363636,13.4334359 6.40363636,12.6132388 C6.40363636,7.86732407 10.2523595,4.02 15,4.02 Z M17.0872088,11.5314504 L12.183863,16.4547696 C12.0710279,16.5680644 12.0710279,16.7517515 12.183863,16.8650462 L12.183863,16.8650462 L14.3290768,19.0189984 C14.4419119,19.1322932 14.6248538,19.1322932 14.7376889,19.0189984 L14.7376889,19.0189984 L17.0872088,16.6599079 C18.497648,15.2437235 18.497648,12.9476348 17.0872088,11.5314504 L17.0872088,11.5314504 Z M17.9761063,6.46274809 L14.3127704,6.46274809 C14.2355741,6.46274809 14.1615394,6.49330251 14.1069534,6.54768971 C13.9932837,6.66094521 13.9932837,6.84456865 14.1069534,6.95782415 L14.1069534,6.95782415 L14.6122242,7.46125417 L11.7430865,10.3199389 C10.8337294,11.2259828 10.8337294,12.6949704 11.7430865,13.6010143 L11.7430865,13.6010143 L12.6692633,14.5238168 L17.1849375,10.0245944 L17.7702892,10.6078134 C17.8248753,10.6622006 17.8989099,10.6927551 17.9761063,10.6927551 C18.1368594,10.6927551 18.2671756,10.5629137 18.2671756,10.4027462 L18.2671756,10.4027462 L18.2671756,6.75275693 C18.2671756,6.59258947 18.1368594,6.46274809 17.9761063,6.46274809 L17.9761063,6.46274809 Z" id="otto" fill="#FFFFFF" fill-rule="nonzero"></path>
                    </g>
                </g>
            </g>
        </g>
    </g>
</svg>