<?xml version="1.0" encoding="UTF-8"?>
<svg width="30px" height="30px" viewBox="0 0 30 30" version="1.1" xmlns="http://www.w3.org/2000/svg" xmlns:xlink="http://www.w3.org/1999/xlink">
    <defs>
        <linearGradient x1="115.40625%" y1="116.682812%" x2="-12.4390625%" y2="-21.2625%" id="linearGradient-1">
            <stop stop-color="#21D4FD" offset="0%"></stop>
            <stop stop-color="#B721FF" offset="100%"></stop>
        </linearGradient>
    </defs>
    <g id="v2" stroke="none" stroke-width="1" fill="none" fill-rule="evenodd">
        <g id="centered" transform="translate(-762.000000, -8030.000000)">
            <g id="footer---desktop" transform="translate(0.000000, 7362.000000)">
                <g id="app-icon---gateway" transform="translate(762.000000, 668.000000)">
                    <path d="M4.71428571,0 L25.2857143,0 C27.8893424,0 30,2.11065761 30,4.71428571 L30,25.2857143 C30,27.8893424 27.8893424,30 25.2857143,30 L4.71428571,30 C2.11065761,30 0,27.8893424 0,25.2857143 L0,4.71428571 C0,2.11065761 2.11065761,0 4.71428571,0 Z" id="Rectangle" fill="url(#linearGradient-1)"></path>
                    <path d="M5.32734354,23.3328037 C5.58981593,21.4517516 6.4647239,19.7894264 7.73334045,18.5208099 L11.5391901,22.3266595 C10.2705736,23.5952761 8.60824842,24.4701841 6.72719629,24.7326565 C5.89603372,24.8638927 5.19610735,24.1639663 5.32734354,23.3328037 Z M24.8377912,6.49082535 C24.6190642,11.39031 22.6942667,15.7648498 19.544598,19.0020093 C20.200779,21.3642608 20.0695428,24.7764019 16.7011471,26.22 C16.3949293,25.126365 15.8262391,23.8140031 14.9513312,22.5016411 L14.6888588,22.6328773 C14.2514048,22.8953497 13.6827146,22.8078589 13.289006,22.4141503 L7.64584965,16.770994 C7.29588647,16.4210308 7.16465027,15.8523406 7.42712266,15.3711412 L7.55835886,15.1086688 C6.24599691,14.2337609 4.93363496,13.6650707 3.84,13.3588529 C5.15236195,10.0342026 8.69573921,9.85922103 11.0579907,10.515402 C14.2951502,7.36573332 18.66969,5.44093579 23.5691746,5.2222088 C24.269101,5.1784634 24.8815366,5.79089898 24.8377912,6.49082535 Z M18.5022233,12.6283333 L14.8120221,16.3071331 C14.7271037,16.3917891 14.7271037,16.5290437 14.8120221,16.6136997 L16.4264851,18.2231746 C16.5114035,18.3078307 16.6490835,18.3078307 16.7340019,18.2231746 L18.5022233,16.4604164 C19.5637034,15.4022159 19.5637034,13.6865339 18.5022233,12.6283333 Z M19.1375399,8.83666667 L16.3796573,8.83666667 C16.3215412,8.83666667 16.2658055,8.85966156 16.2247112,8.90059274 C16.1391369,8.98582752 16.1391369,9.12402038 16.2247112,9.20925515 L16.6050962,9.58813074 L14.4451126,11.7395436 C13.760518,12.4214218 13.760518,13.5269647 14.4451126,14.2088429 L15.1423697,14.9033333 L18.5419214,11.5172708 L18.9825939,11.9561947 C19.0236881,11.9971259 19.0794239,12.0201208 19.1375399,12.0201208 C19.2585603,12.0201208 19.3566667,11.9224037 19.3566667,11.8018635 L19.3566667,9.05492395 C19.3566667,8.93438378 19.2585603,8.83666667 19.1375399,8.83666667 Z" id="gateway" fill="#FFFFFF" fill-rule="nonzero"></path>
                </g>
            </g>
        </g>
    </g>
</svg>