<?xml version="1.0" encoding="UTF-8"?>
<svg width="1201px" height="1201px" viewBox="0 0 1201 1201" version="1.1" xmlns="http://www.w3.org/2000/svg" xmlns:xlink="http://www.w3.org/1999/xlink">
    <g id="v2" stroke="none" stroke-width="1" fill="none" fill-rule="evenodd" opacity="0.0784040179">
        <g id="centered" transform="translate(-141.000000, -7362.000000)">
            <g id="footer---desktop" transform="translate(0.000000, 7362.000000)">
                <g id="skup-symbol" transform="translate(141.000000, 0.000000)">
                    <path d="M721.330563,50.0496579 L1150.95034,479.669437 C1217.68322,546.402314 1217.68322,654.597686 1150.95034,721.330563 L721.330563,1150.95034 C654.597686,1217.68322 546.402314,1217.68322 479.669437,1150.95034 L50.0496579,721.330563 C-16.6832193,654.597686 -16.6832193,546.402314 50.0496579,479.669437 L479.669437,50.0496579 C546.402314,-16.6832193 654.597686,-16.6832193 721.330563,50.0496579 Z M716.110485,540.308417 L424.944116,831.474786 C418.243835,838.175067 418.243835,849.038369 424.944116,855.73865 L424.944116,855.73865 L552.329402,983.123937 C559.029684,989.824218 569.892986,989.824218 576.593267,983.123937 L576.593267,983.123937 L716.110485,843.606718 C799.863999,759.853205 799.863999,624.06193 716.110485,540.308417 L716.110485,540.308417 Z M767.908408,240.2 L551.972272,240.2 C547.421915,240.2 543.057928,242.007622 539.84034,245.225211 C533.140059,251.925492 533.140059,262.788794 539.84034,269.489075 L539.84034,269.489075 L569.623642,299.272377 L400.501686,468.394333 C346.899438,521.996581 346.899438,608.902997 400.501686,662.505246 L400.501686,662.505246 L455.095381,717.09894 L721.272793,450.921528 L755.776476,485.425211 C758.994064,488.642799 763.35805,490.450422 767.908408,490.450422 C777.384036,490.450422 785.06555,482.768907 785.06555,473.293279 L785.06555,473.293279 L785.06555,257.357143 C785.06555,247.881515 777.384036,240.2 767.908408,240.2 L767.908408,240.2 Z" id="diamond" fill="#4252A6"></path>
                    <path d="M424.944116,831.474786 L716.110485,540.308417 C799.863999,624.06193 799.863999,759.853205 716.110485,843.606718 L576.593267,983.123937 C569.892986,989.824218 559.029684,989.824218 552.329402,983.123937 L424.944116,855.73865 C418.243835,849.038369 418.243835,838.175067 424.944116,831.474786 Z M721.272793,450.921528 L455.095381,717.09894 L400.501686,662.505246 C346.899438,608.902997 346.899438,521.996581 400.501686,468.394333 L569.623642,299.272377 L539.84034,269.489075 C533.140059,262.788794 533.140059,251.925492 539.84034,245.225211 C543.057928,242.007622 547.421915,240.2 551.972272,240.2 L767.908408,240.2 C777.384036,240.2 785.06555,247.881515 785.06555,257.357143 L785.06555,473.293279 C785.06555,482.768907 777.384036,490.450422 767.908408,490.450422 C763.35805,490.450422 758.994064,488.642799 755.776476,485.425211 L721.272793,450.921528 Z" id="S" fill-rule="nonzero"></path>
                </g>
            </g>
        </g>
    </g>
</svg>