<?xml version="1.0" encoding="UTF-8"?>
<svg width="30px" height="30px" viewBox="0 0 30 30" version="1.1" xmlns="http://www.w3.org/2000/svg" xmlns:xlink="http://www.w3.org/1999/xlink">
    <defs>
        <linearGradient x1="100%" y1="100%" x2="0%" y2="6.123234e-15%" id="linearGradient-1">
            <stop stop-color="#4757CF" offset="0%"></stop>
            <stop stop-color="#CE5DB9" offset="49.1261719%"></stop>
            <stop stop-color="#FDC873" offset="100%"></stop>
        </linearGradient>
    </defs>
    <g id="v2" stroke="none" stroke-width="1" fill="none" fill-rule="evenodd">
        <g id="centered" transform="translate(-762.000000, -8186.000000)">
            <g id="footer---desktop" transform="translate(0.000000, 7362.000000)">
                <g id="app-icon---providence" transform="translate(762.000000, 824.000000)">
                    <path d="M4.71428571,0 L25.2857143,0 C27.8893424,0 30,2.11065761 30,4.71428571 L30,25.2857143 C30,27.8893424 27.8893424,30 25.2857143,30 L4.71428571,30 C2.11065761,30 0,27.8893424 0,25.2857143 L0,4.71428571 C0,2.11065761 2.11065761,0 4.71428571,0 Z" id="Rectangle" fill="url(#linearGradient-1)"></path>
                    <path d="M20.3,21.45 L20.3,22.05 C20.3,22.4127656 20.4119796,22.7493769 20.6032582,23.0271535 L4.28857143,23.0271535 C3.85305545,23.0271535 3.5,22.6740874 3.5,22.2385714 L3.5,21.7 C3.5,21.5619288 3.61192881,21.45 3.75,21.45 L20.3,21.45 Z M25.525,13.075 C26.0634776,13.075 26.5,13.5115224 26.5,14.05 L26.5,22.05 C26.5,22.5884776 26.0634776,23.025 25.525,23.025 L22.025,23.025 C21.4865224,23.025 21.05,22.5884776 21.05,22.05 L21.05,14.05 C21.05,13.5115224 21.4865224,13.075 22.025,13.075 L25.525,13.075 Z M22.825,6.975 C23.7362698,6.975 24.475,7.71373016 24.475,8.625 L24.475,12.325 L22.025,12.325 C21.0818357,12.325 20.3154642,13.0819399 20.3002311,14.021474 L20.3,14.05 L20.3,20.7 L6.075,20.7 C5.77124339,20.7 5.525,20.4537566 5.525,20.15 L5.525,8.625 C5.525,7.71373016 6.26373016,6.975 7.175,6.975 L22.825,6.975 Z M16.5568317,13.09 L12.2773019,17.3712777 C12.1806125,17.4680066 12.1788545,17.6237424 12.272028,17.7226171 L12.2773019,17.7280509 L14.1495962,19.6011099 C14.2462856,19.6978388 14.4019578,19.6995975 14.5007921,19.606386 L14.5062237,19.6011099 L16.5568317,17.5496643 C17.7878312,16.318162 17.7878312,14.3215023 16.5568317,13.09 Z M17.2276311,8.7 L14.050347,8.7 C13.983393,8.7 13.9191813,8.72650745 13.8718377,8.77369102 C13.7750423,8.87015926 13.7732824,9.02547541 13.866558,9.12408358 L13.8718377,9.12950274 L14.3100692,9.56625295 L11.8216089,12.046302 C11.0407925,12.8244792 11.0329843,14.0813187 11.7981844,14.8690691 L11.8216089,14.8927957 L12.6249005,15.6933721 L16.5414347,11.7900762 L17.0491219,12.2960473 C17.0964655,12.3432309 17.1606772,12.3697383 17.2276311,12.3697383 C17.3647318,12.3697383 17.4763064,12.2608181 17.4799875,12.1250668 L17.4800813,12.1181414 L17.4800813,8.95159688 C17.4800813,8.81264376 17.3670555,8.7 17.2276311,8.7 Z" id="Shape" fill="#FFFFFF" fill-rule="nonzero"></path>
                </g>
            </g>
        </g>
    </g>
</svg>