<?xml version="1.0" encoding="UTF-8"?>
<svg width="30px" height="30px" viewBox="0 0 30 30" version="1.1" xmlns="http://www.w3.org/2000/svg" xmlns:xlink="http://www.w3.org/1999/xlink">
    <defs>
        <linearGradient x1="100%" y1="0%" x2="0%" y2="100%" id="linearGradient-1">
            <stop stop-color="#904EE1" offset="0%"></stop>
            <stop stop-color="#3748B1" offset="100%"></stop>
        </linearGradient>
    </defs>
    <g id="v2" stroke="none" stroke-width="1" fill="none" fill-rule="evenodd">
        <g id="centered" transform="translate(-762.000000, -8134.000000)">
            <g id="footer---desktop" transform="translate(0.000000, 7362.000000)">
                <g id="app-icon---cookie" transform="translate(762.000000, 772.000000)">
                    <path d="M4.71428571,-2.84217094e-14 L25.2857143,-2.84217094e-14 C27.8893424,-2.84217094e-14 30,2.11065761 30,4.71428571 L30,25.2857143 C30,27.8893424 27.8893424,30 25.2857143,30 L4.71428571,30 C2.11065761,30 -2.84217094e-14,27.8893424 -2.84217094e-14,25.2857143 L-2.84217094e-14,4.71428571 C-2.84217094e-14,2.11065761 2.11065761,-2.84217094e-14 4.71428571,-2.84217094e-14 Z" id="Rectangle" fill="url(#linearGradient-1)"></path>
                    <path d="M20.6635531,5.55837046 C23.4756564,7.44628188 25.2,10.6149252 25.2,14.0758957 C25.2,19.7312313 20.6333044,24.3157867 15,24.3157867 C9.36669555,24.3157867 4.8,19.7312313 4.8,14.0758957 C4.8,12.1521937 5.33013557,10.3045471 6.31587434,8.7021751 C6.62932665,8.19264132 7.33354473,8.10849976 7.7573672,8.52994229 C7.99754972,8.76877608 8.31875116,8.90423361 8.66363636,8.90423361 C8.92428213,8.90423361 9.17111848,8.82733348 9.38172381,8.68487723 C9.92009613,8.32071502 10.6549672,8.61033619 10.8027785,9.24493132 C10.9106087,9.70787634 11.3250059,10.0419993 11.8060606,10.0419993 C12.2736889,10.0419993 12.6795412,9.72619348 12.8003613,9.28058114 C12.9717612,8.64841847 13.7227382,8.38707188 14.247104,8.77710197 C14.5375377,8.99313033 14.8874441,9.1111001 15.2575758,9.1111001 C16.0199844,9.1111001 16.6834078,8.6025244 16.8913191,7.87873479 C17.0262536,7.40899493 17.5001489,7.12407583 17.9763427,7.22638825 C18.0469355,7.24155542 18.1196348,7.24930174 18.1939394,7.24930174 C18.7399344,7.24930174 19.1905565,6.82128017 19.2224181,6.27752042 C19.2645067,5.5592237 20.0677631,5.15838559 20.6635531,5.55837046 Z M20.5792717,7.84451909 C20.0923986,8.56130881 19.2938961,9.0455168 18.3835315,9.10493166 C17.7749272,10.2319546 16.5888029,10.9728985 15.2575758,10.9728985 C14.8547822,10.9728985 14.4615155,10.9051741 14.0911822,10.7761041 C13.5588435,11.4684545 12.7254666,11.9037976 11.8060606,11.9037976 C10.8383457,11.9037976 9.96788575,11.4218063 9.44194118,10.668302 C9.19033345,10.7327088 8.92924862,10.766032 8.66363636,10.766032 C8.23655479,10.766032 7.82244625,10.6797861 7.4417259,10.5184448 C6.92691182,11.6184716 6.65454545,12.8263336 6.65454545,14.0758957 C6.65454545,18.7029885 10.3909327,22.4539883 15,22.4539883 C19.6090673,22.4539883 23.3454545,18.7029885 23.3454545,14.0758957 C23.3454545,11.6551792 22.3157693,9.41090777 20.5792717,7.84451909 Z M15.9272727,16.8168766 C16.9799609,16.8168766 17.8333333,17.6735865 17.8333333,18.7303916 C17.8333333,19.7871967 16.9799609,20.6439066 15.9272727,20.6439066 C14.8745845,20.6439066 14.0212121,19.7871967 14.0212121,18.7303916 C14.0212121,17.6735865 14.8745845,16.8168766 15.9272727,16.8168766 Z M15.9272727,17.9546423 C15.5005072,17.9546423 15.1545455,18.3019571 15.1545455,18.7303916 C15.1545455,19.1588261 15.5005072,19.5061409 15.9272727,19.5061409 C16.3540382,19.5061409 16.7,19.1588261 16.7,18.7303916 C16.7,18.3019571 16.3540382,17.9546423 15.9272727,17.9546423 Z M11.9090909,18.1097921 C12.2505033,18.1097921 12.5272727,18.387644 12.5272727,18.7303916 C12.5272727,19.0731392 12.2505033,19.3509911 11.9090909,19.3509911 C11.5676785,19.3509911 11.2909091,19.0731392 11.2909091,18.7303916 C11.2909091,18.387644 11.5676785,18.1097921 11.9090909,18.1097921 Z M10.3636364,12.6795469 C11.5870308,12.6795469 12.5787879,13.6751827 12.5787879,14.9033616 C12.5787879,16.1315406 11.5870308,17.1271763 10.3636364,17.1271763 C9.14024196,17.1271763 8.14848485,16.1315406 8.14848485,14.9033616 C8.14848485,13.6751827 9.14024196,12.6795469 10.3636364,12.6795469 Z M19.6363636,12.8346968 C20.6606008,12.8346968 21.4909091,13.6682523 21.4909091,14.6964952 C21.4909091,15.724738 20.6606008,16.5582935 19.6363636,16.5582935 C18.6121265,16.5582935 17.7818182,15.724738 17.7818182,14.6964952 C17.7818182,13.6682523 18.6121265,12.8346968 19.6363636,12.8346968 Z M10.3636364,13.8173126 C9.76616468,13.8173126 9.28181818,14.3035533 9.28181818,14.9033616 C9.28181818,15.50317 9.76616468,15.9894107 10.3636364,15.9894107 C10.961108,15.9894107 11.4454545,15.50317 11.4454545,14.9033616 C11.4454545,14.3035533 10.961108,13.8173126 10.3636364,13.8173126 Z M19.6363636,13.8690292 C19.1811471,13.8690292 18.8121212,14.2394983 18.8121212,14.6964952 C18.8121212,15.153492 19.1811471,15.5239611 19.6363636,15.5239611 C20.0915802,15.5239611 20.4606061,15.153492 20.4606061,14.6964952 C20.4606061,14.2394983 20.0915802,13.8690292 19.6363636,13.8690292 Z M15.3090909,13.351863 C15.7643074,13.351863 16.1333333,13.7223321 16.1333333,14.179329 C16.1333333,14.6363258 15.7643074,15.0067949 15.3090909,15.0067949 C14.8538744,15.0067949 14.4848485,14.6363258 14.4848485,14.179329 C14.4848485,13.7223321 14.8538744,13.351863 15.3090909,13.351863 Z M20.1515152,10.1454325 C20.4929275,10.1454325 20.769697,10.4232844 20.769697,10.766032 C20.769697,11.1087796 20.4929275,11.3866314 20.1515152,11.3866314 C19.8101028,11.3866314 19.5333333,11.1087796 19.5333333,10.766032 C19.5333333,10.4232844 19.8101028,10.1454325 20.1515152,10.1454325 Z" id="cookie" fill="#FFFFFF" fill-rule="nonzero"></path>
                </g>
            </g>
        </g>
    </g>
</svg>