<?xml version="1.0" encoding="UTF-8"?>
<svg width="30px" height="30px" viewBox="0 0 30 30" version="1.1" xmlns="http://www.w3.org/2000/svg" xmlns:xlink="http://www.w3.org/1999/xlink">
    <defs>
        <linearGradient x1="95.6109375%" y1="6.3546875%" x2="6.2734375%" y2="97.890625%" id="linearGradient-1">
            <stop stop-color="#FE9A8B" offset="0%"></stop>
            <stop stop-color="#FD868C" offset="40.8502073%"></stop>
            <stop stop-color="#F9748F" offset="73.1505102%"></stop>
            <stop stop-color="#F78CA0" offset="100%"></stop>
        </linearGradient>
    </defs>
    <g id="v2" stroke="none" stroke-width="1" fill="none" fill-rule="evenodd">
        <g id="centered" transform="translate(-762.000000, -8082.000000)">
            <g id="footer---desktop" transform="translate(0.000000, 7362.000000)">
                <g id="app-icon---gateway" transform="translate(762.000000, 720.000000)">
                    <path d="M4.71428571,-2.84217094e-14 L25.2857143,-2.84217094e-14 C27.8893424,-2.84217094e-14 30,2.11065761 30,4.71428571 L30,25.2857143 C30,27.8893424 27.8893424,30 25.2857143,30 L4.71428571,30 C2.11065761,30 -2.84217094e-14,27.8893424 -2.84217094e-14,25.2857143 L-2.84217094e-14,4.71428571 C-2.84217094e-14,2.11065761 2.11065761,-2.84217094e-14 4.71428571,-2.84217094e-14 Z" id="Rectangle" fill="url(#linearGradient-1)"></path>
                    <path d="M14.9454887,5.12625262 C20.7806471,5.12625262 25.5109775,9.87037586 25.5109775,15.7225484 C25.5109775,21.574721 20.7806471,26.3188443 14.9454887,26.3188443 C9.11033044,26.3188443 4.38,21.574721 4.38,15.7225484 C4.38,9.87037586 9.11033044,5.12625262 14.9454887,5.12625262 Z M17.4021885,14.4759254 L11.5047262,20.392572 C11.3690146,20.5287251 11.3690146,20.7494728 11.5047262,20.8856259 L11.5047262,20.8856259 L14.084866,23.4741588 C14.2205776,23.6103119 14.4406096,23.6103119 14.5763212,23.4741588 L14.5763212,23.4741588 L17.4021885,20.639099 C19.0985835,18.9371856 19.0985835,16.1778388 17.4021885,14.4759254 L17.4021885,14.4759254 Z M18.3876944,8.42980367 L13.9960061,8.42980367 C13.9034614,8.42980367 13.814707,8.46642366 13.749268,8.53160766 C13.6129984,8.66734631 13.6129984,8.88742213 13.749268,9.02316078 L13.749268,9.02316078 L14.354998,9.62653027 L10.9154119,13.0527127 C9.82525457,14.1386219 9.82525457,15.8992285 10.9154119,16.9851377 L10.9154119,16.9851377 L12.0257332,18.0911322 L17.4392238,12.6987373 L18.1409563,13.3977353 C18.2063953,13.4629193 18.2951497,13.4995393 18.3876944,13.4995393 C18.5804088,13.4995393 18.7366347,13.3439222 18.7366347,13.1519587 L18.7366347,13.1519587 L18.7366347,8.77738422 C18.7366347,8.58542079 18.5804088,8.42980367 18.3876944,8.42980367 L18.3876944,8.42980367 Z M23.2050966,5.79225982 L23.2070131,5.79417634 L25.4043451,7.99791535 C25.768721,8.36335374 25.768721,8.95472036 25.4043451,9.32015876 C25.0413376,9.68422464 24.4519283,9.68508269 24.0878624,9.32207528 L24.0859459,9.32015876 L21.8886139,7.11641974 C21.524238,6.75098135 21.524238,6.15961473 21.8886139,5.79417634 C22.2516213,5.43011046 22.8410307,5.4292524 23.2050966,5.79225982 Z M16.4965188,2.82 C17.012887,2.82 17.4314861,3.23859911 17.4314861,3.75496728 C17.4314861,4.27133545 17.012887,4.68993456 16.4965188,4.68993456 L13.3944587,4.68993456 C12.8780905,4.68993456 12.4594914,4.27133545 12.4594914,3.75496728 C12.4594914,3.23859911 12.8780905,2.82 13.3944587,2.82 L16.4965188,2.82 Z" id="scacrcity" fill="#FFFFFF" fill-rule="nonzero"></path>
                </g>
            </g>
        </g>
    </g>
</svg>