<?xml version="1.0" encoding="UTF-8"?>
<svg width="22px" height="22px" viewBox="0 0 22 22" version="1.1" xmlns="http://www.w3.org/2000/svg" xmlns:xlink="http://www.w3.org/1999/xlink">
    <!-- Generator: Sketch 60.1 (88133) - https://sketch.com -->
    <title>icon - happy</title>
    <desc>Created with Sketch.</desc>
    <g id="v2" stroke="none" stroke-width="1" fill="none" fill-rule="evenodd">
        <g id="centered" transform="translate(-987.000000, -6008.000000)" fill="#10C1D6" fill-rule="nonzero">
            <g id="reviews" transform="translate(-130.000000, 5256.000000)">
                <g id="icon---happy">
                    <g transform="translate(1113.000000, 748.000000)">
                        <path d="M15,4.5 C20.7989899,4.5 25.5,9.20101013 25.5,15 C25.5,20.7989899 20.7989899,25.5 15,25.5 C9.20101013,25.5 4.5,20.7989899 4.5,15 C4.5,9.20101013 9.20101013,4.5 15,4.5 Z M15,6.75 C10.4436508,6.75 6.75,10.4436508 6.75,15 C6.75,19.5563492 10.4436508,23.25 15,23.25 C19.5563492,23.25 23.25,19.5563492 23.25,15 C23.25,10.4436508 19.5563492,6.75 15,6.75 Z M19.7829296,16.1111946 C20.3625382,16.3350087 20.6509667,16.9863116 20.4271526,17.5659202 C19.5686585,19.7891515 17.4257565,21.2856689 15.0025511,21.2856689 C12.6017498,21.2856689 10.4745512,19.8166295 9.60059297,17.6236364 C9.37057548,17.0464614 9.65200221,16.3921027 10.2291772,16.1620852 C10.8063521,15.9320677 11.4607109,16.2134944 11.6907284,16.7906694 C12.2264979,18.1350573 13.5306016,19.0356689 15.0025511,19.0356689 C16.4881883,19.0356689 17.8019821,18.1181677 18.3282039,16.7554176 C18.5520181,16.1758089 19.2033209,15.8873804 19.7829296,16.1111946 Z M12,10.5 C12.8284271,10.5 13.5,11.1715729 13.5,12 C13.5,12.8284271 12.8284271,13.5 12,13.5 C11.1715729,13.5 10.5,12.8284271 10.5,12 C10.5,11.1715729 11.1715729,10.5 12,10.5 Z M18,10.5 C18.8284271,10.5 19.5,11.1715729 19.5,12 C19.5,12.8284271 18.8284271,13.5 18,13.5 C17.1715729,13.5 16.5,12.8284271 16.5,12 C16.5,11.1715729 17.1715729,10.5 18,10.5 Z"></path>
                    </g>
                </g>
            </g>
        </g>
    </g>
</svg>