<?xml version="1.0" encoding="UTF-8"?>
<svg width="30px" height="30px" viewBox="0 0 30 30" version="1.1" xmlns="http://www.w3.org/2000/svg" xmlns:xlink="http://www.w3.org/1999/xlink">
    <g id="v2" stroke="none" stroke-width="1" fill="none" fill-rule="evenodd">
        <g id="centered" transform="translate(-1035.000000, -8365.000000)" fill="#FFFFFF" fill-rule="nonzero">
            <g id="footer---desktop" transform="translate(0.000000, 7362.000000)">
                <g id="instagram" transform="translate(1035.000000, 1003.000000)">
                    <rect id="Rectangle" opacity="0.245256696" x="0" y="0" width="30" height="30" rx="4"></rect>
                    <g id="icon---instagram" transform="translate(4.090909, 4.090909)">
                        <path d="M10.90905,4.64858373 C12.9480231,4.64858373 13.1895881,4.65636294 13.9948597,4.69304808 C14.7392077,4.72703097 15.1435631,4.8514984 15.4125601,4.95598554 C15.7690938,5.09453744 16.0235151,5.26003 16.2907106,5.52722555 C16.557988,5.79450298 16.7233987,6.04884235 16.8620325,6.40529416 C16.9666015,6.67437309 17.091069,7.07872848 17.12497,7.82324026 C17.1615732,8.62842991 17.1694343,8.86999499 17.1694343,10.9089681 C17.1694343,12.9479412 17.1615732,13.1895062 17.12497,13.9947778 C17.091069,14.7392896 16.9666015,15.1435631 16.8620325,15.4125601 C16.7235625,15.7690938 16.557988,16.0233513 16.2907106,16.2906287 C16.0235151,16.5579062 15.7691757,16.7233987 15.4125601,16.8620325 C15.1435631,16.9665196 14.738962,17.091069 13.9948597,17.12497 C13.1895881,17.1616551 12.9482687,17.1694343 10.90905,17.1694343 C8.86991311,17.1694343 8.62842991,17.1616551 7.82332214,17.12497 C7.07881037,17.091069 6.67445498,16.9665196 6.40537604,16.8620325 C6.04892424,16.7235625 5.79458487,16.5579062 5.52730743,16.2906287 C5.26003,16.0233513 5.09461933,15.7690938 4.95606742,15.4125601 C4.85158029,15.1435631 4.72703097,14.7392077 4.69312997,13.9947778 C4.65636294,13.1895062 4.64858373,12.9480231 4.64858373,10.9089681 C4.64858373,8.86999499 4.65636294,8.6285118 4.69312997,7.82324026 C4.72703097,7.07872848 4.85158029,6.67437309 4.95606742,6.40529416 C5.09461933,6.04884235 5.26003,5.79450298 5.52730743,5.52722555 C5.79450298,5.26003 6.04892424,5.09453744 6.40537604,4.95598554 C6.67445498,4.85141651 7.07881037,4.72703097 7.82332214,4.69304808 C8.62859368,4.65636294 8.87007688,4.64858373 10.90905,4.64858373 M10.90905,3.27272727 C8.83511136,3.27272727 8.57503993,3.28148912 7.76059711,3.31866558 C6.94779201,3.35584204 6.39268364,3.48489511 5.9069331,3.67364343 C5.40480527,3.86877888 4.97891375,4.12991483 4.55441429,4.55441429 C4.12991483,4.97891375 3.86877888,5.40480527 3.67364343,5.9069331 C3.48481323,6.39276553 3.35576015,6.94779201 3.31866558,7.76059711 C3.28148912,8.57503993 3.27272727,8.83511136 3.27272727,10.9089681 C3.27272727,12.9829067 3.28140724,13.2428962 3.31866558,14.0573391 C3.35576015,14.8703079 3.48481323,15.4251706 3.67364343,15.9110031 C3.86877888,16.4132128 4.12991483,16.8391043 4.55441429,17.2636856 C4.97899563,17.6883489 5.40480527,17.949321 5.9069331,18.1444565 C6.39268364,18.3333686 6.94771013,18.4624217 7.76059711,18.4995162 C8.57503993,18.5366108 8.83511136,18.5454545 10.90905,18.5454545 C12.9829067,18.5454545 13.2428962,18.5366927 14.0575028,18.4995162 C14.8703079,18.4624217 15.4254163,18.3333686 15.9110031,18.1444565 C16.4132128,17.949321 16.8391043,17.6883489 17.2637675,17.2636856 C17.6883489,16.8391043 17.9492392,16.4132128 18.1445384,15.9110031 C18.3333686,15.4251706 18.4624217,14.8703079 18.4994343,14.0573391 C18.5365289,13.2429781 18.5454545,12.9829067 18.5454545,10.9089681 C18.5454545,8.83511136 18.5367746,8.57512182 18.4994343,7.76059711 C18.4624217,6.94779201 18.3333686,6.39268364 18.1445384,5.9069331 C17.9492392,5.40480527 17.6883489,4.97891375 17.2637675,4.55441429 C16.8391043,4.12991483 16.4132128,3.86877888 15.9110031,3.67364343 C15.4254163,3.48489511 14.8703079,3.35584204 14.0575028,3.31866558 C13.2429781,3.28148912 12.9829067,3.27272727 10.90905,3.27272727 M10.90905,6.98767072 C8.74331663,6.98767072 6.98767072,8.74331663 6.98767072,10.9089681 C6.98767072,13.0747014 8.74331663,14.8302654 10.90905,14.8302654 C13.0747014,14.8302654 14.8302654,13.0747833 14.8302654,10.9089681 C14.8303473,8.74331663 13.0747014,6.98767072 10.90905,6.98767072 M10.90905,13.4543271 C9.50322306,13.4543271 8.36360907,12.314795 8.36360907,10.9089681 C8.36360907,9.50322306 9.50322306,8.36360907 10.90905,8.36360907 C12.314795,8.36360907 13.4543271,9.50322306 13.4543271,10.9089681 C13.454409,12.314795 12.3148769,13.4543271 10.90905,13.4543271 M15.9017499,6.83274152 C15.9017499,7.33879991 15.4914987,7.74905112 14.9853584,7.74905112 C14.4793,7.74905112 14.0692126,7.33871802 14.0692126,6.83274152 C14.0692126,6.32660126 14.4795457,5.91643193 14.9853584,5.91643193 C15.4914987,5.91635005 15.9017499,6.32660126 15.9017499,6.83274152"></path>
                    </g>
                </g>
            </g>
        </g>
    </g>
</svg>