<?xml version="1.0" encoding="UTF-8"?>
<svg width="160px" height="50px" viewBox="0 0 160 50" version="1.1" xmlns="http://www.w3.org/2000/svg" xmlns:xlink="http://www.w3.org/1999/xlink">
    <g id="Symbols" stroke="none" stroke-width="1" fill="none" fill-rule="evenodd">
        <g id="nav---desktop">
            <g id="skup-logo">
                <g id="skup-symbol">
                    <path d="M30.0304148,2.08366602 L47.916334,19.9695852 C50.6945553,22.7478066 50.6945553,27.2521934 47.916334,30.0304148 L30.0304148,47.916334 C27.2521934,50.6945553 22.7478066,50.6945553 19.9695852,47.916334 L2.08366602,30.0304148 C-0.694555341,27.2521934 -0.694555341,22.7478066 2.08366602,19.9695852 L19.9695852,2.08366602 C22.7478066,-0.694555341 27.2521934,-0.694555341 30.0304148,2.08366602 Z M29.8130926,22.4941056 L17.6912621,34.6159361 C17.4123162,34.8948821 17.4123162,35.3471428 17.6912621,35.6260887 L17.6912621,35.6260887 L22.994563,40.9293895 C23.2735089,41.2083355 23.7257696,41.2083355 24.0047155,40.9293895 L24.0047155,40.9293895 L29.8130926,35.1210124 C33.2999167,31.6341884 33.2999167,25.9809296 29.8130926,22.4941056 L29.8130926,22.4941056 Z M31.9695424,10 L22.9796949,10 C22.7902546,10 22.6085732,10.0752549 22.4746186,10.2092094 C22.1956727,10.4881554 22.1956727,10.9404161 22.4746186,11.219362 L22.4746186,11.219362 L23.7145563,12.4592996 L16.6736755,19.5001804 C14.4421082,21.7317478 14.4421082,25.3498334 16.6736755,27.5814007 L16.6736755,27.5814007 L18.9465188,29.854244 L30.0280097,18.772753 L31.4644661,20.2092094 C31.5984207,20.343164 31.780102,20.4184189 31.9695424,20.4184189 C32.3640315,20.4184189 32.6838281,20.0986223 32.6838281,19.7041332 L32.6838281,19.7041332 L32.6838281,10.7142857 C32.6838281,10.3197966 32.3640315,10 31.9695424,10 L31.9695424,10 Z" id="diamond" fill="#ffffff" fill-rule="evenodd"></path>
                </g>
                <path d="M147.857143,18.5714286 C154.563458,18.5714286 160,23.528276 160,29.6428571 C160,35.7574383 154.563458,40.7142857 147.857143,40.7142857 L143.571429,40.7142857 L143.571429,48.75 C143.571429,49.0458668 143.331581,49.2857143 143.035714,49.2857143 L136.964286,49.2857143 C136.668419,49.2857143 136.428571,49.0458668 136.428571,48.75 L136.428571,19.1071429 C136.428571,18.811276 136.668419,18.5714286 136.964286,18.5714286 L147.857143,18.5714286 Z M71.4595973,9.6625 C76.5887766,9.6625 80.1981991,11.1874026 82.2403723,14.1895547 C83.3039515,15.7903253 83.9114535,17.6480866 84.0628785,19.7628387 C84.0840139,20.057952 83.8619075,20.3143191 83.566794,20.3354504 L83.5285323,20.3368185 L83.5285323,20.3368185 L77.4929011,20.3368185 C77.2034016,20.3368185 76.9687158,20.1021328 76.9687158,19.8126332 C76.9687158,17.1917068 74.8315578,15.619151 71.2696277,15.619151 C67.8976672,15.619151 65.8554939,16.8581344 65.8554939,18.8595691 C65.8554939,20.1938589 66.8053419,21.146923 68.7525304,21.5758019 L75.1640046,23.0530513 C78.6784422,23.8631559 80.6256307,24.7685668 82.1453875,26.198163 C83.7601292,27.6754125 84.5675,29.7245004 84.5675,32.2501204 C84.5675,38.8262631 79.5333036,42.8767857 71.3171201,42.8767857 C62.8401445,42.8767857 58.339535,39.3357087 57.8152915,32.2535547 C57.7934383,31.9584897 58.0149303,31.7015854 58.3099961,31.6797437 C58.3231563,31.6787695 58.3363479,31.6782819 58.349544,31.6782819 L64.396348,31.6782819 C64.6753045,31.6782829 64.9075739,31.8923542 64.9302833,32.1703848 C65.1889206,35.3368848 67.3495278,36.9201348 71.4121049,36.9201348 C75.0690198,36.9201348 77.3011626,35.5381917 77.3011626,33.3461442 C77.3011626,31.7735883 76.1138526,30.6775646 73.8817097,30.1057261 L68.1351292,28.6761298 C64.7631687,27.8183721 62.673503,26.9606144 61.248731,25.721631 C59.6339894,24.3396879 58.7316337,22.052334 58.7316337,19.4790608 C58.7316337,13.331797 63.4808739,9.6625 71.4595973,9.6625 Z M118.75,18.5714286 C119.045867,18.5714286 119.285714,18.811276 119.285714,19.1071429 L119.285714,32.1428571 C119.285714,34.1153027 120.884697,35.7142857 122.857143,35.7142857 C124.829588,35.7142857 126.428571,34.1153027 126.428571,32.1428571 L126.428571,19.1071429 C126.428571,18.811276 126.668419,18.5714286 126.964286,18.5714286 L133.035714,18.5714286 C133.331581,18.5714286 133.571429,18.811276 133.571429,19.1071429 L133.571429,32.1428571 C133.571429,38.0601937 128.774479,42.8571429 122.857143,42.8571429 C116.939806,42.8571429 112.142857,38.0601937 112.142857,32.1428571 L112.142857,19.1071429 C112.142857,18.811276 112.382705,18.5714286 112.678571,18.5714286 L118.75,18.5714286 Z M94.0529633,9.86464286 C94.3480903,9.86464286 94.5876301,10.1033368 94.5886742,10.398462 L94.6428571,25.7142857 L101.671224,18.6677534 C101.771729,18.5669883 101.9082,18.5103571 102.05052,18.5103571 L109.146314,18.5103571 C109.442181,18.5103571 109.682028,18.7502046 109.682028,19.0460714 C109.682028,19.1881517 109.625587,19.3244127 109.525121,19.4248786 L101.436786,27.5132143 L110.664933,41.309295 C110.82943,41.5552178 110.763421,41.8879285 110.517499,42.0524253 C110.429355,42.1113844 110.325696,42.1428571 110.219651,42.1428571 L103.016842,42.1428571 C102.826191,42.1428571 102.649905,42.041533 102.55394,41.8767943 L96.8375,32.0635714 L94.5867857,34.2653571 L94.5867857,41.6071429 C94.5867857,41.9030097 94.3469383,42.1428571 94.0510714,42.1428571 L88.1746429,42.1428571 C87.878776,42.1428571 87.6389286,41.9030097 87.6389286,41.6071429 L87.6389286,10.4003571 C87.6389286,10.1044903 87.878776,9.86464286 88.1746429,9.86464286 L94.0529633,9.86464286 Z M147.857143,25.0840336 L143.571429,25.0840336 L143.571429,34.2016807 L147.857143,34.2016807 C150.618567,34.2016807 152.857143,32.1606259 152.857143,29.6428571 C152.857143,27.1250884 150.618567,25.0840336 147.857143,25.0840336 Z" id="skup-wordmark" fill="#ffffff" fill-rule="evenodd"></path>
            </g>
        </g>
    </g>
</svg>