<?xml version="1.0" encoding="UTF-8"?>
<svg width="1440px" height="1075px" viewBox="0 0 1440 1075" version="1.1" xmlns="http://www.w3.org/2000/svg" xmlns:xlink="http://www.w3.org/1999/xlink">
    <defs>
        <linearGradient x1="100%" y1="22.1348139%" x2="0%" y2="77.8651861%" id="linearGradient-1">
            <stop stop-color="#FDC873" offset="0%"></stop>
            <stop stop-color="#CE5DB9" offset="50.8738281%"></stop>
            <stop stop-color="#4757CF" offset="100%"></stop>
        </linearGradient>
        <linearGradient x1="50%" y1="0%" x2="50%" y2="100%" id="linearGradient-2">
            <stop stop-color="#E9ECF4" offset="0%"></stop>
            <stop stop-color="#DBE0F6" offset="100%"></stop>
        </linearGradient>
        <linearGradient x1="50%" y1="0%" x2="50%" y2="98.9284206%" id="linearGradient-3">
            <stop stop-color="#7254B7" offset="0%"></stop>
            <stop stop-color="#4D459C" offset="100%"></stop>
        </linearGradient>
        <linearGradient x1="50%" y1="0%" x2="50%" y2="98.9284206%" id="linearGradient-4">
            <stop stop-color="#7254B7" offset="0%"></stop>
            <stop stop-color="#4D459C" offset="100%"></stop>
        </linearGradient>
        <linearGradient x1="50%" y1="14.1742546%" x2="50%" y2="146.66216%" id="linearGradient-5">
            <stop stop-color="#545FE4" offset="0%"></stop>
            <stop stop-color="#4252A6" offset="100%"></stop>
        </linearGradient>
    </defs>
    <g id="v2" stroke="none" stroke-width="1" fill="none" fill-rule="evenodd">
        <g id="centered">
            <g id="hero" transform="translate(-85.000000, 0.000000)">
                <g id="bg">
                    <path d="M699,988 C353.78,988 250.880044,1073.0006 85,1075 L85,0 L1525,0 L1525,988 L699,988 Z" id="Path" fill="url(#linearGradient-1)"></path>
                    <path d="M129.130784,667.959764 L206.040236,744.869216 C217.986588,756.815568 217.986588,776.184432 206.040236,788.130784 L129.130784,865.040236 C117.184432,876.986588 97.8155683,876.986588 85.8692165,865.040236 L8.9597639,788.130784 C-2.98658797,776.184432 -2.98658797,756.815568 8.9597639,744.869216 L85.8692165,667.959764 C97.8155683,656.013412 117.184432,656.013412 129.130784,667.959764 Z" id="Rectangle" fill="url(#linearGradient-2)" fill-rule="nonzero" opacity="0.0320870536"></path>
                    <path d="M198.612774,608.87514 L206.12486,616.387226 C207.291713,617.554079 207.291713,619.445921 206.12486,620.612774 L198.612774,628.12486 C197.445921,629.291713 195.554079,629.291713 194.387226,628.12486 L186.87514,620.612774 C185.708287,619.445921 185.708287,617.554079 186.87514,616.387226 L194.387226,608.87514 C195.554079,607.708287 197.445921,607.708287 198.612774,608.87514 Z" id="Rectangle" fill="url(#linearGradient-2)" fill-rule="nonzero" opacity="0.210797991"></path>
                    <path d="M161.426765,434.833626 L177.166374,450.573235 C179.611209,453.01807 179.611209,456.98193 177.166374,459.426765 L161.426765,475.166374 C158.98193,477.611209 155.01807,477.611209 152.573235,475.166374 L136.833626,459.426765 C134.388791,456.98193 134.388791,453.01807 136.833626,450.573235 L152.573235,434.833626 C155.01807,432.388791 158.98193,432.388791 161.426765,434.833626 Z" id="Rectangle" fill="url(#linearGradient-3)" fill-rule="nonzero" opacity="0.491489955"></path>
                    <path d="M1409.4146,452.00016 L1417.99984,460.585401 C1419.33339,461.918947 1419.33339,464.081053 1417.99984,465.414599 L1409.4146,473.99984 C1408.08105,475.333387 1405.91895,475.333387 1404.5854,473.99984 L1396.00016,465.414599 C1394.66661,464.081053 1394.66661,461.918947 1396.00016,460.585401 L1404.5854,452.00016 C1405.91895,450.666613 1408.08105,450.666613 1409.4146,452.00016 Z" id="Rectangle" fill="url(#linearGradient-3)" fill-rule="nonzero" opacity="0.210332961"></path>
                    <path d="M1481.2073,377.50008 L1485.49992,381.7927 C1486.16669,382.459474 1486.16669,383.540526 1485.49992,384.2073 L1481.2073,388.49992 C1480.54053,389.166693 1479.45947,389.166693 1478.7927,388.49992 L1474.50008,384.2073 C1473.83331,383.540526 1473.83331,382.459474 1474.50008,381.7927 L1478.7927,377.50008 C1479.45947,376.833307 1480.54053,376.833307 1481.2073,377.50008 Z" id="Rectangle" fill="url(#linearGradient-2)" fill-rule="nonzero" opacity="0.397925967"></path>
                    <path d="M252.252922,992.500559 L283.374421,1022.5489 C288.208526,1027.21632 288.208526,1034.78368 283.374421,1039.4511 L252.252922,1069.49944 C247.418817,1074.16685 239.581183,1074.16685 234.747078,1069.49944 L203.625579,1039.4511 C198.791474,1034.78368 198.791474,1027.21632 203.625579,1022.5489 L234.747078,992.500559 C239.581183,987.833147 247.418817,987.833147 252.252922,992.500559 Z" id="Rectangle" fill="url(#linearGradient-4)" fill-rule="nonzero"></path>
                    <path d="M1531.13078,591.959764 L1608.04024,668.869216 C1619.98659,680.815568 1619.98659,700.184432 1608.04024,712.130784 L1531.13078,789.040236 C1519.18443,800.986588 1499.81557,800.986588 1487.86922,789.040236 L1410.95976,712.130784 C1399.01341,700.184432 1399.01341,680.815568 1410.95976,668.869216 L1487.86922,591.959764 C1499.81557,580.013412 1519.18443,580.013412 1531.13078,591.959764 Z" id="Rectangle" fill="url(#linearGradient-5)" fill-rule="nonzero" opacity="0.0717075893"></path>
                </g>
            </g>
        </g>
    </g>
</svg>