<?xml version="1.0" encoding="UTF-8"?>
<svg width="1440px" height="528px" viewBox="0 0 1440 528" version="1.1" xmlns="http://www.w3.org/2000/svg" xmlns:xlink="http://www.w3.org/1999/xlink">
    <defs>
        <linearGradient x1="100%" y1="54.4111923%" x2="0%" y2="43.2967035%" id="linearGradient-1">
            <stop stop-color="#FDC873" offset="0%"></stop>
            <stop stop-color="#CE5DB9" offset="50.8738281%"></stop>
            <stop stop-color="#4757CF" offset="100%"></stop>
        </linearGradient>
        <linearGradient x1="50%" y1="0%" x2="50%" y2="100%" id="linearGradient-2">
            <stop stop-color="#E9ECF4" offset="0%"></stop>
            <stop stop-color="#DBE0F6" offset="100%"></stop>
        </linearGradient>
        <linearGradient x1="50%" y1="14.1742546%" x2="50%" y2="146.66216%" id="linearGradient-3">
            <stop stop-color="#545FE4" offset="0%"></stop>
            <stop stop-color="#4252A6" offset="100%"></stop>
        </linearGradient>
    </defs>
    <g id="v2" stroke="none" stroke-width="1" fill="none" fill-rule="evenodd">
        <g id="centered" transform="translate(0.000000, -7290.000000)">
            <g id="cta" transform="translate(-90.000000, 7290.000000)">
                <g id="Group-2">
                    <g transform="translate(0.000000, 0.000000)">
                        <path d="M778.618056,472.48842 C608,476.136338 427,527.256213 90,527.256213 L90,-1.13686838e-13 L1530,0.256212974 L1530,475.880125 C1379.40643,484.87692 1323,497.674847 1165.04762,497.359469 C1007.09524,497.044091 949.236111,468.840501 778.618056,472.48842 Z" id="Mask" fill="url(#linearGradient-1)" transform="translate(810.000000, 263.628106) scale(1, -1) translate(-810.000000, -263.628106) "></path>
                        <path d="M1538.86265,174.292352 L1575.70765,211.137346 C1581.43078,216.860482 1581.43078,226.139518 1575.70765,231.862654 L1538.86265,268.707648 C1533.13952,274.430784 1523.86048,274.430784 1518.13735,268.707648 L1481.29235,231.862654 C1475.56922,226.139518 1475.56922,216.860482 1481.29235,211.137346 L1518.13735,174.292352 C1523.86048,168.569216 1533.13952,168.569216 1538.86265,174.292352 Z" id="Rectangle" fill="url(#linearGradient-2)" fill-rule="nonzero" opacity="0.214308966"></path>
                        <path d="M1478.60973,147.666773 L1484.33323,153.390267 C1485.22226,154.279298 1485.22226,155.720702 1484.33323,156.609733 L1478.60973,162.333227 C1477.7207,163.222258 1476.2793,163.222258 1475.39027,162.333227 L1469.66677,156.609733 C1468.77774,155.720702 1468.77774,154.279298 1469.66677,153.390267 L1475.39027,147.666773 C1476.2793,146.777742 1477.7207,146.777742 1478.60973,147.666773 Z" id="Rectangle" fill="url(#linearGradient-3)" fill-rule="nonzero" opacity="0.205101376"></path>
                        <path d="M119.521051,48.2929908 L190.707009,119.478949 C201.76433,130.53627 201.76433,148.46373 190.707009,159.521051 L119.521051,230.707009 C108.46373,241.76433 90.5362702,241.76433 79.4789492,230.707009 L8.29299078,159.521051 C-2.76433026,148.46373 -2.76433026,130.53627 8.29299078,119.478949 L79.4789492,48.2929908 C90.5362702,37.2356697 108.46373,37.2356697 119.521051,48.2929908 Z" id="Rectangle" fill="url(#linearGradient-2)" fill-rule="nonzero" opacity="0.023314"></path>
                        <path d="M156.426765,59.8336261 L172.166374,75.573235 C174.611209,78.0180698 174.611209,81.9819302 172.166374,84.426765 L156.426765,100.166374 C153.98193,102.611209 150.01807,102.611209 147.573235,100.166374 L131.833626,84.426765 C129.388791,81.9819302 129.388791,78.0180698 131.833626,75.573235 L147.573235,59.8336261 C150.01807,57.3887913 153.98193,57.3887913 156.426765,59.8336261 Z" id="Rectangle" fill="#5D58AF" fill-rule="nonzero"></path>
                    </g>
                </g>
            </g>
        </g>
    </g>
</svg>