<?xml version="1.0" encoding="UTF-8"?>
<svg width="614px" height="479px" viewBox="0 0 614 479" version="1.1" xmlns="http://www.w3.org/2000/svg" xmlns:xlink="http://www.w3.org/1999/xlink">
    <defs>
        <linearGradient x1="95.6109375%" y1="7.46662429%" x2="6.2734375%" y2="96.6705318%" id="linearGradient-1">
            <stop stop-color="#FE9A8B" offset="0%"></stop>
            <stop stop-color="#FD868C" offset="40.8502073%"></stop>
            <stop stop-color="#F9748F" offset="73.1505102%"></stop>
            <stop stop-color="#F78CA0" offset="100%"></stop>
        </linearGradient>
        <linearGradient x1="50%" y1="14.1742546%" x2="50%" y2="146.66216%" id="linearGradient-2">
            <stop stop-color="#545FE4" offset="0%"></stop>
            <stop stop-color="#4252A6" offset="100%"></stop>
        </linearGradient>
        <linearGradient x1="50%" y1="0%" x2="50%" y2="100%" id="linearGradient-3">
            <stop stop-color="#E9ECF4" offset="0%"></stop>
            <stop stop-color="#DBE0F6" offset="100%"></stop>
        </linearGradient>
        <linearGradient x1="50%" y1="0%" x2="50%" y2="100%" id="linearGradient-4">
            <stop stop-color="#E9ECF4" offset="0%"></stop>
            <stop stop-color="#DBE0F6" offset="100%"></stop>
        </linearGradient>
        <linearGradient x1="115.40625%" y1="114.646817%" x2="-12.4390625%" y2="-19.0866746%" id="linearGradient-5">
            <stop stop-color="#21D4FD" offset="0%"></stop>
            <stop stop-color="#B721FF" offset="100%"></stop>
        </linearGradient>
        <linearGradient x1="100%" y1="1.40085633%" x2="0%" y2="98.5991437%" id="linearGradient-6">
            <stop stop-color="#904EE1" offset="0%"></stop>
            <stop stop-color="#3748B1" offset="100%"></stop>
        </linearGradient>
        <linearGradient x1="119.920312%" y1="114.466602%" x2="-17.2359375%" y2="-9.76411878%" id="linearGradient-7">
            <stop stop-color="#009EFD" offset="0%"></stop>
            <stop stop-color="#2AF598" offset="100%"></stop>
        </linearGradient>
        <linearGradient x1="93.0617241%" y1="81.0601849%" x2="11.8441647%" y2="20.9324409%" id="linearGradient-8">
            <stop stop-color="#4757CF" offset="0%"></stop>
            <stop stop-color="#CE5DB9" offset="49.1261719%"></stop>
            <stop stop-color="#FDC873" offset="100%"></stop>
        </linearGradient>
        <path d="M197.930525,197.426401 L197.930525,201.222453 C197.930525,203.517582 198.649931,205.647238 199.878788,207.404662 L95.0661267,207.404662 C92.2681822,207.404662 90,205.1709 90,202.415498 L90,199.00809 C90,198.134547 90.7190795,197.426401 91.606109,197.426401 L197.930525,197.426401 Z M231.781902,144.20901 C235.216063,144.20901 238,146.981504 238,150.401549 L238,201.212123 C238,204.632168 235.216063,207.404662 231.781902,207.404662 L209.460523,207.404662 C206.026362,207.404662 203.242424,204.632168 203.242424,201.212123 L203.242424,150.401549 C203.242424,146.981504 206.026362,144.20901 209.460523,144.20901 L231.781902,144.20901 Z M215.025506,105.404662 C220.902457,105.404662 225.666667,110.118915 225.666667,115.934242 L225.666667,139.546026 L209.866155,139.546026 C203.783511,139.546026 198.841037,144.376486 198.742795,150.372182 L198.741305,150.554223 L198.741305,192.991619 L107.001599,192.991619 C105.042615,192.991619 103.454545,191.420201 103.454545,189.481759 L103.454545,115.934242 C103.454545,110.118915 108.218755,105.404662 114.095706,105.404662 L215.025506,105.404662 Z M173.81164,144.20901 L146.531432,171.600368 C145.915078,172.219234 145.903871,173.215622 146.497813,173.848216 L146.531432,173.882981 L158.466523,185.8667 C159.082878,186.485566 160.075223,186.496818 160.70525,185.900456 L160.739874,185.8667 L173.81164,172.741674 C181.658746,164.862597 181.658746,152.088088 173.81164,144.20901 Z M178.0666,116.491619 L157.547122,116.491619 C157.114721,116.491619 156.70003,116.659713 156.394277,116.958923 C155.769154,117.570668 155.757788,118.555591 156.360179,119.180906 L156.394277,119.215271 L159.224455,121.984882 L143.153526,137.711885 C138.110872,142.646624 138.060445,150.616756 143.002246,155.612203 L143.153526,155.762663 L148.341329,160.839445 L173.635019,136.087053 L176.913755,139.295622 C177.219509,139.594832 177.6342,139.762927 178.0666,139.762927 C178.952021,139.762927 179.672591,139.072219 179.696364,138.211365 L179.69697,138.167448 L179.69697,118.087097 C179.69697,117.205939 178.967029,116.491619 178.0666,116.491619 Z" id="path-9"></path>
        <filter x="-66.2%" y="-80.4%" width="232.4%" height="292.2%" filterUnits="objectBoundingBox" id="filter-10">
            <feOffset dx="0" dy="16" in="SourceAlpha" result="shadowOffsetOuter1"></feOffset>
            <feGaussianBlur stdDeviation="30" in="shadowOffsetOuter1" result="shadowBlurOuter1"></feGaussianBlur>
            <feColorMatrix values="0 0 0 0 0   0 0 0 0 0   0 0 0 0 0  0 0 0 0.1 0" type="matrix" in="shadowBlurOuter1"></feColorMatrix>
        </filter>
    </defs>
    <g id="v2" stroke="none" stroke-width="1" fill="none" fill-rule="evenodd">
        <g id="centered" transform="translate(-94.000000, -1168.000000)">
            <g id="empower" transform="translate(94.000000, 1168.000000)">
                <g id="Group-2">
                    <g>
                        <g id="rocket" transform="translate(278.615000, 111.000000)">
                            <path d="M47.232447,3.20884568 L75.134481,30.7531612 C79.4685063,35.0316221 79.4685063,41.9683779 75.134481,46.2468388 L47.232447,73.7911543 C42.8984217,78.0696152 35.8715783,78.0696152 31.537553,73.7911543 L3.635519,46.2468388 C-0.698506333,41.9683779 -0.698506333,35.0316221 3.635519,30.7531612 L31.537553,3.20884568 C35.8715783,-1.06961523 42.8984217,-1.06961523 47.232447,3.20884568 Z" id="Rectangle" fill="url(#linearGradient-1)"></path>
                            <g id="icon---rocket" transform="translate(13.385000, 13.000000)" fill="#FFFFFF" fill-rule="nonzero">
                                <path d="M29.2566942,34.156775 C29.9272007,34.156775 30.5227192,34.5769617 30.7358769,35.2004585 C31.5875517,37.6916492 30.8534644,40.1241263 28.6996037,42.3038633 C27.2993518,43.713941 25.0218128,43.7008954 23.6187889,42.25047 L23.2715276,41.8752023 C21.3762555,39.736469 20.7636563,37.4430759 21.5958372,35.1698381 C21.8183106,34.5621158 22.4058162,34.156775 23.0641825,34.156775 L29.2566942,34.156775 Z M27.9589263,37.2170063 L24.3557262,37.2170063 C24.3699027,38.0431599 24.7694357,38.9006319 25.6035409,39.8422918 L25.9048905,40.1679844 C26.0650372,40.3334828 26.29937,40.3348251 26.4616339,40.1714293 C27.4820661,39.1387345 27.9587822,38.1800318 27.9589263,37.2170063 Z M28.3402361,8.35349453 C28.6043018,8.55062547 28.8393487,8.78345396 29.0388517,9.04506134 C31.274237,11.9763125 32.8342138,17.1090499 33.3060987,21.943917 C37.2420408,24.3960135 38.8959152,27.6381144 37.9793636,31.4567485 C37.7674556,32.3396221 36.8234572,32.8489414 35.949693,32.5518248 C34.8314674,32.1715809 33.7162704,31.8918575 32.6032991,31.7120425 C32.360955,32.2639012 31.8029331,32.636251 31.1705428,32.636251 L21.1524004,32.636251 C20.5330866,32.636251 19.984231,32.278964 19.7343288,31.7444018 C18.6863009,31.9232415 17.633399,32.192355 16.576266,32.5518248 C15.7025019,32.8489414 14.7585035,32.3396221 14.5465955,31.4567485 C13.6437522,27.6952274 15.2367261,24.4877448 19.0512017,22.0482049 C19.5465536,17.5475254 20.9664262,12.6363728 22.9369701,9.71763937 L23.3471781,9.12855646 C24.5006299,7.52063566 26.7487974,7.16545023 28.3402361,8.35349453 Z M25.9116544,10.871692 L25.5263217,11.4250351 C23.794099,13.9910022 22.4535988,18.8437588 22.0839395,23.0801503 C22.0408348,23.5741412 21.7563568,24.0170287 21.3206614,24.2684542 C18.8300176,25.7057229 17.5866888,27.2775285 17.43929,29.1019173 C18.5523171,28.8208648 19.6657571,28.6260205 20.7781486,28.5182272 C21.5188951,28.4464472 22.1978486,28.8965555 22.4180407,29.5760197 L29.8866514,29.5760197 C30.0970137,28.8892402 30.7749364,28.4278339 31.5206127,28.4937862 C32.7110109,28.5990725 33.8998014,28.8018753 35.0863579,29.1017173 C34.9352871,27.2387001 33.6414527,25.6372413 31.0429412,24.1782159 C30.5919463,23.924989 30.299118,23.4681435 30.2619432,22.9597704 C29.9308795,18.4323987 28.4779007,13.4188735 26.5401934,10.8779661 C26.5136833,10.8432036 26.4833851,10.8131913 26.4504087,10.7885737 C26.2736982,10.6566554 26.0395675,10.6936454 25.9116544,10.871692 Z"></path>
                            </g>
                        </g>
                        <g id="box" transform="translate(56.000000, 89.000000)" fill-rule="nonzero">
                            <path d="M60.6614378,4.16733205 L96.7909946,39.9391704 C102.403002,45.4956132 102.403002,54.5043868 96.7909946,60.0608296 L60.6614378,95.832668 C55.0494307,101.389111 45.9505693,101.389111 40.3385622,95.832668 L4.20900537,60.0608296 C-1.40300179,54.5043868 -1.40300179,45.4956132 4.20900537,39.9391704 L40.3385622,4.16733205 C45.9505693,-1.38911068 55.0494307,-1.38911068 60.6614378,4.16733205 Z" id="Rectangle" fill="url(#linearGradient-2)"></path>
                            <g id="icon---box" transform="translate(26.347826, 22.826087)" fill="#FFFFFF">
                                <path d="M42.29375,40 C42.29375,41.0355339 41.4458892,41.875 40.4,41.875 L10.1,41.875 C9.05411076,41.875 8.20625,41.0355339 8.20625,40 L8.20815591,19.8735824 L8.20815591,19.8735824 L8.24089095,19.6349534 L8.24089095,19.6349534 L8.28979259,19.4475408 L8.28979259,19.4475408 L8.3262939,19.3416027 L8.40617851,19.1614745 L13.4561785,9.16147451 C13.7368664,8.60565696 14.2740001,8.22896933 14.8844324,8.14348207 L15.15,8.125 L35.35,8.125 C35.9776371,8.125 36.5581395,8.43221044 36.9083599,8.93456086 L37.0438215,9.16147451 L42.1641082,19.3168066 L42.1641082,19.3168066 L42.2395656,19.5528536 L42.2395656,19.5528536 C42.2677859,19.6608478 42.2846113,19.7681809 42.2919305,19.8748357 L42.29375,40 Z M38.50625,21.875 L11.99375,21.875 L11.99375,38.125 L38.50625,38.125 L38.50625,21.875 Z M34.1795981,11.875 L16.3204019,11.875 L13.1641519,18.125 L37.3358481,18.125 L34.1795981,11.875 Z"></path>
                            </g>
                        </g>
                        <path d="M15.6158157,1.04855452 L24.9164937,10.0492106 C26.3611688,11.4472833 26.3611688,13.714007 24.9164937,15.1120797 L15.6158157,24.1127358 C14.1711406,25.5108085 11.8288594,25.5108085 10.3841843,24.1127358 L1.08350633,15.1120797 C-0.361168778,13.714007 -0.361168778,11.4472833 1.08350633,10.0492106 L10.3841843,1.04855452 C11.8288594,-0.349518172 14.1711406,-0.349518172 15.6158157,1.04855452 Z" id="Rectangle" fill="url(#linearGradient-3)" fill-rule="nonzero" opacity="0.569893973"></path>
                        <path d="M115.631023,12.4438768 L133.874661,30.0990099 C136.708446,32.8413833 136.708446,37.287649 133.874661,40.0300223 L115.631023,57.6851555 C112.797237,60.4275288 108.202763,60.4275288 105.368977,57.6851555 L87.1253393,40.0300223 C84.2915536,37.287649 84.2915536,32.8413833 87.1253393,30.0990099 L105.368977,12.4438768 C108.202763,9.70150344 112.797237,9.70150344 115.631023,12.4438768 Z" id="Rectangle" fill="url(#linearGradient-4)" fill-rule="nonzero" opacity="0.553920201"></path>
                        <g id="star" transform="translate(123.000000, 276.000000)">
                            <path d="M39.0395392,2.66709251 L62.2912342,25.5610691 C65.9029219,29.1171924 65.9029219,34.8828076 62.2912342,38.4389309 L39.0395392,61.3329075 C35.4278514,64.8890308 29.5721486,64.8890308 25.9604608,61.3329075 L2.70876583,38.4389309 C-0.902921944,34.8828076 -0.902921944,29.1171924 2.70876583,25.5610691 L25.9604608,2.66709251 C29.5721486,-0.889030837 35.4278514,-0.889030837 39.0395392,2.66709251 Z" id="Rectangle" fill="url(#linearGradient-5)"></path>
                            <g id="icon---star" transform="translate(16.525424, 14.101695)" fill="#FFFFFF" fill-rule="nonzero">
                                <path d="M15.7989356,24.070812 L11.0672177,26.5201524 C10.3041425,26.9151528 9.36033343,26.6262862 8.95916107,25.8749506 C8.79941213,25.5757649 8.74428674,25.2330714 8.80231894,24.8999232 L9.70599663,19.7121371 C9.79284618,19.2135557 9.62496546,18.704821 9.2570649,18.3517237 L5.42902473,14.6777132 C4.81168395,14.0852125 4.79905205,13.1121414 5.40081059,12.5042982 C5.64043399,12.2622518 5.95441268,12.1047329 6.29413908,12.0561273 L11.5843605,11.2992395 C12.0927866,11.2264974 12.532304,10.9120821 12.759679,10.4584578 L15.125538,5.73845404 C15.5070755,4.97726799 16.4430777,4.66474367 17.2161573,5.04041145 C17.5240016,5.19000433 17.7731765,5.43534576 17.9251068,5.73845404 L20.2909657,10.4584578 C20.5183408,10.9120821 20.9578582,11.2264974 21.4662843,11.2992395 L26.7565057,12.0561273 C27.6096496,12.1781891 28.2007627,12.9581095 28.0767936,13.7981282 C28.0274285,14.132628 27.8674484,14.4417763 27.62162,14.6777132 L23.7935799,18.3517237 C23.4256793,18.704821 23.2577986,19.2135557 23.3446481,19.7121371 L24.2483258,24.8999232 C24.3940602,25.7365476 23.823386,26.5310892 22.9736893,26.6745815 C22.6353356,26.7317209 22.2872876,26.6774436 21.983427,26.5201524 L17.2517092,24.070812 C16.7969591,23.8354138 16.2536857,23.8354138 15.7989356,24.070812 Z M14.7093553,22.030192 C15.8462306,21.4416965 17.2044141,21.4416965 18.3412894,22.030192 L21.6732228,23.7549438 L21.0368802,20.1018608 C20.8197563,18.8554074 21.2394581,17.5835706 22.1592095,16.7008274 L24.8548003,14.1136997 L21.1295855,13.580722 C19.8585203,13.3988669 18.7597267,12.6128286 18.1912891,11.4787678 L16.5253224,8.15508309 L14.8593557,11.4787678 C14.290918,12.6128286 13.1921245,13.3988669 11.9210593,13.580722 L8.19584445,14.1136997 L10.8914352,16.7008274 C11.8111866,17.5835706 12.2308884,18.8554074 12.0137646,20.1018608 L11.3774219,23.7549438 L14.7093553,22.030192 Z"></path>
                            </g>
                        </g>
                        <g id="ecommerce" transform="translate(163.000000, 346.000000)">
                            <path d="M81.5723836,5.54255162 L129.829748,53.1190967 C137.325568,60.5091655 137.325568,72.4908345 129.829748,79.8809033 L81.5723836,127.457448 C74.0765631,134.847517 61.9234369,134.847517 54.4276164,127.457448 L6.17025246,79.8809033 C-1.32556802,72.4908345 -1.32556802,60.5091655 6.17025246,53.1190967 L54.4276164,5.54255162 C61.9234369,-1.84751721 74.0765631,-1.84751721 81.5723836,5.54255162 Z" id="Rectangle" fill="url(#linearGradient-6)"></path>
                            <g id="icon---cart" transform="translate(35.645161, 34.601626)" fill="#FFFFFF" fill-rule="nonzero">
                                <path d="M12.5395249,17.2668385 L10.4627423,17.2668385 C9.22731675,17.2668385 8.22580645,16.3067352 8.22580645,15.1223878 C8.22580645,13.9380404 9.22731675,12.9779372 10.4627423,12.9779372 L13.4453235,12.9779372 C13.4563647,12.9779372 13.4673872,12.9780138 13.4783905,12.9781667 L14.9682934,12.9781667 C17.0484125,12.9568763 20.3373691,12.98936 20.6398315,16.4011751 L21.305292,19.1687138 L50.3738154,19.1687138 C51.3364466,19.148013 52.2732721,19.4695061 53.0054091,20.0718054 C54.1071169,21.0010624 54.5495467,22.4611762 54.1397167,23.8152657 L49.3756247,39.4882744 C48.908276,41.0316752 47.4453286,42.0972766 45.7760885,42.1101532 L23.5436591,42.1101532 C21.6704461,42.1011082 20.0841169,40.7774353 19.808006,38.9930306 C17.7091072,27.4101034 16.5272429,21.1211285 16.2624129,20.126106 C15.865168,18.6335721 14.5886288,17.2691711 12.5395249,17.2668385 Z M21.6985187,23.5385118 L24.3149882,37.0994515 C24.3611345,37.4672174 24.686568,37.7430309 25.0711933,37.7403745 L44.3052605,37.7403745 C44.6413516,37.7403745 44.9371118,37.5267206 45.0312173,37.2159794 L48.2375269,24.4707354 C48.3041728,24.2506672 48.2593467,24.0132218 48.1165341,23.8298317 C47.9737214,23.6464415 47.7495911,23.5385118 47.51157,23.5385118 L21.6985187,23.5385118 Z M26.3113697,51.5780488 C24.223167,51.5780488 22.5303443,49.9476945 22.5303443,47.9365505 C22.5303443,45.9254065 24.223167,44.2950522 26.3113697,44.2950522 C28.3995723,44.2950522 30.0923951,45.9254065 30.0923951,47.9365505 C30.0923951,48.9023359 29.6940382,49.8285652 28.9849584,50.5114786 C28.2758786,51.194392 27.31416,51.5780488 26.3113697,51.5780488 Z M39.3072942,47.9365505 C39.3072942,45.9254065 41.0001169,44.2950522 43.0883196,44.2950522 C45.1765222,44.2950522 46.869345,45.9254065 46.869345,47.9365505 C46.869345,48.9023359 46.4709881,49.8285652 45.7619083,50.5114786 C45.0528285,51.194392 44.0911099,51.5780488 43.0883196,51.5780488 C41.0001169,51.5780488 39.3072942,49.9476945 39.3072942,47.9365505 Z"></path>
                            </g>
                        </g>
                        <g id="tick" transform="translate(159.000000, 154.000000)">
                            <path d="M73.8748203,5.04050374 L117.874182,48.2959374 C124.708606,55.0148076 124.708606,65.9082486 117.874182,72.6271188 L73.8748203,115.882552 C67.0403958,122.601423 55.9596042,122.601423 49.1251797,115.882552 L5.12581842,72.6271188 C-1.70860614,65.9082486 -1.70860614,55.0148076 5.12581842,48.2959374 L49.1251797,5.04050374 C55.9596042,-1.67836648 67.0403958,-1.67836648 73.8748203,5.04050374 Z" id="Rectangle" fill="url(#linearGradient-7)"></path>
                            <g id="icon---tick" transform="translate(32.946429, 31.311086)" fill="#FFFFFF" fill-rule="nonzero">
                                <path d="M20.75625,39.6031686 L10.9922336,30.0042392 C9.83425933,28.8658436 7.9568121,28.8658436 6.79883784,30.0042392 C5.64086358,31.1426348 5.64086358,32.9883387 6.79883784,34.1267343 L18.6595521,45.7869113 C19.8175264,46.9253069 21.6949736,46.9253069 22.8529479,45.7869113 L52.5047336,16.6364688 C53.6627079,15.4980732 53.6627079,13.6523693 52.5047336,12.5139737 C51.3467593,11.3755781 49.4693121,11.3755781 48.3113378,12.5139737 L20.75625,39.6031686 Z"></path>
                            </g>
                        </g>
                        <g id="prov" transform="translate(286.000000, 151.595338)">
                            <path d="M196.999521,13.8651447 L314.331151,129.408183 C332.556283,147.355493 332.556283,176.453832 314.331151,194.401142 L196.999521,309.94418 C178.774389,327.89149 149.225611,327.89149 131.000479,309.94418 L13.6688491,194.401142 C-4.55628304,176.453832 -4.55628304,147.355493 13.6688491,129.408183 L131.000479,13.8651447 C149.225611,-4.08216535 178.774389,-4.08216535 196.999521,13.8651447 Z" id="Rectangle" fill="url(#linearGradient-8)"></path>
                            <g id="Shape" fill-rule="nonzero">
                                <use fill="black" fill-opacity="1" filter="url(#filter-10)" xlink:href="#path-9"></use>
                                <use fill="#FFFFFF" xlink:href="#path-9"></use>
                            </g>
                        </g>
                    </g>
                </g>
            </g>
        </g>
    </g>
</svg>