<?xml version="1.0" encoding="UTF-8"?>
<svg width="1440px" height="1226px" viewBox="0 0 1440 1226" version="1.1" xmlns="http://www.w3.org/2000/svg" xmlns:xlink="http://www.w3.org/1999/xlink">
    <defs>
        <linearGradient x1="50%" y1="0%" x2="50%" y2="98.9284206%" id="linearGradient-1">
            <stop stop-color="#7254B7" offset="0%"></stop>
            <stop stop-color="#4D459C" offset="100%"></stop>
        </linearGradient>
        <linearGradient x1="50%" y1="14.1742546%" x2="50%" y2="146.66216%" id="linearGradient-2">
            <stop stop-color="#545FE4" offset="0%"></stop>
            <stop stop-color="#4252A6" offset="100%"></stop>
        </linearGradient>
        <linearGradient x1="50%" y1="0%" x2="50%" y2="100%" id="linearGradient-3">
            <stop stop-color="#E9ECF4" offset="0%"></stop>
            <stop stop-color="#DBE0F6" offset="100%"></stop>
        </linearGradient>
    </defs>
    <g id="v2" stroke="none" stroke-width="1" fill="none" fill-rule="evenodd">
        <g id="centered" transform="translate(0.000000, -5256.000000)">
            <g id="reviews" transform="translate(-130.000000, 5256.000000)">
                <g id="Group-2">
                    <g transform="translate(130.000000, 0.000000)">
                        <path d="M731.945908,1121.425 C320.41111,1121.425 197.744657,1222.89446 0,1225.28125 L0,0 L1440,0.28125 L1440,1121.28125 C1282.67892,1121.28125 1046.66089,1121.32917 731.945908,1121.425 Z" id="Path" fill="#F4F6F8" transform="translate(720.000000, 612.640625) scale(1, -1) translate(-720.000000, -612.640625) "></path>
                        <path d="M1370.7073,66.5000798 L1374.99992,70.7927005 C1375.66669,71.4594736 1375.66669,72.5405264 1374.99992,73.2072995 L1370.7073,77.4999202 C1370.04053,78.1666933 1368.95947,78.1666933 1368.2927,77.4999202 L1364.00008,73.2072995 C1363.33331,72.5405264 1363.33331,71.4594736 1364.00008,70.7927005 L1368.2927,66.5000798 C1368.95947,65.8333067 1370.04053,65.8333067 1370.7073,66.5000798 Z" id="Rectangle" fill="url(#linearGradient-1)" fill-rule="nonzero" opacity="0.113630022"></path>
                        <path d="M1343.61277,0.87513973 L1351.12486,8.38722579 C1352.29171,9.55407877 1352.29171,11.4459212 1351.12486,12.6127742 L1343.61277,20.1248603 C1342.44592,21.2917132 1340.55408,21.2917132 1339.38723,20.1248603 L1331.87514,12.6127742 C1330.70829,11.4459212 1330.70829,9.55407877 1331.87514,8.38722579 L1339.38723,0.87513973 C1340.55408,-0.291713243 1342.44592,-0.291713243 1343.61277,0.87513973 Z" id="Rectangle" fill="url(#linearGradient-2)" fill-rule="nonzero" opacity="0.256998698"></path>
                        <path d="M1315.84745,77.250519 L1343.74948,105.152553 C1348.08351,109.486578 1348.08351,116.513422 1343.74948,120.847447 L1315.84745,148.749481 C1311.51342,153.083506 1304.48658,153.083506 1300.15255,148.749481 L1272.25052,120.847447 C1267.91649,116.513422 1267.91649,109.486578 1272.25052,105.152553 L1300.15255,77.250519 C1304.48658,72.9164937 1311.51342,72.9164937 1315.84745,77.250519 Z" id="Rectangle" fill="url(#linearGradient-3)" fill-rule="nonzero"></path>
                        <path d="M59.0152074,51.041833 L67.958167,59.9847926 C69.3472777,61.3739033 69.3472777,63.6260967 67.958167,65.0152074 L59.0152074,73.958167 C57.6260967,75.3472777 55.3739033,75.3472777 53.9847926,73.958167 L45.041833,65.0152074 C43.6527223,63.6260967 43.6527223,61.3739033 45.041833,59.9847926 L53.9847926,51.041833 C55.3739033,49.6527223 57.6260967,49.6527223 59.0152074,51.041833 Z" id="Rectangle" fill="url(#linearGradient-2)" fill-rule="nonzero" opacity="0.105724516"></path>
                        <path d="M34.8109493,218.75012 L41.2498802,225.189051 C42.2500399,226.18921 42.2500399,227.81079 41.2498802,228.810949 L34.8109493,235.24988 C33.8107896,236.25004 32.1892104,236.25004 31.1890507,235.24988 L24.7501198,228.810949 C23.7499601,227.81079 23.7499601,226.18921 24.7501198,225.189051 L31.1890507,218.75012 C32.1892104,217.74996 33.8107896,217.74996 34.8109493,218.75012 Z" id="Rectangle" fill="url(#linearGradient-2)" fill-rule="nonzero" opacity="0.366396949"></path>
                        <path d="M1607.9078,151.0867 L1788.9133,332.092202 C1817.0289,360.207803 1817.0289,405.792197 1788.9133,433.907798 L1607.9078,614.9133 C1579.7922,643.0289 1534.2078,643.0289 1506.0922,614.9133 L1325.0867,433.907798 C1296.9711,405.792197 1296.9711,360.207803 1325.0867,332.092202 L1506.0922,151.0867 C1534.2078,122.9711 1579.7922,122.9711 1607.9078,151.0867 Z" id="Rectangle" fill="url(#linearGradient-2)" fill-rule="nonzero" opacity="0.029249"></path>
                        <path d="M85.4419724,123.375459 L110.124541,148.058028 C113.958486,151.891973 113.958486,158.108027 110.124541,161.941972 L85.4419724,186.624541 C81.6080269,190.458486 75.3919731,190.458486 71.5580276,186.624541 L46.8754591,161.941972 C43.0415136,158.108027 43.0415136,151.891973 46.8754591,148.058028 L71.5580276,123.375459 C75.3919731,119.541514 81.6080269,119.541514 85.4419724,123.375459 Z" id="Rectangle" fill="url(#linearGradient-1)" fill-rule="nonzero" opacity="0.0609188988"></path>
                    </g>
                </g>
            </g>
        </g>
    </g>
</svg>