<?xml version="1.0" encoding="UTF-8"?>
<svg width="12px" height="13px" viewBox="0 0 12 13" version="1.1" xmlns="http://www.w3.org/2000/svg" xmlns:xlink="http://www.w3.org/1999/xlink">
    <!-- Generator: Sketch 60.1 (88133) - https://sketch.com -->
    <title>icon - search</title>
    <desc>Created with Sketch.</desc>
    <g id="nav-menu" stroke="none" stroke-width="1" fill="none" fill-rule="evenodd">
        <g id="nav-menu---expanded" transform="translate(-55.000000, -492.000000)" fill="#FFFFFF" fill-rule="nonzero">
            <g id="fld" transform="translate(40.000000, 480.000000)">
                <g id="icon---search" transform="translate(11.000000, 8.500000)">
                    <path d="M11.9654364,13.0260966 C11.1357762,13.6382069 10.1101388,14 9,14 C6.23857625,14 4,11.7614237 4,9 C4,6.23857625 6.23857625,4 9,4 C11.7614237,4 14,6.23857625 14,9 C14,10.1101388 13.6382069,11.1357762 13.0260966,11.9654364 L15.5303301,14.4696699 C15.8232233,14.7625631 15.8232233,15.2374369 15.5303301,15.5303301 C15.2374369,15.8232233 14.7625631,15.8232233 14.4696699,15.5303301 L11.9654364,13.0260966 L11.9654364,13.0260966 Z M11.5416713,11.4062344 C12.1356774,10.7790077 12.5,9.93204989 12.5,9 C12.5,7.06700338 10.9329966,5.5 9,5.5 C7.06700338,5.5 5.5,7.06700338 5.5,9 C5.5,10.9329966 7.06700338,12.5 9,12.5 C9.93204989,12.5 10.7790077,12.1356774 11.4062344,11.5416713 C11.4255825,11.5166709 11.4467277,11.4926121 11.4696699,11.4696699 C11.4926121,11.4467277 11.5166709,11.4255825 11.5416713,11.4062344 L11.5416713,11.4062344 Z"></path>
                </g>
            </g>
        </g>
    </g>
</svg>