<?xml version="1.0" encoding="UTF-8"?>
<svg width="60px" height="60px" viewBox="0 0 60 60" version="1.1" xmlns="http://www.w3.org/2000/svg" xmlns:xlink="http://www.w3.org/1999/xlink">
    <!-- Generator: Sketch 60.1 (88133) - https://sketch.com -->
    <title>Group 12</title>
    <desc>Created with Sketch.</desc>
    <g id="superpowers" stroke="none" stroke-width="1" fill="none" fill-rule="evenodd">
        <g transform="translate(-870.000000, -594.000000)" fill="#5C6AC4" fill-rule="nonzero" id="superpower-card">
            <g transform="translate(740.000000, 551.000000)">
                <g id="Group-12" transform="translate(130.000000, 43.000000)">
                    <circle id="Oval" opacity="0.15077008" cx="30" cy="30" r="30"></circle>
                    <g id="icon---rocket" transform="translate(13.000000, 13.000000)">
                        <path d="M19.129377,22.7711833 C19.5677851,22.7711833 19.9571626,23.0513078 20.0965349,23.4669723 C20.6533992,25.1277662 20.173419,26.7494175 18.7651255,28.2025755 C17.8495762,29.1426273 16.3604161,29.1339303 15.4430543,28.16698 L15.2159988,27.9168016 C13.9767824,26.4909793 13.5762368,24.9620506 14.1203551,23.4465587 C14.2658185,23.0414106 14.6499568,22.7711833 15.080427,22.7711833 L19.129377,22.7711833 Z M18.2808364,24.8113375 L15.9248979,24.8113375 C15.9341672,25.3621066 16.1954003,25.9337546 16.7407767,26.5615278 L16.937813,26.7786562 C17.0425243,26.8889886 17.1957419,26.8898834 17.3018375,26.7809529 C17.9690432,26.0924897 18.2807422,25.4533545 18.2808364,24.8113375 Z M18.5301544,5.56899635 C18.7028127,5.70041698 18.8564973,5.85563597 18.9869415,6.03004089 C20.4485396,7.98420833 21.4685244,11.4060333 21.7770645,14.629278 C24.3505652,16.264009 25.4319445,18.4254096 24.8326608,20.9711657 C24.6941056,21.5597481 24.0768758,21.8992942 23.5055685,21.7012165 C22.774421,21.4477206 22.0452537,21.2612384 21.3175417,21.1413617 C21.159086,21.5092675 20.7942255,21.7575006 20.3807395,21.7575006 L13.8304157,21.7575006 C13.4254797,21.7575006 13.0666126,21.5193094 12.903215,21.1629346 C12.2179659,21.282161 11.5295301,21.46157 10.8383278,21.7012165 C10.2670205,21.8992942 9.64979074,21.5597481 9.51123549,20.9711657 C8.9209149,18.463485 9.96247479,16.3251632 12.456555,14.6988033 C12.7804389,11.6983503 13.7088171,8.42424856 14.9972497,6.47842625 L15.2654626,6.08570431 C16.0196427,5.01375711 17.4895983,4.77696682 18.5301544,5.56899635 Z M16.9422356,7.24779464 L16.6902872,7.61669005 C15.5576801,9.3273348 14.6811992,12.5625059 14.4394989,15.3867669 C14.4113151,15.7160942 14.2253102,16.0113525 13.9404325,16.1789695 C12.3119346,17.1371486 11.4989888,18.185019 11.4026127,19.4012782 C12.1303612,19.2139098 12.8583796,19.0840137 13.5857126,19.0121515 C14.0700468,18.9642982 14.5139779,19.2643703 14.6579497,19.7173464 L19.541272,19.7173464 C19.6788167,19.2594935 20.1220738,18.9518893 20.6096314,18.9958575 C21.3879687,19.0660483 22.1652547,19.2012502 22.9410801,19.4011449 C22.8423031,18.1591334 21.9963344,17.0914942 20.2973077,16.1188106 C20.0024265,15.9499926 19.8109618,15.645429 19.7866552,15.3065136 C19.5701905,12.2882658 18.6201658,8.94591564 17.3532034,7.25197739 C17.3358699,7.2288024 17.3160595,7.20879419 17.294498,7.19238246 C17.1789565,7.10443693 17.0258711,7.12909695 16.9422356,7.24779464 Z"></path>
                    </g>
                </g>
            </g>
        </g>
    </g>
</svg>