<?xml version="1.0" encoding="UTF-8"?>
<svg width="60px" height="60px" viewBox="0 0 60 60" version="1.1" xmlns="http://www.w3.org/2000/svg" xmlns:xlink="http://www.w3.org/1999/xlink">
    <!-- Generator: Sketch 60.1 (88133) - https://sketch.com -->
    <title>Group 20</title>
    <desc>Created with Sketch.</desc>
    <g id="superpowers" stroke="none" stroke-width="1" fill="none" fill-rule="evenodd">
        <g transform="translate(-1920.000000, -594.000000)" fill="#5C6AC4" fill-rule="nonzero" id="superpower-card">
            <g transform="translate(1790.000000, 551.000000)">
                <g id="Group-20" transform="translate(130.000000, 43.000000)">
                    <circle id="Oval" opacity="0.15077008" cx="30" cy="30" r="30"></circle>
                    <g id="icon---speech" transform="translate(13.000000, 13.000000)">
                        <path d="M8.58139908,22.0797013 C6.39060913,20.4392003 5.1,18.1895029 5.1,15.7414274 C5.1,10.6991302 10.4960726,6.8 17,6.8 C23.5039274,6.8 28.9,10.6991302 28.9,15.7414274 C28.9,20.7837246 23.5039274,24.6828548 17,24.6828548 C16.2782719,24.6828548 15.5645328,24.6350065 14.8649205,24.5406602 L9.45362163,27.3000504 C8.59652723,27.7371096 7.62160156,26.9774696 7.80944069,26.0189418 L8.58139908,22.0797013 Z M14.1574566,22.2746504 C14.3715956,22.1654542 14.6137712,22.1270521 14.8502989,22.1647853 C15.5498582,22.276386 16.2694045,22.3332826 17,22.3332826 C22.3684132,22.3332826 26.5967742,19.2779253 26.5967742,15.7414274 C26.5967742,12.2049295 22.3684132,9.14957216 17,9.14957216 C11.6315868,9.14957216 7.40322581,12.2049295 7.40322581,15.7414274 C7.40322581,17.5508264 8.50695978,19.2890609 10.4739707,20.5530369 C10.8779935,20.8126568 11.0830524,21.2996921 10.9894481,21.7773473 L10.5294491,24.1246847 L14.1574566,22.2746504 Z"></path>
                    </g>
                </g>
            </g>
        </g>
    </g>
</svg>