<?xml version="1.0" encoding="UTF-8"?>
<svg width="60px" height="60px" viewBox="0 0 60 60" version="1.1" xmlns="http://www.w3.org/2000/svg" xmlns:xlink="http://www.w3.org/1999/xlink">
    <!-- Generator: Sketch 60.1 (88133) - https://sketch.com -->
    <title>Group 14</title>
    <desc>Created with Sketch.</desc>
    <g id="superpowers" stroke="none" stroke-width="1" fill="none" fill-rule="evenodd">
        <g transform="translate(-1570.000000, -594.000000)" fill="#C65BB7" id="superpower-card">
            <g transform="translate(1440.000000, 551.000000)">
                <g id="Group-14" transform="translate(130.000000, 43.000000)">
                    <circle id="Oval" opacity="0.151902" cx="30" cy="30" r="30"></circle>
                    <g id="icon---share" transform="translate(13.000000, 13.000000)">
                        <path d="M12.75,13.175 C13.4541631,13.175 14.025,13.7458369 14.025,14.45 C14.025,15.0954828 13.5453384,15.6289346 12.9230099,15.7133608 L12.75,15.725 L9.91666667,15.725 C9.85409885,15.725 9.80569526,15.757166 9.78540395,15.7980236 L9.775,15.8409091 L9.775,28.3590909 C9.775,28.4031348 9.80776164,28.4463117 9.85933685,28.4651474 L9.91666667,28.475 L24.0833333,28.475 C24.1459011,28.475 24.1943047,28.442834 24.214596,28.4019764 L24.225,28.3590909 L24.225,15.8409091 C24.225,15.7968652 24.1922384,15.7536883 24.1406631,15.7348526 L24.0833333,15.725 L21.25,15.725 C20.5458369,15.725 19.975,15.1541631 19.975,14.45 C19.975,13.8045172 20.4546616,13.2710654 21.0769901,13.1866392 L21.25,13.175 L24.0833333,13.175 C25.4824173,13.175 26.6396873,14.2349151 26.7639547,15.5974706 L26.775,15.8409091 L26.775,28.3590909 C26.775,29.7546309 25.6954569,30.892076 24.3275593,31.0141516 L24.0833333,31.025 L9.91666667,31.025 C8.51758269,31.025 7.36031269,29.9650849 7.23604529,28.6025294 L7.225,28.3590909 L7.225,15.8409091 C7.225,14.4453691 8.30454312,13.307924 9.67244071,13.1858484 L9.91666667,13.175 L12.75,13.175 Z M16.2414402,3.64998799 C16.6851198,3.3207857 17.2940843,3.31672147 17.741845,3.63779532 L17.9015611,3.77343885 L23.0015611,8.87343885 L23.125012,9.01644019 C23.4542143,9.46011978 23.4582785,10.0690843 23.1372047,10.516845 L23.0015611,10.6765611 L22.8585598,10.800012 C22.4148802,11.1292143 21.8059157,11.1332785 21.358155,10.8122047 L21.1984389,10.6765611 L18.275,7.7537 L18.275,18.275 L18.2633608,18.4480099 C18.1866097,19.0137631 17.7387631,19.4616097 17.1730099,19.5383608 L17,19.55 L16.8269901,19.5383608 L16.6610545,19.5044558 C16.1813745,19.3725107 15.8148603,18.9673592 15.7393347,18.4668244 L15.725,18.275 L15.725,7.7537 L12.8015611,10.6765611 L12.6585598,10.800012 C12.1594203,11.1703646 11.451092,11.1292143 10.9984389,10.6765611 C10.5457857,10.223908 10.5046354,9.51557973 10.874988,9.01644019 L10.9984389,8.87343885 L16.0984389,3.77343885 L16.2414402,3.64998799 Z"></path>
                    </g>
                </g>
            </g>
        </g>
    </g>
</svg>