<?xml version="1.0" encoding="UTF-8"?>
<svg width="60px" height="60px" viewBox="0 0 60 60" version="1.1" xmlns="http://www.w3.org/2000/svg" xmlns:xlink="http://www.w3.org/1999/xlink">
    <!-- Generator: Sketch 60.1 (88133) - https://sketch.com -->
    <title>Group 11</title>
    <desc>Created with Sketch.</desc>
    <g id="superpowers" stroke="none" stroke-width="1" fill="none" fill-rule="evenodd">
        <g transform="translate(-520.000000, -594.000000)" fill="#C65BB7" id="superpower-card">
            <g transform="translate(390.000000, 551.000000)">
                <g id="Group-11" transform="translate(130.000000, 43.000000)">
                    <circle id="Oval" opacity="0.151902" cx="30" cy="30" r="30"></circle>
                    <g id="icon---search" transform="translate(13.000000, 13.000000)">
                        <path d="M14.8962229,5.1 C20.3065274,5.1 24.6924458,9.48591838 24.6924458,14.8962229 C24.6924458,17.1404126 23.9378119,19.2083482 22.6684557,20.8601182 L28.5257504,26.7187132 C29.0247499,27.2177128 29.0247499,28.0267508 28.5257504,28.5257504 C28.0721144,28.9793863 27.3622483,29.0206259 26.8620251,28.6494692 L26.7187132,28.5257504 L20.8601182,22.6684557 C19.2083482,23.9378119 17.1404126,24.6924458 14.8962229,24.6924458 C9.48591838,24.6924458 5.1,20.3065274 5.1,14.8962229 C5.1,9.48591838 9.48591838,5.1 14.8962229,5.1 Z M14.875,7.65 C10.8847427,7.65 7.65,10.8847427 7.65,14.875 C7.65,18.8652573 10.8847427,22.1 14.875,22.1 C18.8652573,22.1 22.1,18.8652573 22.1,14.875 C22.1,10.8847427 18.8652573,7.65 14.875,7.65 Z"></path>
                    </g>
                </g>
            </g>
        </g>
    </g>
</svg>