<?xml version="1.0" encoding="UTF-8"?>
<svg width="60px" height="60px" viewBox="0 0 60 60" version="1.1" xmlns="http://www.w3.org/2000/svg" xmlns:xlink="http://www.w3.org/1999/xlink">
    <!-- Generator: Sketch 60.1 (88133) - https://sketch.com -->
    <title>Group 3</title>
    <desc>Created with Sketch.</desc>
    <g id="superpowers" stroke="none" stroke-width="1" fill="none" fill-rule="evenodd">
        <g transform="translate(-1220.000000, -74.000000)" fill-rule="nonzero" id="superpower-card">
            <g transform="translate(1090.000000, 31.000000)">
                <g id="Group-3" transform="translate(130.000000, 43.000000)">
                    <circle id="Oval" fill="#47C1BF" opacity="0.150559" cx="30" cy="30" r="30"></circle>
                    <g id="icon---mobile-nav" transform="translate(13.000000, 13.000000)" fill="#10C1D6">
                        <path d="M27.625,22.1 C28.3291631,22.1 28.9,22.6708369 28.9,23.375 C28.9,24.0791631 28.3291631,24.65 27.625,24.65 L19.975,24.65 C19.2708369,24.65 18.7,24.0791631 18.7,23.375 C18.7,22.6708369 19.2708369,22.1 19.975,22.1 L27.625,22.1 Z M27.625,15.3 C28.3291631,15.3 28.9,15.8708369 28.9,16.575 C28.9,17.2791631 28.3291631,17.85 27.625,17.85 L13.175,17.85 C12.4708369,17.85 11.9,17.2791631 11.9,16.575 C11.9,15.8708369 12.4708369,15.3 13.175,15.3 L27.625,15.3 Z M27.625,8.5 C28.3291631,8.5 28.9,9.07083694 28.9,9.775 C28.9,10.4791631 28.3291631,11.05 27.625,11.05 L6.375,11.05 C5.67083694,11.05 5.1,10.4791631 5.1,9.775 C5.1,9.07083694 5.67083694,8.5 6.375,8.5 L27.625,8.5 Z" id="icon---list"></path>
                    </g>
                </g>
            </g>
        </g>
    </g>
</svg>