<?xml version="1.0" encoding="UTF-8"?>
<svg width="60px" height="60px" viewBox="0 0 60 60" version="1.1" xmlns="http://www.w3.org/2000/svg" xmlns:xlink="http://www.w3.org/1999/xlink">
    <!-- Generator: Sketch 60.1 (88133) - https://sketch.com -->
    <title>Group 13</title>
    <desc>Created with Sketch.</desc>
    <g id="superpowers" stroke="none" stroke-width="1" fill="none" fill-rule="evenodd">
        <g transform="translate(-1220.000000, -594.000000)" fill-rule="nonzero" id="superpower-card">
            <g transform="translate(1090.000000, 551.000000)">
                <g id="Group-13" transform="translate(130.000000, 43.000000)">
                    <circle id="Oval" fill="#47C1BF" opacity="0.150559" cx="30" cy="30" r="30"></circle>
                    <g id="icon---photo" transform="translate(13.000000, 13.000000)" fill="#10C1D6">
                        <path d="M27.2,7.65 C28.1388841,7.65 28.9,8.41111593 28.9,9.35 L28.9,24.65 C28.9,25.5888841 28.1388841,26.35 27.2,26.35 L6.8,26.35 C5.86111593,26.35 5.1,25.5888841 5.1,24.65 L5.1,9.35 C5.1,8.41111593 5.86111593,7.65 6.8,7.65 L27.2,7.65 Z M17.7984389,23.0015611 L11.9,17.1031223 L7.65210542,21.3484851 L7.65210542,21.3484851 L7.65,23.8 L25.3963,23.8 L22.1,20.5031223 L19.6015611,23.0015611 C19.148908,23.4542143 18.4405797,23.4953646 17.9414402,23.125012 L17.7984389,23.0015611 Z M26.35,10.2 L7.65,10.2 L7.65,17.7446 L10.9984389,14.3984389 C11.451092,13.9457857 12.1594203,13.9046354 12.6585598,14.274988 L12.8015611,14.3984389 L18.7,20.2968777 L21.1984389,17.7984389 C21.651092,17.3457857 22.3594203,17.3046354 22.8585598,17.674988 L23.0015611,17.7984389 L26.35,21.1463 L26.35,10.2 Z M22.95,11.9 C23.8888841,11.9 24.65,12.6611159 24.65,13.6 C24.65,14.5388841 23.8888841,15.3 22.95,15.3 C22.0111159,15.3 21.25,14.5388841 21.25,13.6 C21.25,12.6611159 22.0111159,11.9 22.95,11.9 Z"></path>
                    </g>
                </g>
            </g>
        </g>
    </g>
</svg>