<?xml version="1.0" encoding="UTF-8"?>
<svg width="60px" height="60px" viewBox="0 0 60 60" version="1.1" xmlns="http://www.w3.org/2000/svg" xmlns:xlink="http://www.w3.org/1999/xlink">
    <!-- Generator: Sketch 60.1 (88133) - https://sketch.com -->
    <title>Group 18</title>
    <desc>Created with Sketch.</desc>
    <g id="superpowers" stroke="none" stroke-width="1" fill="none" fill-rule="evenodd">
        <g transform="translate(-1920.000000, -74.000000)" fill="#5C6AC4" fill-rule="nonzero" id="superpower-card">
            <g transform="translate(1790.000000, 31.000000)">
                <g id="Group-18" transform="translate(130.000000, 43.000000)">
                    <circle id="Oval" opacity="0.15077008" cx="30" cy="30" r="30"></circle>
                    <g id="icon---cog" transform="translate(13.000000, 13.000000)">
                        <path d="M18.1297917,5.1 C19.0482644,5.1 19.8534847,5.71379019 20.0968666,6.59942979 L20.4863543,8.01683277 L20.8669426,8.17603856 L22.1670937,7.44164363 C22.964806,6.991053 23.9650648,7.12753713 24.6128985,7.77537076 L26.2167286,9.37920088 C26.8664936,10.0289659 27.0016423,11.0329494 26.5468259,11.8314048 L25.8131765,13.1193644 L25.968462,13.4992305 L25.968462,13.4992305 L27.4036883,13.8960923 C28.2877835,14.140558 28.9,14.9450358 28.9,15.8623077 L28.9,18.1297917 C28.9,19.0482644 28.2862098,19.8534847 27.4005702,20.0968666 L25.9730855,20.4891296 L25.8146567,20.8644569 L26.5504557,22.1670937 C27.0010464,22.964806 26.8645622,23.9650648 26.2167286,24.6128985 L24.6128985,26.2167286 C23.9633692,26.8662579 22.9598403,27.0015702 22.1614745,26.54727 L20.8625402,25.80809 C20.7409839,25.8613432 20.6180239,25.9121704 20.4935381,25.9606 L20.0965333,27.4017817 C19.8527299,28.2868214 19.0477979,28.9 18.1297917,28.9 L15.8702083,28.9 C14.9522021,28.9 14.1472701,28.2868214 13.9034667,27.4017817 L13.5065737,25.960924 L13.1373687,25.8081793 L11.8385255,26.54727 C11.0401597,27.0015702 10.0366308,26.8662579 9.38710153,26.2167286 L7.7832714,24.6128985 C7.13543777,23.9650648 6.99895365,22.964806 7.44954427,22.1670937 L8.18524582,20.8646364 C8.1295146,20.7399816 8.07675763,20.6149218 8.02693955,20.4891594 L6.59942979,20.0968666 C5.71379019,19.8534847 5.1,19.0482644 5.1,18.1297917 L5.1,15.8623077 C5.1,14.9450358 5.71221653,14.140558 6.59631165,13.8960923 L8.03180899,13.4991562 L8.18697576,13.1196344 L7.45317407,11.8314048 C6.99835767,11.0329494 7.1335064,10.0289659 7.7832714,9.37920088 L9.38710153,7.77537076 C10.0349352,7.12753713 11.035194,6.991053 11.8329063,7.44164363 L13.1331479,8.17610033 L13.5135409,8.01711347 L13.9031334,6.59942979 C14.1465153,5.71379019 14.9517356,5.1 15.8702083,5.1 L18.1297917,5.1 Z M18.1297917,7.14 L15.8702083,7.14 L15.3013622,9.20996795 C15.2308985,9.46032936 15.037077,9.65713274 14.7878205,9.73141026 C14.3224303,9.87308834 13.8745921,10.0635886 13.4447115,10.2923558 C13.2168572,10.4135435 12.9430188,10.410567 12.7178526,10.2844551 L10.8295994,9.21786859 L9.22576923,10.8216987 L10.2923558,12.6941506 C10.4213588,12.921364 10.4243439,13.1989755 10.3002564,13.4289103 C10.0768968,13.847624 9.89243442,14.3048904 9.74721154,14.7799199 C9.67063724,15.0261391 9.47422754,15.216597 9.22576923,15.2855609 L7.14,15.8623077 L7.14,18.1297917 L9.20996795,18.6986378 C9.46335907,18.766745 9.66355821,18.9609681 9.7393109,19.2121795 C9.88098823,19.6775715 10.0714935,20.1175424 10.3002564,20.5473878 C10.4243439,20.7773225 10.4213588,21.0549341 10.2923558,21.2821474 L9.22576923,23.1704006 L10.8295994,24.7742308 L12.7178526,23.6997436 C12.9430188,23.5736317 13.2168572,23.5706552 13.4447115,23.6918429 C13.8677566,23.9170049 14.3126636,24.1020442 14.7799199,24.2448878 C15.0291764,24.3191653 15.2229979,24.5159687 15.2934615,24.7663301 L15.8702083,26.86 L18.1297917,26.86 L18.7065385,24.7663301 C18.7770021,24.5159687 18.9708236,24.3191653 19.2200801,24.2448878 C19.6873364,24.1020442 20.1322262,23.9170049 20.5552885,23.6918429 C20.7831428,23.5706552 21.0569812,23.5736317 21.2821474,23.6997436 L23.1704006,24.7742308 L24.7742308,23.1704006 L23.7076442,21.2821474 C23.5786412,21.0549341 23.5756561,20.7773225 23.6997436,20.5473878 C23.9285065,20.1175424 24.1190118,19.6775715 24.2606891,19.2121795 C24.3364418,18.9609681 24.5366409,18.766745 24.7900321,18.6986378 L26.86,18.1297917 L26.86,15.8623077 L24.7742308,15.2855609 C24.5257725,15.216597 24.3293628,15.0261391 24.2527885,14.7799199 C24.1075656,14.3048904 23.9231032,13.847624 23.6997436,13.4289103 C23.5756561,13.1989755 23.5786412,12.921364 23.7076442,12.6941506 L24.7742308,10.8216987 L23.1704006,9.21786859 L21.2821474,10.2844551 C21.0569812,10.410567 20.7831428,10.4135435 20.5552885,10.2923558 C20.1254079,10.0635886 19.6775697,9.87308834 19.2121795,9.73141026 C18.962923,9.65713274 18.7691015,9.46032936 18.6986378,9.20996795 L18.1297917,7.14 Z M17,11.56 C20.013058,11.56 22.44,13.9869432 22.44,17 C22.44,20.013055 20.0130574,22.44 17,22.44 C13.9869424,22.44 11.56,20.013055 11.56,17 C11.56,13.9869431 13.9869418,11.56 17,11.56 Z M17,13.6 C15.113602,13.6 13.6,15.1136047 13.6,17 C13.6,18.8863929 15.113602,20.4 17,20.4 C18.8863977,20.4 20.4,18.8863929 20.4,17 C20.4,15.1136047 18.8863977,13.6 17,13.6 Z"></path>
                    </g>
                </g>
            </g>
        </g>
    </g>
</svg>