<?xml version="1.0" encoding="UTF-8"?>
<svg width="60px" height="60px" viewBox="0 0 60 60" version="1.1" xmlns="http://www.w3.org/2000/svg" xmlns:xlink="http://www.w3.org/1999/xlink">
    <!-- Generator: Sketch 60.1 (88133) - https://sketch.com -->
    <title>Group 10</title>
    <desc>Created with Sketch.</desc>
    <g id="superpowers" stroke="none" stroke-width="1" fill="none" fill-rule="evenodd">
        <g transform="translate(-170.000000, -594.000000)" fill-rule="nonzero" id="superpower-card">
            <g transform="translate(40.000000, 551.000000)">
                <g id="Group-10" transform="translate(130.000000, 43.000000)">
                    <circle id="Oval" fill="#47C1BF" opacity="0.150559" cx="30" cy="30" r="30"></circle>
                    <g id="icon---cart" transform="translate(13.000000, 13.000000)" fill="#10C1D6">
                        <path d="M6.47875455,9.04886196 L5.4057502,9.04886196 C4.76744699,9.04886196 4.25,8.5457101 4.25,7.92504083 C4.25,7.30437156 4.76744699,6.8012197 5.4057502,6.8012197 L6.94675046,6.8012197 C6.95245508,6.8012197 6.95815004,6.80125989 6.96383507,6.80133999 L7.73361827,6.80133999 C8.80834646,6.79018253 10.5076407,6.80720593 10.663913,8.59520229 L11.0077342,10.045559 L26.0264713,10.045559 C26.5238307,10.0347106 27.0078573,10.2031923 27.386128,10.5188334 C27.9553437,11.0058199 28.1839325,11.7710074 27.972187,12.4806317 L25.5107394,20.694231 C25.2692759,21.5030659 24.5134198,22.0615051 23.6509791,22.0682532 L12.1642238,22.0682532 C11.1963972,22.0635131 10.3767937,21.3698289 10.2341364,20.4346935 C9.1497054,14.3645429 8.53907549,11.0687418 8.40224668,10.5472901 C8.19700346,9.76511262 7.53745823,9.05008441 6.47875455,9.04886196 Z M11.2109013,12.335596 L12.5627439,19.4423441 C12.5865861,19.6350756 12.7547268,19.7796184 12.9534499,19.7782263 L22.8910512,19.7782263 C23.0646983,19.7782263 23.2175078,19.6662589 23.266129,19.5034118 L24.9227222,12.8241373 C24.9571559,12.7088083 24.9339958,12.5843726 24.8602093,12.4882652 C24.7864227,12.3921577 24.6706221,12.335596 24.5476445,12.335596 L11.2109013,12.335596 Z M13.5942077,27.03 C12.5153029,27.03 11.6406779,26.1755963 11.6406779,25.1216358 C11.6406779,24.0676754 12.5153029,23.2132717 13.5942077,23.2132717 C14.6731124,23.2132717 15.5477375,24.0676754 15.5477375,25.1216358 C15.5477375,25.6277655 15.3419197,26.1131654 14.9755618,26.4710531 C14.6092039,26.8289408 14.112316,27.03 13.5942077,27.03 Z M20.3087686,25.1216358 C20.3087686,24.0676754 21.1833937,23.2132717 22.2622984,23.2132717 C23.3412032,23.2132717 24.2158282,24.0676754 24.2158282,25.1216358 C24.2158282,25.6277655 24.0100105,26.1131654 23.6436526,26.4710531 C23.2772947,26.8289408 22.7804068,27.03 22.2622984,27.03 C21.1833937,27.03 20.3087686,26.1755963 20.3087686,25.1216358 Z"></path>
                    </g>
                </g>
            </g>
        </g>
    </g>
</svg>