<?xml version="1.0" encoding="UTF-8"?>
<svg width="60px" height="60px" viewBox="0 0 60 60" version="1.1" xmlns="http://www.w3.org/2000/svg" xmlns:xlink="http://www.w3.org/1999/xlink">
    <!-- Generator: Sketch 60.1 (88133) - https://sketch.com -->
    <title>Group 4</title>
    <desc>Created with Sketch.</desc>
    <g id="superpowers" stroke="none" stroke-width="1" fill="none" fill-rule="evenodd">
        <g transform="translate(-1570.000000, -74.000000)" fill="#C65BB7" id="superpower-card">
            <g transform="translate(1440.000000, 31.000000)">
                <g id="Group-4" transform="translate(130.000000, 43.000000)">
                    <circle id="Oval" opacity="0.151902" cx="30" cy="30" r="30"></circle>
                    <g id="icon---grid" transform="translate(13.000000, 13.000000)">
                        <path d="M14.6777778,17.7555556 C15.2300625,17.7555556 15.6777778,18.2032708 15.6777778,18.7555556 L15.6777778,23.3666667 C15.6777778,23.9189514 15.2300625,24.3666667 14.6777778,24.3666667 L6.1,24.3666667 C5.54771525,24.3666667 5.1,23.9189514 5.1,23.3666667 L5.1,18.7555556 C5.1,18.2032708 5.54771525,17.7555556 6.1,17.7555556 L14.6777778,17.7555556 Z M27.9,17.7555556 C28.4522847,17.7555556 28.9,18.2032708 28.9,18.7555556 L28.9,23.3666667 C28.9,23.9189514 28.4522847,24.3666667 27.9,24.3666667 L19.3222222,24.3666667 C18.7699375,24.3666667 18.3222222,23.9189514 18.3222222,23.3666667 L18.3222222,18.7555556 C18.3222222,18.2032708 18.7699375,17.7555556 19.3222222,17.7555556 L27.9,17.7555556 Z M14.6777778,8.5 C15.2300625,8.5 15.6777778,8.94771525 15.6777778,9.5 L15.6777778,14.1111111 C15.6777778,14.6633959 15.2300625,15.1111111 14.6777778,15.1111111 L6.1,15.1111111 C5.54771525,15.1111111 5.1,14.6633959 5.1,14.1111111 L5.1,9.5 C5.1,8.94771525 5.54771525,8.5 6.1,8.5 L14.6777778,8.5 Z M27.9,8.5 C28.4522847,8.5 28.9,8.94771525 28.9,9.5 L28.9,14.1111111 C28.9,14.6633959 28.4522847,15.1111111 27.9,15.1111111 L19.3222222,15.1111111 C18.7699375,15.1111111 18.3222222,14.6633959 18.3222222,14.1111111 L18.3222222,9.5 C18.3222222,8.94771525 18.7699375,8.5 19.3222222,8.5 L27.9,8.5 Z"></path>
                    </g>
                </g>
            </g>
        </g>
    </g>
</svg>