<?xml version="1.0" encoding="UTF-8"?>
<svg width="60px" height="60px" viewBox="0 0 60 60" version="1.1" xmlns="http://www.w3.org/2000/svg" xmlns:xlink="http://www.w3.org/1999/xlink">
    <!-- Generator: Sketch 60.1 (88133) - https://sketch.com -->
    <title>Group 5</title>
    <desc>Created with Sketch.</desc>
    <g id="superpowers" stroke="none" stroke-width="1" fill="none" fill-rule="evenodd">
        <g transform="translate(-170.000000, -334.000000)" fill-rule="nonzero" id="superpower-card">
            <g transform="translate(40.000000, 291.000000)">
                <g id="Group-5" transform="translate(130.000000, 43.000000)">
                    <circle id="Oval" fill="#47C1BF" opacity="0.150559" cx="30" cy="30" r="30"></circle>
                    <g id="icon---products" transform="translate(13.000000, 13.000000)" fill="#10C1D6">
                        <path d="M14.45,17.85 C15.3888841,17.85 16.15,18.6111159 16.15,19.55 L16.15,26.35 C16.15,27.2888841 15.3888841,28.05 14.45,28.05 L5.95,28.05 C5.01111593,28.05 4.25,27.2888841 4.25,26.35 L4.25,19.55 C4.25,18.6111159 5.01111593,17.85 5.95,17.85 L14.45,17.85 Z M28.05,17.85 C28.9888841,17.85 29.75,18.6111159 29.75,19.55 L29.75,26.35 C29.75,27.2888841 28.9888841,28.05 28.05,28.05 L19.55,28.05 C18.6111159,28.05 17.85,27.2888841 17.85,26.35 L17.85,19.55 C17.85,18.6111159 18.6111159,17.85 19.55,17.85 L28.05,17.85 Z M13.6,20.4 L6.8,20.4 L6.8,25.5 L13.6,25.5 L13.6,20.4 Z M27.2,20.4 L20.4,20.4 L20.4,25.5 L27.2,25.5 L27.2,20.4 Z M21.25,5.95 C22.1888841,5.95 22.95,6.71111593 22.95,7.65 L22.95,14.45 C22.95,15.3888841 22.1888841,16.15 21.25,16.15 L12.75,16.15 C11.8111159,16.15 11.05,15.3888841 11.05,14.45 L11.05,7.65 C11.05,6.71111593 11.8111159,5.95 12.75,5.95 L21.25,5.95 Z M20.4,8.5 L13.6,8.5 L13.6,13.6 L20.4,13.6 L20.4,8.5 Z"></path>
                    </g>
                </g>
            </g>
        </g>
    </g>
</svg>