<?xml version="1.0" encoding="UTF-8"?>
<svg width="60px" height="60px" viewBox="0 0 60 60" version="1.1" xmlns="http://www.w3.org/2000/svg" xmlns:xlink="http://www.w3.org/1999/xlink">
    <g id="Symbols" stroke="none" stroke-width="1" fill="none" fill-rule="evenodd">
        <g id="superpowers" transform="translate(-95.000000, -200.000000)" fill-rule="nonzero">
            <g id="superpower-card">
                <g transform="translate(0.000000, 171.000000)">
                    <g id="Group" transform="translate(95.000000, 29.000000)">
                        <circle id="Oval" fill="#47C1BF" opacity="0.150559" cx="30" cy="30" r="30"></circle>
                        <g id="icon---box" transform="translate(13.000000, 13.000000)" fill="#10C1D6">
                            <path d="M28.475,27.2 C28.475,27.9041631 27.9041631,28.475 27.2,28.475 L6.8,28.475 C6.09583694,28.475 5.525,27.9041631 5.525,27.2 L5.52628319,13.5140361 L5.52628319,13.5140361 L5.54832262,13.3517683 L5.54832262,13.3517683 L5.58124649,13.2243278 L5.58124649,13.2243278 L5.60582163,13.1522898 L5.65960533,13.0298027 L9.05960533,6.22980267 C9.2485833,5.85184673 9.61021786,5.59569914 10.021202,5.53756781 L10.2,5.525 L23.8,5.525 C24.2225676,5.525 24.6134008,5.7339031 24.8491928,6.07550139 L24.9403947,6.22980267 L28.3877164,13.1354285 L28.3877164,13.1354285 L28.4385194,13.2959404 L28.4385194,13.2959404 C28.4575192,13.3693765 28.4688472,13.442363 28.473775,13.5148883 L28.475,27.2 Z M25.925,14.875 L8.075,14.875 L8.075,25.925 L25.925,25.925 L25.925,14.875 Z M23.0120067,8.075 L10.9879933,8.075 L8.86299334,12.325 L25.1370067,12.325 L23.0120067,8.075 Z"></path>
                        </g>
                    </g>
                </g>
            </g>
        </g>
    </g>
</svg>