<?xml version="1.0" encoding="UTF-8"?>
<svg width="60px" height="60px" viewBox="0 0 60 60" version="1.1" xmlns="http://www.w3.org/2000/svg" xmlns:xlink="http://www.w3.org/1999/xlink">
    <!-- Generator: Sketch 60.1 (88133) - https://sketch.com -->
    <title>Group 6</title>
    <desc>Created with Sketch.</desc>
    <g id="superpowers" stroke="none" stroke-width="1" fill="none" fill-rule="evenodd">
        <g transform="translate(-520.000000, -334.000000)" fill="#C65BB7" id="superpower-card">
            <g transform="translate(390.000000, 291.000000)">
                <g id="Group-6" transform="translate(130.000000, 43.000000)">
                    <circle id="Oval" opacity="0.151902" cx="30" cy="30" r="30"></circle>
                    <g id="icon---fixed-nav" transform="translate(13.000000, 13.000000)">
                        <path d="M17,12.75 C17.6454828,12.75 18.1789346,13.2296616 18.2633608,13.8519901 L18.275,14.025 L18.275,24.5463 L21.1984389,21.6234389 C21.651092,21.1707857 22.3594203,21.1296354 22.8585598,21.499988 L23.0015611,21.6234389 C23.4542143,22.076092 23.4953646,22.7844203 23.125012,23.2835598 L23.0015611,23.4265611 L17.9015611,28.5265611 C17.448908,28.9792143 16.7405797,29.0203646 16.2414402,28.650012 L16.0984389,28.5265611 L10.9984389,23.4265611 C10.5005204,22.9286427 10.5005204,22.1213573 10.9984389,21.6234389 C11.451092,21.1707857 12.1594203,21.1296354 12.6585598,21.499988 L12.8015611,21.6234389 L15.725,24.5463 L15.725,14.025 C15.725,13.4381975 16.1214145,12.9439825 16.6610545,12.7955442 L16.8269901,12.7616392 L17,12.75 Z M27.625,5.1 C28.3291631,5.1 28.9,5.67083694 28.9,6.375 C28.9,7.07916306 28.3291631,7.65 27.625,7.65 L6.375,7.65 C5.67083694,7.65 5.1,7.07916306 5.1,6.375 C5.1,5.67083694 5.67083694,5.1 6.375,5.1 L27.625,5.1 Z"></path>
                    </g>
                </g>
            </g>
        </g>
    </g>
</svg>