<?xml version="1.0" encoding="UTF-8"?>
<svg width="60px" height="60px" viewBox="0 0 60 60" version="1.1" xmlns="http://www.w3.org/2000/svg" xmlns:xlink="http://www.w3.org/1999/xlink">
    <!-- Generator: Sketch 60.1 (88133) - https://sketch.com -->
    <title>Group 9</title>
    <desc>Created with Sketch.</desc>
    <g id="superpowers" stroke="none" stroke-width="1" fill="none" fill-rule="evenodd">
        <g transform="translate(-1570.000000, -334.000000)" fill="#C65BB7" id="superpower-card">
            <g transform="translate(1440.000000, 291.000000)">
                <g id="Group-9" transform="translate(130.000000, 43.000000)">
                    <circle id="Oval" opacity="0.151902" cx="30" cy="30" r="30"></circle>
                    <g id="icon---star" transform="translate(13.000000, 13.000000)">
                        <path d="M16.2526486,25.1489838 L11.3850455,27.7080342 C10.6000564,28.1207274 9.629143,27.8189219 9.2164498,27.0339328 C9.0521132,26.721346 8.99540471,26.3633027 9.05510348,26.0152322 L9.98473295,20.5950765 C10.0740766,20.0741629 9.90137473,19.5426411 9.52290881,19.173728 L5.58493519,15.3351524 C4.94986564,14.7161126 4.93687098,13.6994561 5.55591079,13.0643866 C5.80241569,12.8114985 6.12541119,12.6469241 6.47489385,12.5961413 L11.9170395,11.8053512 C12.4400666,11.729351 12.892206,11.4008524 13.1261108,10.9269095 L15.5599124,5.99548896 C15.9524069,5.20020812 16.9152892,4.87368532 17.71057,5.26617988 C18.027255,5.42247327 18.2835857,5.67880396 18.4398791,5.99548896 L20.8736806,10.9269095 C21.1075854,11.4008524 21.5597249,11.729351 22.0827519,11.8053512 L27.5248976,12.5961413 C28.4025422,12.7236705 29.0106308,13.5385248 28.8831015,14.4161693 C28.8323187,14.765652 28.6677443,15.0886475 28.4148563,15.3351524 L24.4768827,19.173728 C24.0984167,19.5426411 23.9257148,20.0741629 24.0150585,20.5950765 L24.944688,26.0152322 C25.0946076,26.8893305 24.5075448,27.7194609 23.6334465,27.8693805 C23.285376,27.9290793 22.9273328,27.8723708 22.614746,27.7080342 L17.7471429,25.1489838 C17.2793333,24.9030417 16.7204582,24.9030417 16.2526486,25.1489838 Z M15.1317779,23.016961 C16.3013019,22.4021058 17.6984896,22.4021058 18.8680136,23.016961 L22.2956333,24.8189673 L21.6410162,21.0022567 C21.417657,19.6999725 21.8494118,18.371168 22.7955766,17.4488853 L25.5685792,14.7458758 L21.7363838,14.1890252 C20.4288162,13.9990245 19.2984676,13.1777782 18.7137056,11.9929209 L16.9998957,8.52036286 L15.2860859,11.9929209 C14.7013239,13.1777782 13.5709752,13.9990245 12.2634076,14.1890252 L8.43121229,14.7458758 L11.2042149,17.4488853 C12.1503797,18.371168 12.5821345,19.6999725 12.3587752,21.0022567 L11.7041581,24.8189673 L15.1317779,23.016961 Z"></path>
                    </g>
                </g>
            </g>
        </g>
    </g>
</svg>