<?xml version="1.0" encoding="UTF-8"?>
<svg width="60px" height="60px" viewBox="0 0 60 60" version="1.1" xmlns="http://www.w3.org/2000/svg" xmlns:xlink="http://www.w3.org/1999/xlink">
    <!-- Generator: Sketch 60.1 (88133) - https://sketch.com -->
    <title>Group 15</title>
    <desc>Created with Sketch.</desc>
    <g id="superpowers" stroke="none" stroke-width="1" fill="none" fill-rule="evenodd">
        <g transform="translate(-170.000000, -854.000000)" fill-rule="nonzero" id="superpower-card">
            <g transform="translate(40.000000, 811.000000)">
                <g id="Group-15" transform="translate(130.000000, 43.000000)">
                    <circle id="Oval" fill="#47C1BF" opacity="0.150559" cx="30" cy="30" r="30"></circle>
                    <g id="icon---twitter" transform="translate(13.000000, 13.000000)" fill="#10C1D6">
                        <path d="M21.5497782,7.24371264 L21.1163939,7.22595599 L20.7339451,7.2339016 C18.0870123,7.37574108 15.8724083,9.19809841 15.1287718,11.6662858 L15.1039272,11.7507488 L14.8033801,11.6363018 C13.4705314,11.086077 12.2474649,10.1316753 11.3495153,9.17483118 L11.0625355,8.85634376 C10.6497871,8.37225548 10.0542319,8.06872385 9.42491548,8.02573477 L9.14345737,8.02625716 C8.42087171,8.08705317 7.83695781,8.39584236 7.43408954,8.88659875 L7.27168434,9.11335479 L7.08277509,9.45988984 C6.31198011,10.9661577 6.16217563,12.5297443 6.61144033,14.0458073 L6.62410165,14.0850828 L6.56247369,14.2194665 C6.50433337,14.3620274 6.45993296,14.5108695 6.43039157,14.6640733 L6.39446126,14.9628079 L6.39709912,15.3947783 C6.44632363,16.9506284 6.9274935,18.1995946 7.73852495,19.1944159 L7.75854982,19.4349046 L7.81325222,19.6982604 L7.94769105,20.102889 C8.04297509,20.3654501 8.1494878,20.613733 8.26670324,20.8483652 L8.42419302,21.1425299 L8.27553609,21.1243858 C7.35554883,20.9540328 6.40348506,21.3762433 5.89152506,22.1884162 L5.76640032,22.4167829 C5.33799305,23.382005 5.52261235,24.4022978 6.18667673,25.0905261 L6.3791859,25.266991 C8.49401394,26.8836137 10.9442621,27.5667005 13.5231703,27.6279049 L13.8667502,27.6320668 C14.9738544,27.6320668 15.908408,27.524616 16.604949,27.3817049 L16.6709342,27.3677721 C20.9554012,26.3526974 23.8709501,24.0268912 25.6068827,20.8081797 L25.8864892,20.2619089 C26.7724991,18.4351032 27.2032522,16.5558753 27.3245255,14.8224298 L27.3302567,14.7060973 L27.5592753,14.4788473 C28.392698,13.6311526 28.9245215,12.9382182 29.1657018,12.3426678 L29.2350932,12.1462077 L29.2933984,11.8958838 C29.415292,11.2302307 29.2705622,10.584395 28.9089804,10.0735965 L28.7815591,9.91152499 L28.779143,9.80264092 C28.7325345,9.02539729 28.3488698,8.35711756 27.7430032,7.94778643 L27.5130797,7.81272304 C26.7571319,7.45821837 25.995908,7.47363921 25.3490741,7.80171837 L25.120635,7.93598808 L24.9108259,8.07502635 C24.8212776,8.12970749 24.736264,8.17527926 24.6541901,8.2132435 L24.5025139,8.27476894 L24.3429519,8.16663401 C23.5032302,7.6387886 22.5481094,7.32133551 21.5497782,7.24371264 Z M20.8126062,9.78604419 L21.0622637,9.77711363 L21.4014544,9.7910305 C22.1038683,9.84661177 22.8108783,10.1360646 23.3903115,10.6232729 L23.8283194,10.9915657 L24.5892624,10.8812225 L24.9329815,10.8082518 C25.2726078,10.7232634 25.600026,10.6017541 25.9158732,10.4395135 L26.1358671,10.3147591 L25.904863,11.1204495 L26.7313605,11.5312669 L26.6919729,11.5962885 C26.4893247,11.8985197 25.9765081,12.4808444 25.2013895,13.2169693 L24.8205052,13.5786925 L24.8010501,14.2228735 C24.7411441,15.8986347 24.3241169,17.8102521 23.3606302,19.5967188 C22.0323911,22.0594977 19.8702215,23.8544749 16.6327378,24.7446727 L16.0844158,24.8832508 C15.5547428,24.991901 14.7887759,25.0800419 13.8818719,25.0800419 L13.5685677,25.0762392 L13.0934102,25.056084 C11.5179424,24.9593316 10.0302571,24.5645667 8.74666473,23.801944 L8.61985513,23.7218668 C9.51633889,23.7744904 10.5208263,23.688314 11.5098425,23.3544237 L13.9935253,22.5159363 L11.5826452,20.9348367 L11.3711152,20.7733084 C10.9600146,20.4303721 10.622318,19.9669814 10.3876654,19.3619836 L10.297445,19.1025397 L10.5242696,18.4366634 L9.82660339,17.7114509 L9.64478638,17.4948813 C9.24198499,16.9703714 8.99174053,16.3100387 8.94631988,15.481199 L8.93972014,15.2029089 L9.57908308,14.6740097 L9.11369684,13.4951371 L9.02058913,13.1961104 C8.8086517,12.3958975 8.88794626,11.5749964 9.26887766,10.7760834 L9.30041898,10.7145903 L9.52195614,10.9502786 C9.96038326,11.4028147 10.540361,11.9302457 11.2241119,12.4485115 C12.7133823,13.5773405 14.301816,14.3539102 15.9623576,14.5877993 L17.3705289,14.7861417 L17.4157468,13.3647898 C17.4764763,11.4558597 18.9629174,9.91630956 20.8126062,9.78604419 Z"></path>
                    </g>
                </g>
            </g>
        </g>
    </g>
</svg>