<?xml version="1.0" encoding="UTF-8"?>
<svg width="60px" height="60px" viewBox="0 0 60 60" version="1.1" xmlns="http://www.w3.org/2000/svg" xmlns:xlink="http://www.w3.org/1999/xlink">
    <!-- Generator: Sketch 60.1 (88133) - https://sketch.com -->
    <title>Group 19</title>
    <desc>Created with Sketch.</desc>
    <g id="superpowers" stroke="none" stroke-width="1" fill="none" fill-rule="evenodd">
        <g transform="translate(-1920.000000, -334.000000)" fill="#5C6AC4" fill-rule="nonzero" id="superpower-card">
            <g transform="translate(1790.000000, 291.000000)">
                <g id="Group-19" transform="translate(130.000000, 43.000000)">
                    <circle id="Oval" opacity="0.15077008" cx="30" cy="30" r="30"></circle>
                    <g id="icon---clock" transform="translate(13.000000, 13.000000)">
                        <path d="M17,5.1 C23.5721885,5.1 28.9,10.4278115 28.9,17 C28.9,23.5721885 23.5721885,28.9 17,28.9 C10.4278115,28.9 5.1,23.5721885 5.1,17 C5.1,10.4278115 10.4278115,5.1 17,5.1 Z M17,7.65 C11.8361376,7.65 7.65,11.8361376 7.65,17 C7.65,22.1638624 11.8361376,26.35 17,26.35 C22.1638624,26.35 26.35,22.1638624 26.35,17 C26.35,11.8361376 22.1638624,7.65 17,7.65 Z M17,8.925 C17.6454828,8.925 18.1789346,9.4046616 18.2633608,10.0269901 L18.275,10.2 L18.275,16.4718777 L21.3015611,19.4984389 C21.7994796,19.9963573 21.7994796,20.8036427 21.3015611,21.3015611 C20.848908,21.7542143 20.1405797,21.7953646 19.6414402,21.425012 L19.4984389,21.3015611 L16.0984389,17.9015611 C15.9071517,17.710274 15.7829231,17.4644638 15.7408832,17.2006579 L15.725,17 L15.725,10.2 C15.725,9.49583694 16.2958369,8.925 17,8.925 Z"></path>
                    </g>
                </g>
            </g>
        </g>
    </g>
</svg>