<?xml version="1.0" encoding="UTF-8"?>
<svg width="1440px" height="1176px" viewBox="0 0 1440 1176" version="1.1" xmlns="http://www.w3.org/2000/svg" xmlns:xlink="http://www.w3.org/1999/xlink">
    <defs>
        <linearGradient x1="100%" y1="16.653329%" x2="0%" y2="83.346671%" id="linearGradient-1">
            <stop stop-color="#00366C" offset="0%"></stop>
            <stop stop-color="#0069CC" offset="100%"></stop>
        </linearGradient>
        <linearGradient x1="50%" y1="0%" x2="50%" y2="98.9284206%" id="linearGradient-2">
            <stop stop-color="#7254B7" offset="0%"></stop>
            <stop stop-color="#4D459C" offset="100%"></stop>
        </linearGradient>
        <linearGradient x1="50%" y1="0%" x2="50%" y2="100%" id="linearGradient-3">
            <stop stop-color="#E9ECF4" offset="0%"></stop>
            <stop stop-color="#DBE0F6" offset="100%"></stop>
        </linearGradient>
        <linearGradient x1="50%" y1="14.1742546%" x2="50%" y2="146.66216%" id="linearGradient-4">
            <stop stop-color="#545FE4" offset="0%"></stop>
            <stop stop-color="#4252A6" offset="100%"></stop>
        </linearGradient>
    </defs>
    <g id="v2" stroke="none" stroke-width="1" fill="none" fill-rule="evenodd">
        <g id="centered" transform="translate(0.000000, -3012.000000)">
            <g id="style-switcher" transform="translate(-54.000000, 3012.000000)">
                <g id="Group-7">
                    <g>
                        <path d="M742.618056,1104.22249 C572,1107.87041 317,1175.99028 54,1175.99028 L54,0 L1494,0.256212974 L1494,1107.61419 C1343.40643,1116.61099 1287,1129.40892 1129.04762,1129.09354 C971.095238,1128.77816 913.236111,1100.57457 742.618056,1104.22249 Z" id="Mask" fill="url(#linearGradient-1)" transform="translate(774.000000, 587.995140) scale(-1, -1) translate(-774.000000, -587.995140) "></path>
                        <path d="M97.4145991,750.734227 L105.99984,759.319469 C107.333387,760.653015 107.333387,762.815121 105.99984,764.148667 L97.4145991,772.733908 C96.0810528,774.067454 93.9189472,774.067454 92.5854009,772.733908 L84.0001597,764.148667 C82.6666134,762.815121 82.6666134,760.653015 84.0001597,759.319469 L92.5854009,750.734227 C93.9189472,749.400681 96.0810528,749.400681 97.4145991,750.734227 Z" id="Rectangle" fill="url(#linearGradient-2)" fill-rule="nonzero" opacity="0.210332961"></path>
                        <path d="M119.2073,676.234148 L123.49992,680.526768 C124.166693,681.193541 124.166693,682.274594 123.49992,682.941367 L119.2073,687.233988 C118.540526,687.900761 117.459474,687.900761 116.7927,687.233988 L112.50008,682.941367 C111.833307,682.274594 111.833307,681.193541 112.50008,680.526768 L116.7927,676.234148 C117.459474,675.567375 118.540526,675.567375 119.2073,676.234148 Z" id="Rectangle" fill="url(#linearGradient-3)" fill-rule="nonzero" opacity="0.397925967"></path>
                        <path d="M129.130784,870.693832 L206.040236,947.603284 C217.986588,959.549636 217.986588,978.918499 206.040236,990.864851 L129.130784,1067.7743 C117.184432,1079.72066 97.8155683,1079.72066 85.8692165,1067.7743 L8.9597639,990.864851 C-2.98658797,978.918499 -2.98658797,959.549636 8.9597639,947.603284 L85.8692165,870.693832 C97.8155683,858.74748 117.184432,858.74748 129.130784,870.693832 Z" id="Rectangle" fill="url(#linearGradient-4)" fill-rule="nonzero" opacity="0.111708"></path>
                        <path d="M1510.13078,750.693832 L1587.04024,827.603284 C1598.98659,839.549636 1598.98659,858.918499 1587.04024,870.864851 L1510.13078,947.774304 C1498.18443,959.720656 1478.81557,959.720656 1466.86922,947.774304 L1389.95976,870.864851 C1378.01341,858.918499 1378.01341,839.549636 1389.95976,827.603284 L1466.86922,750.693832 C1478.81557,738.74748 1498.18443,738.74748 1510.13078,750.693832 Z" id="Rectangle" fill="url(#linearGradient-3)" fill-rule="nonzero" opacity="0.0320870536"></path>
                        <path d="M1419.61277,471.609208 L1427.12486,479.121294 C1428.29171,480.288147 1428.29171,482.179989 1427.12486,483.346842 L1419.61277,490.858928 C1418.44592,492.025781 1416.55408,492.025781 1415.38723,490.858928 L1407.87514,483.346842 C1406.70829,482.179989 1406.70829,480.288147 1407.87514,479.121294 L1415.38723,471.609208 C1416.55408,470.442355 1418.44592,470.442355 1419.61277,471.609208 Z" id="Rectangle" fill="url(#linearGradient-3)" fill-rule="nonzero" opacity="0.210797991"></path>
                        <path d="M1412.42677,617.567694 L1428.16637,633.307303 C1430.61121,635.752138 1430.61121,639.715998 1428.16637,642.160833 L1412.42677,657.900442 C1409.98193,660.345277 1406.01807,660.345277 1403.57323,657.900442 L1387.83363,642.160833 C1385.38879,639.715998 1385.38879,635.752138 1387.83363,633.307303 L1403.57323,617.567694 C1406.01807,615.122859 1409.98193,615.122859 1412.42677,617.567694 Z" id="Rectangle" fill="url(#linearGradient-2)" fill-rule="nonzero" opacity="0.491489955"></path>
                    </g>
                </g>
            </g>
        </g>
    </g>
</svg>