<?xml version="1.0" encoding="UTF-8"?>
<svg width="107px" height="152px" viewBox="0 0 107 152" version="1.1" xmlns="http://www.w3.org/2000/svg" xmlns:xlink="http://www.w3.org/1999/xlink">
    <defs>
        <linearGradient x1="50%" y1="14.1742546%" x2="50%" y2="146.66216%" id="linearGradient-1">
            <stop stop-color="#545FE4" offset="0%"></stop>
            <stop stop-color="#4252A6" offset="100%"></stop>
        </linearGradient>
        <linearGradient x1="50%" y1="0%" x2="50%" y2="98.9284206%" id="linearGradient-2">
            <stop stop-color="#7254B7" offset="0%"></stop>
            <stop stop-color="#4D459C" offset="100%"></stop>
        </linearGradient>
        <linearGradient x1="50%" y1="0%" x2="50%" y2="100%" id="linearGradient-3">
            <stop stop-color="#E9ECF4" offset="0%"></stop>
            <stop stop-color="#DBE0F6" offset="100%"></stop>
        </linearGradient>
    </defs>
    <g id="v2" stroke="none" stroke-width="1" fill="none" fill-rule="evenodd">
        <g id="centered" transform="translate(-1269.000000, -5256.000000)" fill-rule="nonzero">
            <g id="Group-9" transform="translate(1269.000000, 5256.000000)">
                <path d="M74.6127742,0.87513973 L82.1248603,8.38722579 C83.2917132,9.55407877 83.2917132,11.4459212 82.1248603,12.6127742 L74.6127742,20.1248603 C73.4459212,21.2917132 71.5540788,21.2917132 70.3872258,20.1248603 L62.8751397,12.6127742 C61.7082868,11.4459212 61.7082868,9.55407877 62.8751397,8.38722579 L70.3872258,0.87513973 C71.5540788,-0.291713243 73.4459212,-0.291713243 74.6127742,0.87513973 Z" id="Rectangle" fill="url(#linearGradient-1)" opacity="0.256998698"></path>
                <path d="M101.7073,66.5000798 L105.99992,70.7927005 C106.666693,71.4594736 106.666693,72.5405264 105.99992,73.2072995 L101.7073,77.4999202 C101.040526,78.1666933 99.9594736,78.1666933 99.2927005,77.4999202 L95.0000798,73.2072995 C94.3333067,72.5405264 94.3333067,71.4594736 95.0000798,70.7927005 L99.2927005,66.5000798 C99.9594736,65.8333067 101.040526,65.8333067 101.7073,66.5000798 Z" id="Rectangle" fill="url(#linearGradient-2)" opacity="0.113630022"></path>
                <path d="M46.847447,77.250519 L74.749481,105.152553 C79.0835063,109.486578 79.0835063,116.513422 74.749481,120.847447 L46.847447,148.749481 C42.5134217,153.083506 35.4865783,153.083506 31.152553,148.749481 L3.250519,120.847447 C-1.08350633,116.513422 -1.08350633,109.486578 3.250519,105.152553 L31.152553,77.250519 C35.4865783,72.9164937 42.5134217,72.9164937 46.847447,77.250519 Z" id="Rectangle" fill="url(#linearGradient-3)"></path>
            </g>
        </g>
    </g>
</svg>