<?xml version="1.0" encoding="UTF-8"?>
<svg width="89px" height="186px" viewBox="0 0 89 186" version="1.1" xmlns="http://www.w3.org/2000/svg" xmlns:xlink="http://www.w3.org/1999/xlink">
    <defs>
        <linearGradient x1="50%" y1="14.1742546%" x2="50%" y2="146.66216%" id="linearGradient-1">
            <stop stop-color="#545FE4" offset="0%"></stop>
            <stop stop-color="#4252A6" offset="100%"></stop>
        </linearGradient>
        <linearGradient x1="50%" y1="0%" x2="50%" y2="98.9284206%" id="linearGradient-2">
            <stop stop-color="#7254B7" offset="0%"></stop>
            <stop stop-color="#4D459C" offset="100%"></stop>
        </linearGradient>
    </defs>
    <g id="v2" stroke="none" stroke-width="1" fill="none" fill-rule="evenodd">
        <g id="centered" transform="translate(-24.000000, -5306.000000)" fill-rule="nonzero">
            <g id="reviews" transform="translate(-130.000000, 5256.000000)">
                <g id="Group-10">
                    <g transform="translate(154.000000, 50.000000)">
                        <path d="M35.0152074,1.04183301 L43.958167,9.98479261 C45.3472777,11.3739033 45.3472777,13.6260967 43.958167,15.0152074 L35.0152074,23.958167 C33.6260967,25.3472777 31.3739033,25.3472777 29.9847926,23.958167 L21.041833,15.0152074 C19.6527223,13.6260967 19.6527223,11.3739033 21.041833,9.98479261 L29.9847926,1.04183301 C31.3739033,-0.347277671 33.6260967,-0.347277671 35.0152074,1.04183301 Z" id="Rectangle" fill="url(#linearGradient-1)" opacity="0.105724516"></path>
                        <path d="M10.8109493,168.75012 L17.2498802,175.189051 C18.2500399,176.18921 18.2500399,177.81079 17.2498802,178.810949 L10.8109493,185.24988 C9.81078963,186.25004 8.18921037,186.25004 7.18905068,185.24988 L0.750119769,178.810949 C-0.250039923,177.81079 -0.250039923,176.18921 0.750119769,175.189051 L7.18905068,168.75012 C8.18921037,167.74996 9.81078963,167.74996 10.8109493,168.75012 Z" id="Rectangle" fill="url(#linearGradient-1)" opacity="0.366396949"></path>
                        <path d="M61.4419724,73.3754591 L86.1245409,98.0580276 C89.9584864,101.891973 89.9584864,108.108027 86.1245409,111.941972 L61.4419724,136.624541 C57.6080269,140.458486 51.3919731,140.458486 47.5580276,136.624541 L22.8754591,111.941972 C19.0415136,108.108027 19.0415136,101.891973 22.8754591,98.0580276 L47.5580276,73.3754591 C51.3919731,69.5415136 57.6080269,69.5415136 61.4419724,73.3754591 Z" id="Rectangle" fill="url(#linearGradient-2)" opacity="0.0609188988"></path>
                    </g>
                </g>
            </g>
        </g>
    </g>
</svg>