<?xml version="1.0" encoding="UTF-8"?>
<svg width="188px" height="255px" viewBox="0 0 188 255" version="1.1" xmlns="http://www.w3.org/2000/svg" xmlns:xlink="http://www.w3.org/1999/xlink">
    <defs>
        <linearGradient x1="50%" y1="0%" x2="50%" y2="100%" id="linearGradient-1">
            <stop stop-color="#E9ECF4" offset="0%"></stop>
            <stop stop-color="#DBE0F6" offset="100%"></stop>
        </linearGradient>
    </defs>
    <g id="v2" stroke="none" stroke-width="1" fill="none" fill-rule="evenodd">
        <g id="centered" transform="translate(-60.000000, -2752.000000)" fill="url(#linearGradient-1)" fill-rule="nonzero">
            <g id="mobile-first" transform="translate(60.000000, 1715.000000)">
                <g id="Group-5">
                    <g transform="translate(0.000000, 1036.217913)">
                        <path d="M110.511926,8.44997804 L176.332109,74.2701607 C186.555964,84.4940153 186.555964,101.070159 176.332109,111.294013 L110.511926,177.114196 C100.288072,187.338051 83.7119283,187.338051 73.4880736,177.114196 L7.66789097,111.294013 C-2.55596366,101.070159 -2.55596366,84.4940153 7.66789097,74.2701607 L73.4880736,8.44997804 C83.7119283,-1.77387659 100.288072,-1.77387659 110.511926,8.44997804 Z" id="Rectangle" opacity="0.191336496"></path>
                        <path d="M173.121899,221.282327 L185.99976,234.160188 C188.00008,236.160508 188.00008,239.403666 185.99976,241.403986 L173.121899,254.281848 C171.121579,256.282167 167.878421,256.282167 165.878101,254.281848 L153.00024,241.403986 C150.99992,239.403666 150.99992,236.160508 153.00024,234.160188 L165.878101,221.282327 C167.878421,219.282007 171.121579,219.282007 173.121899,221.282327 Z" id="Rectangle"></path>
                    </g>
                </g>
            </g>
        </g>
    </g>
</svg>