<?xml version="1.0" encoding="UTF-8"?>
<svg width="151px" height="204px" viewBox="0 0 151 204" version="1.1" xmlns="http://www.w3.org/2000/svg" xmlns:xlink="http://www.w3.org/1999/xlink">
    <defs>
        <linearGradient x1="50%" y1="0%" x2="50%" y2="100%" id="linearGradient-1">
            <stop stop-color="#E9ECF4" offset="0%"></stop>
            <stop stop-color="#DBE0F6" offset="100%"></stop>
        </linearGradient>
    </defs>
    <g id="v2" stroke="none" stroke-width="1" fill="none" fill-rule="evenodd">
        <g id="centered" transform="translate(-1135.000000, -1642.000000)" fill="url(#linearGradient-1)" fill-rule="nonzero">
            <g id="empower" transform="translate(94.000000, 1168.000000)">
                <g id="Group-4">
                    <g transform="translate(1041.000000, 474.000000)">
                        <path d="M90.6918526,59.2926714 L144.707329,113.308147 C153.097557,121.698376 153.097557,135.301624 144.707329,143.691853 L90.6918526,197.707329 C82.3016241,206.097557 68.6983759,206.097557 60.3081474,197.707329 L6.29267139,143.691853 C-2.09755713,135.301624 -2.09755713,121.698376 6.29267139,113.308147 L60.3081474,59.2926714 C68.6983759,50.9024429 82.3016241,50.9024429 90.6918526,59.2926714 Z" id="Rectangle" opacity="0.181384859"></path>
                        <path d="M19.6127742,0.87513973 L27.1248603,8.38722579 C28.2917132,9.55407877 28.2917132,11.4459212 27.1248603,12.6127742 L19.6127742,20.1248603 C18.4459212,21.2917132 16.5540788,21.2917132 15.3872258,20.1248603 L7.87513973,12.6127742 C6.70828676,11.4459212 6.70828676,9.55407877 7.87513973,8.38722579 L15.3872258,0.87513973 C16.5540788,-0.291713243 18.4459212,-0.291713243 19.6127742,0.87513973 Z" id="Rectangle" opacity="0.611653646"></path>
                    </g>
                </g>
            </g>
        </g>
    </g>
</svg>