<?xml version="1.0" encoding="UTF-8"?>
<svg width="221px" height="311px" viewBox="0 0 221 311" version="1.1" xmlns="http://www.w3.org/2000/svg" xmlns:xlink="http://www.w3.org/1999/xlink">
    <defs>
        <linearGradient x1="50%" y1="14.1742546%" x2="50%" y2="146.66216%" id="linearGradient-1">
            <stop stop-color="#545FE4" offset="0%"></stop>
            <stop stop-color="#4252A6" offset="100%"></stop>
        </linearGradient>
    </defs>
    <g id="v2" stroke="none" stroke-width="1" fill="none" fill-rule="evenodd">
        <g id="centered" transform="translate(-28.000000, -6150.000000)" fill="url(#linearGradient-1)" fill-rule="nonzero">
            <g id="reviews" transform="translate(0.000000, 5256.000000)">
                <g id="Group-11">
                    <g transform="translate(28.000000, 894.000000)">
                        <path d="M212.612774,290.87514 L220.12486,298.387226 C221.291713,299.554079 221.291713,301.445921 220.12486,302.612774 L212.612774,310.12486 C211.445921,311.291713 209.554079,311.291713 208.387226,310.12486 L200.87514,302.612774 C199.708287,301.445921 199.708287,299.554079 200.87514,298.387226 L208.387226,290.87514 C209.554079,289.708287 211.445921,289.708287 212.612774,290.87514 Z" id="Rectangle" opacity="0.366396949"></path>
                        <path d="M132.734433,9.20980383 L211.790196,88.2655667 C224.069935,100.545305 224.069935,120.454695 211.790196,132.734433 L132.734433,211.790196 C120.454695,224.069935 100.545305,224.069935 88.2655667,211.790196 L9.20980383,132.734433 C-3.06993461,120.454695 -3.06993461,100.545305 9.20980383,88.2655667 L88.2655667,9.20980383 C100.545305,-3.06993461 120.454695,-3.06993461 132.734433,9.20980383 Z" id="Rectangle" opacity="0.0392485119"></path>
                    </g>
                </g>
            </g>
        </g>
    </g>
</svg>