<svg id="Layer_1" data-name="Layer 1" xmlns="http://www.w3.org/2000/svg" viewBox="0 0 538 901"><defs><style>.cls-1{fill:#f5f5f5;}.cls-1,.cls-4,.cls-5,.cls-7,.cls-8{fill-rule:evenodd;}.cls-2{fill:#d6d6d6;}.cls-3{fill:#ededed;}.cls-4{fill:#fff;}.cls-5{fill:#02435f;}.cls-6,.cls-7{fill:#6b2c90;}.cls-8{fill:none;stroke:#6b2c90;stroke-miterlimit:22.93;stroke-width:0.22px;}</style></defs><title>Infograth_all</title><polygon class="cls-1" points="231.63 876.44 231.63 872.48 376.54 872.48 376.54 826.42 519.42 826.42 519.42 566.46 399.46 566.46 399.46 620.94 395.5 620.94 395.5 562.5 523.38 562.5 523.38 830.38 380.5 830.38 380.5 876.44 231.63 876.44"/><path class="cls-2" d="M522.87,563V829.88H380v46.06H232.12v-3H377V826.92H519.92V566H399v54.48h-3V563H522.87m1-1H395v59.44h5V567h119v259H376V872H231.12v5H381V830.88H523.87V562Z"/><polygon class="cls-1" points="386.5 620.94 386.5 503.5 442.54 503.5 442.54 307.58 97.46 307.58 97.46 196.46 11.44 196.46 11.44 19.63 15.39 19.63 15.39 192.5 101.42 192.5 101.42 303.63 446.5 303.63 446.5 507.46 390.46 507.46 390.46 620.94 386.5 620.94"/><path class="cls-2" d="M14.9,20.13V193h86V304.13H446V507H390V620.44h-3V504h56V307.08H98V196h-86V20.13h3m1-1h-5V197H97V308.08H442V503H386V621.44h5V508h56V303.13H101.92V192h-86V19.13Z"/><ellipse class="cls-3" cx="396.66" cy="691.04" rx="72.63" ry="14"/><path class="cls-4" d="M401.49,691H416.4c6.48-1.27,7.89-8.68,6.69-11.12l-21.6-32.14V627.07H385.93v20.72l-21.59,32.13c-1.2,2.44.21,9.85,6.69,11.12h30.46Z"/><path class="cls-5" d="M401.49,692.81H370.86l-.17,0a10.22,10.22,0,0,1-7.51-6.15c-.92-2.11-1.5-5.34-.43-7.5l.05-.11,21.35-31.75v-20.2h-.88a3.38,3.38,0,1,1,0-6.73H404c5.15,0,4.89,6.73,0,6.73h-.78v20.19L424.63,679l.05.11c1.07,2.16.5,5.38-.43,7.5a10.22,10.22,0,0,1-7.51,6.15l-.17,0Zm0-1.78H416.4c6.48-1.27,7.89-8.68,6.69-11.12l-21.6-32.14V627.07H385.93v20.72l-21.59,32.13c-1.2,2.44.21,9.85,6.69,11.12h30.46Zm-17.34-65.74H404c2.52,0,2.82-3.18,0-3.18H383.26c-2.64,0-2.38,3.18,0,3.18Z"/><rect class="cls-6" x="394.15" y="634.3" width="5.03" height="2.26"/><rect class="cls-6" x="394.15" y="638.42" width="5.03" height="2.26"/><rect class="cls-6" x="394.15" y="642.54" width="5.03" height="2.26"/><rect class="cls-6" x="394.15" y="646.67" width="5.03" height="2.26"/><path class="cls-7" d="M369,673l-4.65,6.93c-1.2,2.44.21,9.85,6.69,11.12H416.4c6.48-1.27,7.89-8.68,6.69-11.12l-.18-.27c-11.46-2.89-15.24,1-22.19,1.93a1.71,1.71,0,0,0-3.42.18,25.85,25.85,0,0,1-4.54-.58,1.71,1.71,0,0,0-3.28-1,32.75,32.75,0,0,1-3.92-1.84,3.39,3.39,0,1,0-6-3.19A24.45,24.45,0,0,0,369,673Zm7.28,8.62a2.71,2.71,0,1,1-2.71,2.71,2.71,2.71,0,0,1,2.71-2.71Zm7.46.65a1.2,1.2,0,1,1-1.2,1.2A1.2,1.2,0,0,1,383.73,682.26Z"/><path class="cls-8" d="M369,673l-4.65,6.93c-1.2,2.44.21,9.85,6.69,11.12H416.4c6.48-1.27,7.89-8.68,6.69-11.12l-.18-.27c-11.46-2.89-15.24,1-22.19,1.93a1.71,1.71,0,0,0-3.42.18,25.85,25.85,0,0,1-4.54-.58,1.71,1.71,0,0,0-3.28-1,32.75,32.75,0,0,1-3.92-1.84,3.39,3.39,0,1,0-6-3.19A24.45,24.45,0,0,0,369,673m7.28,8.62a2.71,2.71,0,1,1-2.71,2.71,2.71,2.71,0,0,1,2.71-2.71Zm7.46.65a1.2,1.2,0,1,1-1.2,1.2A1.2,1.2,0,0,1,383.73,682.26Z"/><circle class="cls-6" cx="398.6" cy="670.72" r="1.2"/><path class="cls-4" d="M384.15,625.29H404c2.52,0,2.82-3.18,0-3.18H383.26c-2.64,0-2.38,3.18,0,3.18Z"/></svg>