<svg id="Layer_1" data-name="Layer 1" xmlns="http://www.w3.org/2000/svg" viewBox="0 0 406 593"><defs><style>.cls-1{fill:#f5f5f5;}.cls-1,.cls-10,.cls-12,.cls-13,.cls-4,.cls-5{fill-rule:evenodd;}.cls-2{fill:#d6d6d6;}.cls-3{fill:#ededed;}.cls-4{fill:#094064;}.cls-12,.cls-5,.cls-6{fill:#6b2c90;}.cls-7{fill:silver;}.cls-10,.cls-8{fill:#fff;}.cls-9{fill:#cbcbca;}.cls-11{fill:#d9d7de;}.cls-12{stroke:#6b2c90;stroke-miterlimit:22.93;stroke-width:0.22px;}.cls-13{fill:#8053a1;}</style></defs><title>Infograth_all</title><polygon class="cls-1" points="227.57 429.19 227.57 336.44 170.54 336.44 170.54 296.38 7.54 296.38 7.54 116.46 232.42 116.46 232.42 12.63 273.54 12.63 273.54 76.25 400.54 76.25 400.54 80.25 269.54 80.25 269.54 16.63 236.42 16.63 236.42 120.46 11.54 120.46 11.54 292.38 174.54 292.38 174.54 332.44 231.57 332.44 231.57 429.19 227.57 429.19"/><path class="cls-2" d="M273,13.13V76.75H400v3H270V16.13H235.92V120H11V292.87H174v40.06h57v95.75h-3V335.94H171V295.87H8V117H232.92V13.13H273m1-1H231.92V116H7V296.87H170v40.06h57v92.75h5V331.94H175V291.87H12V121H236.92V17.13H269V80.75H401v-5H274V12.13Z"/><ellipse class="cls-3" cx="210.91" cy="573.22" rx="181.75" ry="14"/><path class="cls-4" d="M195.44,510.37c-4.41-1.37-5.88-4.62-5.92-8.87V434.78h-.88a3.38,3.38,0,1,1,0-6.74h20.79c5.16,0,4.9,6.74,0,6.74h-.78V501.4c0,4.17-1.2,7.46-5.83,8.94a14,14,0,0,1-7.39,0ZM189.51,433h19.92c2.52,0,2.83-3.18,0-3.18H188.63c-2.65,0-2.39,3.18,0,3.18Zm9.57,76a9.45,9.45,0,0,0,2.45-.18,6.36,6.36,0,0,0,5.11-5.66l.23-2.36V434.78H191.29v66.3l.09,2C191.92,506.7,194.72,509.26,199.08,509Z"/><path class="cls-5" d="M195.43,508.49c-3.34-1.31-4.14-3.84-4.14-7.07V461.75h9.63v39.06c0,2.6,3.26,2.64,3.26,0V461.75h2.69V502c0,2.89-1.15,5.23-4,6.42A11.62,11.62,0,0,1,195.43,508.49Z"/><path class="cls-6" d="M199.09,509.15a10.56,10.56,0,0,1-3.69-.59h0c-3.69-1.44-4.18-4.41-4.18-7.13V461.68H201v39.13a1.67,1.67,0,0,0,1.57,1.9,1.43,1.43,0,0,0,1.06-.47,2,2,0,0,0,.49-1.42V461.68h2.83V502c0,3.18-1.34,5.36-4,6.48A10.4,10.4,0,0,1,199.09,509.15Zm-7.73-47.33v39.6c0,2.67.49,5.59,4.09,7h0a11.55,11.55,0,0,0,7.44-.06c2.59-1.1,3.91-3.23,3.91-6.35V461.82h-2.55v39a1.79,1.79,0,0,1-1.69,2,1.82,1.82,0,0,1-1.71-2v-39Z"/><path class="cls-4" d="M225.92,510.37c-4.41-1.37-5.88-4.62-5.92-8.87V434.78h-.88a3.38,3.38,0,1,1,0-6.74h20.79c5.16,0,4.9,6.74,0,6.74h-.78V501.4c0,4.17-1.2,7.46-5.83,8.94a14,14,0,0,1-7.39,0ZM220,433h19.92c2.52,0,2.83-3.18,0-3.18H219.11c-2.65,0-2.39,3.18,0,3.18Zm9.57,76a9.45,9.45,0,0,0,2.45-.18,6.36,6.36,0,0,0,5.11-5.66l.23-2.36V434.78H221.78v66.3l.09,2C222.41,506.7,225.21,509.26,229.57,509Z"/><path class="cls-5" d="M225.91,508.49c-3.34-1.31-4.14-3.84-4.14-7.07V461.75h9.63v39.06c0,2.6,3.26,2.64,3.26,0V461.75h2.69V502c0,2.89-1.15,5.23-4,6.42A11.62,11.62,0,0,1,225.91,508.49Z"/><path class="cls-6" d="M229.58,509.15a10.56,10.56,0,0,1-3.69-.59h0c-3.69-1.44-4.18-4.41-4.18-7.13V461.68h9.78v39.13a1.67,1.67,0,0,0,1.57,1.9,1.43,1.43,0,0,0,1.06-.47,2,2,0,0,0,.49-1.42V461.68h2.83V502c0,3.18-1.34,5.36-4,6.48A10.4,10.4,0,0,1,229.58,509.15Zm-7.73-47.33v39.6c0,2.67.49,5.59,4.09,7h0a11.55,11.55,0,0,0,7.44-.06c2.59-1.1,3.91-3.23,3.91-6.35V461.82h-2.55v39a1.79,1.79,0,0,1-1.69,2,1.82,1.82,0,0,1-1.71-2v-39Z"/><path class="cls-4" d="M256.73,510.37c-4.41-1.37-5.88-4.62-5.92-8.87V434.78h-.88a3.38,3.38,0,1,1,0-6.74h20.79c5.16,0,4.9,6.74,0,6.74h-.78V501.4c0,4.17-1.2,7.46-5.83,8.94a14,14,0,0,1-7.39,0ZM250.81,433h19.92c2.52,0,2.83-3.18,0-3.18H249.92c-2.65,0-2.39,3.18,0,3.18Zm9.57,76a9.45,9.45,0,0,0,2.45-.18,6.36,6.36,0,0,0,5.11-5.66l.23-2.36V434.78H252.59v66.3l.09,2C253.22,506.7,256,509.26,260.38,509Z"/><path class="cls-5" d="M256.73,508.49c-3.34-1.31-4.14-3.84-4.14-7.07V461.75h9.63v39.06c0,2.6,3.26,2.64,3.26,0V461.75h2.69V502c0,2.89-1.15,5.23-4,6.42A11.62,11.62,0,0,1,256.73,508.49Z"/><path class="cls-6" d="M260.39,509.15a10.56,10.56,0,0,1-3.69-.59h0c-3.69-1.44-4.18-4.41-4.18-7.13V461.68h9.78v39.13a1.67,1.67,0,0,0,1.57,1.9,1.43,1.43,0,0,0,1.06-.47,2,2,0,0,0,.49-1.42V461.68h2.83V502c0,3.18-1.34,5.36-4,6.48A10.4,10.4,0,0,1,260.39,509.15Zm-7.73-47.33v39.6c0,2.67.49,5.59,4.09,7h0a11.55,11.55,0,0,0,7.44-.06c2.59-1.1,3.91-3.23,3.91-6.35V461.82h-2.55v39a1.79,1.79,0,0,1-1.69,2,1.82,1.82,0,0,1-1.71-2v-39Z"/><rect class="cls-7" x="161.83" y="568.23" width="14.3" height="4.98" rx="2.49" ry="2.49"/><rect class="cls-7" x="166.23" y="389.68" width="5.55" height="183.53" rx="2.78" ry="2.78"/><rect class="cls-7" x="215" y="376.49" width="5.55" height="127.89" rx="2.78" ry="2.78" transform="translate(-222.65 658.21) rotate(-90)"/><circle class="cls-8" cx="168.9" cy="440.43" r="5.52"/><path class="cls-9" d="M168.9,436.53a3.9,3.9,0,1,1-3.9,3.9,3.9,3.9,0,0,1,3.9-3.9m0-3.25a7.15,7.15,0,1,0,7.15,7.15,7.15,7.15,0,0,0-7.15-7.15Z"/><path class="cls-10" d="M98.91,499.24h19.33V495.8a2.31,2.31,0,0,0-2.54-2.54H78.38c-1.91-.09-2.56,1.09-1.21,2.43l4.63,4.52V568.9a2.31,2.31,0,0,0,2.54,2.54H115.7a2.31,2.31,0,0,0,2.54-2.54V501.28H98.91v-2Z"/><rect class="cls-11" x="109.62" y="502.6" width="8.62" height="55.49"/><rect class="cls-6" x="87.24" y="497.91" width="5.03" height="2.26"/><rect class="cls-6" x="87.24" y="502.04" width="5.03" height="2.26"/><rect class="cls-6" x="87.24" y="506.16" width="5.03" height="2.26"/><rect class="cls-6" x="87.24" y="510.29" width="5.03" height="2.26"/><rect class="cls-6" x="87.24" y="514.41" width="5.03" height="2.26"/><rect class="cls-6" x="87.24" y="518.54" width="5.03" height="2.26"/><path class="cls-4" d="M98.92,491.48l5.36-17.29a3.28,3.28,0,1,1,6.21,2l-4.74,15.29h2.69l6.88-19.78a3.4,3.4,0,0,1,4.12-2.46,3.35,3.35,0,0,1,2.09,4.46l-6.25,17.78h.4a4.08,4.08,0,0,1,4.35,4.36v73a4.08,4.08,0,0,1-4.35,4.36H84.37A4.08,4.08,0,0,1,80,568.85V501l-4.1-4a3.34,3.34,0,0,1-1.06-3.62,3.45,3.45,0,0,1,3.55-1.85Zm0,7.76h19.33V495.8a2.31,2.31,0,0,0-2.54-2.54H78.38c-1.91-.09-2.56,1.09-1.21,2.43l4.63,4.52V568.9a2.31,2.31,0,0,0,2.54,2.54H115.7a2.31,2.31,0,0,0,2.54-2.54V501.28H98.91v-2Zm11.31-7.76h3.11l6.49-18.3c.83-2.35-2.12-3.22-2.81-.95l-6.78,19.25Zm-9.45,0h3.11l4.9-15.82c.74-2.38-2.12-3.22-2.81-.95Z"/><path class="cls-10" d="M129.09,538.85v29.38a3.21,3.21,0,0,0,3.2,3.2h13.5a3.21,3.21,0,0,0,3.2-3.2V538.85Z"/><path class="cls-12" d="M139,544.54a3,3,0,0,1,3,3h7v10.11h-19.9V547.54h7A3,3,0,0,1,139,544.54Z"/><path class="cls-4" d="M148,526.19h-2.47v6l5.26,4.83v31.16a5,5,0,0,1-5,5h-13.5a5,5,0,0,1-5-5V537.06l5.26-4.83v-6H130.1v-5c.27-2.31,2.14-3,4.2-3h9.46c2.06,0,3.93.68,4.2,3v5Zm-4.25,0h-9.38V533l-4.46,4h18.29l-4.46-4v-6.83Zm-14.64,12.65v29.38a3.21,3.21,0,0,0,3.2,3.2h13.5a3.21,3.21,0,0,0,3.2-3.2V538.85Zm10-14.44h7.15v-3c-.12-1.05-.86-1.4-2.45-1.41h-9.42c-1.59,0-2.32.36-2.45,1.41v3Z"/><rect class="cls-11" x="134.35" y="526.19" width="9.38" height="5.78"/><rect class="cls-11" x="133.56" y="560.4" width="10.95" height="2.09"/><path class="cls-12" d="M315.85,547.49H278a5.15,5.15,0,0,0-5.13,5.13v11.87a5.15,5.15,0,0,0,5.13,5.13h17.78a5.15,5.15,0,0,0,5.13-5.13v-8.69a4.12,4.12,0,0,1,8.22,0v8.69a5.15,5.15,0,0,0,5.13,5.13h17.78a5.15,5.15,0,0,0,5.13-5.13V552.62a5.15,5.15,0,0,0-5.13-5.13Z"/><path class="cls-4" d="M307.38,555.8v8.69a7,7,0,0,0,6.93,6.93h17.78a7,7,0,0,0,6.23-3.89c1.1,1.33,2,2.84,4,3.12,3.31.14,4-3.25,3-5.17a16.73,16.73,0,0,0-6.32-5.37v-7.49a7,7,0,0,0-6.93-6.93H278a7,7,0,0,0-6.93,6.93v7.49a16.73,16.73,0,0,0-6.32,5.37c-1,1.92-.29,5.31,3,5.17,2-.28,2.91-1.79,4-3.12a7,7,0,0,0,6.23,3.89h17.78a7,7,0,0,0,6.93-6.93v-8.69a2.33,2.33,0,0,1,4.62,0Zm-36.26,6.37v3.46c-.4.41-.75.85-1.11,1.31a9.41,9.41,0,0,1-1.27,1.4,2.28,2.28,0,0,1-1.09.53,1.3,1.3,0,0,1-1.46-1.32,2.34,2.34,0,0,1,.15-1.13,14.53,14.53,0,0,1,4.77-4.24ZM339,564.5v-2.33a14.53,14.53,0,0,1,4.77,4.24,2.24,2.24,0,0,1-.09,1.9,1.28,1.28,0,0,1-1.21.55,4.39,4.39,0,0,1-2.36-1.93c-.36-.45-.72-.9-1.11-1.31V564.5Zm-23.17-17h16.24a5.15,5.15,0,0,1,5.13,5.13V564.5a5.15,5.15,0,0,1-5.13,5.13H314.31a5.15,5.15,0,0,1-5.13-5.13V555.8a4.12,4.12,0,0,0-8.22,0v8.69a5.15,5.15,0,0,1-5.13,5.13H278a5.15,5.15,0,0,1-5.13-5.13V552.63A5.15,5.15,0,0,1,278,547.5h37.8Z"/><path class="cls-13" d="M314.67,561.69c-1.72,1.83-4.28-.14-2.25-2.25l3.75-3.75c1.72-1.83,4.28.14,2.25,2.25Z"/><path class="cls-13" d="M317.87,565c-1.72,1.83-4.28-.14-2.25-2.25l9.82-9.82c1.72-1.83,4.28.14,2.25,2.25Z"/><path class="cls-13" d="M278.43,561.69c-1.72,1.83-4.28-.14-2.25-2.25l3.75-3.75c1.72-1.83,4.28.14,2.25,2.25Z"/><path class="cls-13" d="M281.63,565c-1.72,1.83-4.28-.14-2.25-2.25l9.82-9.82c1.72-1.83,4.28.14,2.25,2.25Z"/></svg>