<svg id="Layer_1" data-name="Layer 1" xmlns="http://www.w3.org/2000/svg" viewBox="0 0 1920 1510"><defs><style>.cls-1{fill:#d3d4d3;}.cls-2,.cls-5{fill:#fff;}.cls-3{fill:silver;}.cls-4{fill:#eaeaea;}.cls-10,.cls-12,.cls-13,.cls-14,.cls-15,.cls-5,.cls-8,.cls-9{fill-rule:evenodd;}.cls-14,.cls-6{fill:#d9d7de;}.cls-7,.cls-9{fill:#6b2c90;}.cls-8{fill:#094064;}.cls-10,.cls-11{fill:#02435f;}.cls-12{fill:#ffda15;}.cls-13{fill:#fbae17;}.cls-15{fill:#8053a1;}.cls-16{fill:#231f20;}.cls-17{fill:#cbcbca;}</style></defs><title>header-lab</title><path class="cls-1" d="M525.83,1335.75v2.92H346.17v116.08h31.71V1487h32.25v2.92H375v-32.25H343.25v-119H343v-2.92H525.83m1-1H342v4.92h.25v119H374v32.25h37.17V1486H378.87v-32.25H347.17V1339.67H526.83v-4.92Z"/><path class="cls-1" d="M1042.27,220.29V199H979.52V370.56H923V457H793V699.92h56.92V822H540v61.06H182v350.65H486.83v-4.92H186.92V888h358V827H854.83V695H797.92V461.92h130V375.47h56.6v-4.92h0V204h52.75v21.31h104v42.44h5V220.29Zm103,46.44h-3V224.29h-104V203H983.52v170h0v1.54h-56.6v86.44h-130V696h56.92V826H543.92V887h-358v342.81H485.83v2.92H183V884.11H541V823H850.92V698.92H794V458H924V371.56h56.51V200h60.75v21.31h104Z"/><polygon class="cls-2" points="1290.27 214.94 1286.27 214.94 1286.27 112.77 1176.27 112.77 1176.27 36.77 1104.43 36.77 1104.43 112.21 1100.43 112.21 1100.43 32.77 1180.27 32.77 1180.27 108.77 1290.27 108.77 1290.27 214.94"/><path class="cls-1" d="M1290.77,215.44h-5V113.27h-110v-76h-70.84v75.44h-5V32.27h80.84v76h110Zm-4-1h3V109.27h-110v-76h-78.84v78.44h3V36.27h72.84v76h110Z"/><rect class="cls-3" x="1048.05" y="91.84" width="7.67" height="438.86" rx="3.83" ry="3.83"/><rect class="cls-3" x="1208.47" y="196.02" width="7.67" height="224.04" rx="3.83" ry="3.83"/><ellipse class="cls-4" cx="1257.52" cy="550.13" rx="311.5" ry="15.82"/><path class="cls-5" d="M1227.49,426.52h32.07v-5.71a3.83,3.83,0,0,0-4.22-4.22h-61.93c-3.17-.15-4.25,1.81-2,4l7.69,7.5v114a3.83,3.83,0,0,0,4.22,4.22h52a3.83,3.83,0,0,0,4.22-4.22V429.89h-32.07v-3.37Z"/><rect class="cls-6" x="1245.25" y="432.1" width="14.31" height="92.06"/><rect class="cls-7" x="1208.13" y="424.31" width="8.34" height="3.75"/><rect class="cls-7" x="1208.13" y="431.16" width="8.34" height="3.75"/><rect class="cls-7" x="1208.13" y="438" width="8.34" height="3.75"/><rect class="cls-7" x="1208.13" y="444.84" width="8.34" height="3.75"/><rect class="cls-7" x="1208.13" y="451.69" width="8.34" height="3.75"/><rect class="cls-7" x="1208.13" y="458.53" width="8.34" height="3.75"/><path class="cls-8" d="M1227.49,413.64l8.9-28.69c.92-3,3.71-5,6.83-4.08s4.41,4.35,3.47,7.4l-7.87,25.37h4.46l11.41-32.81c1-2.92,3.71-5,6.83-4.08a5.55,5.55,0,0,1,3.47,7.4l-10.37,29.49h.67a6.77,6.77,0,0,1,7.21,7.24V542a6.77,6.77,0,0,1-7.21,7.24h-51.94a6.77,6.77,0,0,1-7.21-7.24V429.36l-6.8-6.63c-1.6-1.56-2.66-3.8-1.75-6,1-2.37,3.52-3.17,5.88-3.08Zm0,12.88h32.07v-5.71a3.83,3.83,0,0,0-4.22-4.22h-61.93c-3.17-.15-4.25,1.81-2,4l7.69,7.5v114a3.83,3.83,0,0,0,4.22,4.22h52a3.83,3.83,0,0,0,4.22-4.22V429.89h-32.07v-3.37Zm18.77-12.88h5.16l10.76-30.36c1.38-3.89-3.52-5.35-4.67-1.57l-11.25,31.94Zm-15.68,0h5.16l8.14-26.24c1.22-3.95-3.52-5.35-4.67-1.57Z"/><path class="cls-8" d="M1392.81,533.57c-6.73-2.09-9-7-9-13.52V418.28h-1.34c-7.24,0-7.64-10.28,0-10.28h31.71c7.87,0,7.47,10.28,0,10.28H1413V519.89c0,6.37-1.83,11.37-8.89,13.64a21.28,21.28,0,0,1-11.27,0Zm-9-118h30.39c3.84,0,4.31-4.85,0-4.85h-31.75c-4,0-3.64,4.85,0,4.85Zm14.6,116a14.42,14.42,0,0,0,3.74-.27c4.54-1,7.14-4.26,7.79-8.63l.35-3.61V418.28h-23.77V519.41l.14,3.1C1387.45,528,1391.72,531.89,1398.38,531.54Z"/><path class="cls-9" d="M1392.8,530.71c-5.1-2-6.31-5.86-6.31-10.78V459.41h14.7V519c0,4,5,4,5,0V459.41h4.1v61.41c0,4.41-1.75,8-6,9.79A17.72,17.72,0,0,1,1392.8,530.71Z"/><path class="cls-7" d="M1398.39,531.71a16.11,16.11,0,0,1-5.63-.9h0c-5.62-2.2-6.38-6.73-6.38-10.88V459.31h14.91V519c0,2,1.24,2.89,2.39,2.89a2.19,2.19,0,0,0,1.62-.71A3.12,3.12,0,0,0,1406,519V459.31h4.32v61.52c0,4.85-2.05,8.18-6.09,9.89A15.86,15.86,0,0,1,1398.39,531.71Zm-11.79-72.19v60.41c0,4.07.74,8.53,6.24,10.68h0a17.63,17.63,0,0,0,11.35-.09c4-1.67,6-4.93,6-9.69v-61.3h-3.89V519c0,2.13-1.34,3.1-2.58,3.1s-2.61-1.07-2.61-3.11V459.52Z"/><path class="cls-8" d="M1439.31,533.57c-6.73-2.09-9-7-9-13.52V418.28h-1.34c-7.24,0-7.64-10.28,0-10.28h31.71c7.87,0,7.47,10.28,0,10.28h-1.19V519.89c0,6.37-1.83,11.37-8.89,13.64a21.28,21.28,0,0,1-11.27,0Zm-9-118h30.39c3.84,0,4.31-4.85,0-4.85h-31.75c-4,0-3.64,4.85,0,4.85Zm14.6,116a14.42,14.42,0,0,0,3.74-.27c4.54-1,7.14-4.26,7.79-8.63l.35-3.61V418.28H1433V519.41l.14,3.1C1434,528,1438.22,531.89,1444.88,531.54Z"/><path class="cls-9" d="M1439.3,530.71c-5.1-2-6.31-5.86-6.31-10.78V459.41h14.7V519c0,4,5,4,5,0V459.41h4.1v61.41c0,4.41-1.75,8-6,9.79A17.72,17.72,0,0,1,1439.3,530.71Z"/><path class="cls-7" d="M1444.89,531.71a16.11,16.11,0,0,1-5.63-.9h0c-5.62-2.2-6.38-6.73-6.38-10.88V459.31h14.91V519c0,2,1.24,2.89,2.39,2.89a2.19,2.19,0,0,0,1.62-.71,3.12,3.12,0,0,0,.74-2.17V459.31h4.32v61.52c0,4.85-2.05,8.18-6.09,9.89A15.86,15.86,0,0,1,1444.89,531.71Zm-11.79-72.19v60.41c0,4.07.74,8.53,6.24,10.68h0a17.63,17.63,0,0,0,11.35-.09c4-1.67,6-4.93,6-9.69v-61.3h-3.89V519c0,2.13-1.34,3.1-2.58,3.1s-2.61-1.07-2.61-3.11V459.52Z"/><path class="cls-8" d="M1486.31,533.57c-6.73-2.09-9-7-9-13.52V418.28h-1.34c-7.24,0-7.64-10.28,0-10.28h31.71c7.87,0,7.47,10.28,0,10.28h-1.19V519.89c0,6.37-1.83,11.37-8.89,13.64a21.28,21.28,0,0,1-11.27,0Zm-9-118h30.39c3.84,0,4.31-4.85,0-4.85h-31.75c-4,0-3.64,4.85,0,4.85Zm14.6,116a14.42,14.42,0,0,0,3.74-.27c4.54-1,7.14-4.26,7.79-8.63l.35-3.61V418.28H1480V519.41l.14,3.1C1481,528,1485.22,531.89,1491.88,531.54Z"/><path class="cls-9" d="M1486.3,530.71c-5.1-2-6.31-5.86-6.31-10.78V459.41h14.7V519c0,4,5,4,5,0V459.41h4.1v61.41c0,4.41-1.75,8-6,9.79A17.72,17.72,0,0,1,1486.3,530.71Z"/><path class="cls-7" d="M1491.89,531.71a16.11,16.11,0,0,1-5.63-.9h0c-5.62-2.2-6.38-6.73-6.38-10.88V459.31h14.91V519c0,2,1.24,2.89,2.39,2.89a2.19,2.19,0,0,0,1.62-.71,3.12,3.12,0,0,0,.74-2.17V459.31h4.32v61.52c0,4.85-2.05,8.18-6.09,9.89A15.86,15.86,0,0,1,1491.89,531.71Zm-11.79-72.19v60.41c0,4.07.74,8.53,6.24,10.68h0a17.63,17.63,0,0,0,11.35-.09c4-1.67,6-4.93,6-9.69v-61.3h-3.89V519c0,2.13-1.34,3.1-2.58,3.1s-2.61-1.07-2.61-3.11V459.52Z"/><polygon class="cls-5" points="1270.02 540.23 1271.02 446.72 1274.77 443.48 1306.26 443.73 1310.93 448.07 1310.34 529.66 1305.02 529.66 1301.66 531.61 1300.38 538.01 1308.65 544.98 1306.26 547.38 1274.52 547.38 1270.02 540.23"/><path class="cls-5" d="M1302.39,532.65a2.46,2.46,0,0,0,0,3.45l10.14,10.54a2.44,2.44,0,0,0,3.45,0l2.34-2.29a2.46,2.46,0,0,0,0-3.45l-10.14-10.54a2.44,2.44,0,0,0-3.45,0Z"/><path class="cls-10" d="M1280,442.46h20v-7.31h-20v7.31Zm3.84-10.05h12.35v-3h-12.35v3Zm26.8,112.33a5.63,5.63,0,0,1-5.33,3.89h-30.57a5.62,5.62,0,0,1-5.6-5.6v-95a5.62,5.62,0,0,1,5.6-5.6h2.53V432.41h3.84v-5.72H1299v5.72h3.84v10.05h2.53a5.62,5.62,0,0,1,5.6,5.6v85.18l-2.74-2.85V448.07a2.87,2.87,0,0,0-2.86-2.86h-30.57a2.87,2.87,0,0,0-2.86,2.86v95a2.87,2.87,0,0,0,2.86,2.86h30.57a2.87,2.87,0,0,0,2.86-2.86v-.85Z"/><path class="cls-9" d="M1271.9,461.82h10.73a7.42,7.42,0,0,0,14.83,0h10.73v27.64H1271.9Z"/><path class="cls-7" d="M1308.3,489.56h-36.51V461.71h10.95v.11a7.31,7.31,0,0,0,14.62,0v-.11h10.95Zm-36.29-.22h36.08V461.92h-10.52a7.52,7.52,0,0,1-15,0H1272Z"/><path class="cls-9" d="M1290,467.68a6,6,0,1,0-6-6A6,6,0,0,0,1290,467.68Z"/><path class="cls-10" d="M1300.47,530.69l2.34-2.29a5.19,5.19,0,0,1,7.35.1L1320.31,539a5.2,5.2,0,0,1-.09,7.32l-2.34,2.29a5.19,5.19,0,0,1-7.35-.09L1300.38,538a5.2,5.2,0,0,1,.09-7.32Zm1.92,2a2.46,2.46,0,0,0,0,3.45l10.14,10.54a2.44,2.44,0,0,0,3.45,0l2.34-2.29a2.46,2.46,0,0,0,0-3.45l-10.14-10.54a2.44,2.44,0,0,0-3.45,0Z"/><circle class="cls-11" cx="1306.26" cy="534.31" r="2.39"/><path class="cls-12" d="M1293.28,424.55c13.31-5.11,1.78-24.15-3.23-28.16-5,4-16.34,22.73-3.57,28C1289.24,425.56,1290.49,425.62,1293.28,424.55Z"/><path class="cls-13" d="M1291.7,424.93c6.81-2.62.91-12.37-1.66-14.42-2.55,2-8.37,11.64-1.83,14.35A3.78,3.78,0,0,0,1291.7,424.93Z"/><rect class="cls-7" x="1280.03" y="435.15" width="20.03" height="7.31"/><path class="cls-7" d="M1300.17,442.57h-20.25V435h20.25Zm-20-.22H1300v-7.09h-19.82Z"/><rect class="cls-7" x="1283.87" y="429.43" width="12.35" height="2.98"/><path class="cls-7" d="M1296.33,432.52h-12.57v-3.2h12.57ZM1284,432.3h12.14v-2.76H1284Z"/><path class="cls-10" d="M1301,324.8h-46.87l-.26-.05a15.63,15.63,0,0,1-11.49-9.41c-1.41-3.23-2.29-8.17-.66-11.47l.08-.16,32.67-48.59V224.21h-1.35c-7.26,0-7.65-10.3,0-10.3h31.76c7.88,0,7.48,10.3,0,10.3h-1.2V255.1l32.69,48.61.08.16c1.63,3.31.76,8.24-.66,11.47a15.63,15.63,0,0,1-11.49,9.41l-.26.05Zm0-2.72h22.81c9.91-1.94,12.08-13.28,10.23-17l-33-49.17v-31.7h-23.81v31.7l-33,49.16c-1.84,3.73.32,15.07,10.23,17H1301Zm-26.53-100.59h30.44c3.85,0,4.32-4.86,0-4.86h-31.8c-4,0-3.65,4.86,0,4.86Z"/><rect class="cls-7" x="1289.75" y="235.27" width="7.69" height="3.46"/><rect class="cls-7" x="1289.75" y="241.58" width="7.69" height="3.46"/><rect class="cls-7" x="1289.75" y="247.88" width="7.69" height="3.46"/><rect class="cls-7" x="1289.75" y="254.19" width="7.69" height="3.46"/><path class="cls-9" d="M1251.27,294.48l-7.12,10.6c-1.84,3.73.32,15.07,10.23,17h69.42c9.91-1.94,12.08-13.28,10.23-17l-.28-.41c-17.53-4.42-23.31,1.47-34,3a2.62,2.62,0,0,0-5.23.28,39.55,39.55,0,0,1-6.94-.89,2.62,2.62,0,0,0-5-1.51,50.1,50.1,0,0,1-6-2.82,5.19,5.19,0,1,0-9.15-4.87,37.41,37.41,0,0,0-16.21-3.31Zm11.14,13.19a4.14,4.14,0,1,1-4.14,4.14,4.14,4.14,0,0,1,4.14-4.14Zm11.41,1a1.84,1.84,0,1,1-1.84,1.84A1.84,1.84,0,0,1,1273.81,308.66Z"/><path class="cls-7" d="M1301,322.19h-46.61a12.9,12.9,0,0,1-9.31-7.23c-1.93-3.89-2-8-1-9.94l7.16-10.66h.23a37.42,37.42,0,0,1,16,3.28,5.29,5.29,0,0,1,9.35,5,49.43,49.43,0,0,0,5.78,2.72,2.73,2.73,0,0,1,5.21,1.57,39.32,39.32,0,0,0,6.7.86,2.73,2.73,0,0,1,5.43-.29,55.52,55.52,0,0,0,8.53-2.09c6.4-1.95,13-4,25.35-.84h0l.3.45c1,1.93.92,6.06-1,9.95a12.9,12.9,0,0,1-9.29,7.23Zm-49.66-27.61-7.09,10.55c-.91,1.85-.87,5.9,1,9.73a12.69,12.69,0,0,0,9.14,7.11h69.4a12.69,12.69,0,0,0,9.12-7.11c1.9-3.83,1.94-7.88,1-9.75l-.25-.37c-12.25-3.08-18.83-1.08-25.2.85a55.13,55.13,0,0,1-8.67,2.11l-.11,0v-.11a2.51,2.51,0,0,0-5,.27V308h-.11a39.46,39.46,0,0,1-7-.9l-.11,0,0-.11a2.51,2.51,0,0,0-4.81-1.45l0,.11-.1,0a49.63,49.63,0,0,1-6-2.83l-.1-.05.05-.1a5.08,5.08,0,1,0-9-4.77l0,.09-.09,0a37.21,37.21,0,0,0-16-3.3Zm11.08,21.48a4.25,4.25,0,1,1,4.25-4.25A4.26,4.26,0,0,1,1262.4,316.06Zm0-8.29a4,4,0,1,0,4,4A4,4,0,0,0,1262.4,307.78Zm11.41,4.67a2,2,0,1,1,2-2A2,2,0,0,1,1273.81,312.45Zm0-3.69a1.73,1.73,0,1,0,1.73,1.73A1.74,1.74,0,0,0,1273.81,308.76Z"/><circle class="cls-7" cx="1296.56" cy="291" r="1.84"/><path class="cls-9" d="M1495.36,213a4.47,4.47,0,0,1,4.47,4.47h10.35v15.06h-29.64V217.51h10.35A4.47,4.47,0,0,1,1495.36,213Z"/><path class="cls-7" d="M1510.29,232.68h-29.87V217.4h10.36a4.58,4.58,0,0,1,9.16,0h10.36Zm-29.64-.23h29.41V217.62h-10.35v-.11a4.35,4.35,0,0,0-8.71,0v.11h-10.35Z"/><path class="cls-8" d="M1508.67,185.72H1505v9l7.84,7.19v46.41a7.45,7.45,0,0,1-7.43,7.43h-20.1a7.45,7.45,0,0,1-7.43-7.43V201.91l7.84-7.19v-9H1482v-7.35l0-.15c.4-3.45,3.19-4.42,6.26-4.45h14.08c3.07,0,5.86,1,6.26,4.45l0,.15v7.35Zm-6.33,0h-14v10.17l-6.64,6H1509l-6.64-6V185.72Zm-21.8,18.85v43.75a4.79,4.79,0,0,0,4.77,4.77h20.1a4.79,4.79,0,0,0,4.77-4.77V204.57Zm14.82-21.51H1506v-4.53c-.18-1.56-1.28-2.08-3.64-2.1h-14c-2.36,0-3.46.54-3.64,2.1v4.53Z"/><rect class="cls-6" x="1488.38" y="185.72" width="13.96" height="8.61"/><rect class="cls-6" x="1487.2" y="236.66" width="16.31" height="3.11"/><path class="cls-9" d="M1153.07,332.66a4,4,0,0,0-8.06,0h-36.34a36.58,36.58,0,0,0,72.84,0Zm15.52,3a1.25,1.25,0,1,1-1.25,1.25,1.25,1.25,0,0,1,1.25-1.25ZM1157.43,343a5.35,5.35,0,1,1-5.35,5.35,5.35,5.35,0,0,1,5.35-5.35Zm-21.76-2.62a2.78,2.78,0,1,1-2.78,2.78A2.78,2.78,0,0,1,1135.67,340.39Z"/><path class="cls-7" d="M1145.09,366a36.69,36.69,0,0,1-36.53-33.3v-.12h36.36a4.16,4.16,0,0,1,8.26,0h28.46v.12a36.69,36.69,0,0,1-36.53,33.3Zm-36.3-33.2a36.47,36.47,0,0,0,72.6,0H1153v-.1a3.94,3.94,0,0,0-7.85,0v.1Zm48.65,21a5.45,5.45,0,1,1,5.45-5.45A5.46,5.46,0,0,1,1157.43,353.8Zm0-10.69a5.24,5.24,0,1,0,5.24,5.24A5.24,5.24,0,0,0,1157.43,343.11ZM1135.67,346a2.89,2.89,0,1,1,2.89-2.89A2.89,2.89,0,0,1,1135.67,346Zm0-5.56a2.67,2.67,0,1,0,2.67,2.67A2.67,2.67,0,0,0,1135.67,340.49Zm32.92-2.27a1.36,1.36,0,1,1,1.36-1.36A1.36,1.36,0,0,1,1168.59,338.23Zm0-2.5a1.14,1.14,0,1,0,1.14,1.14A1.14,1.14,0,0,0,1168.59,335.73Z"/><circle class="cls-7" cx="1159.51" cy="322.48" r="2.02"/><path class="cls-10" d="M1159.67,292.79a39.29,39.29,0,1,1-29.19,0V277h-1.34c-7.24,0-7.64-10.28,0-10.28h31.7c7.87,0,7.47,10.28,0,10.28h-1.19v15.75Zm-2.71,1.89V277H1133.2v17.64a36.57,36.57,0,1,0,23.76,0Zm-26.48-20.35h30.38c3.84,0,4.31-4.85,0-4.85h-31.74c-4,0-3.64,4.85,0,4.85Z"/><path class="cls-9" d="M1446.42,186.14h15.63l-11.46,7v21.91c-.1,3.23-4.21,3-4.17,0Z"/><path class="cls-9" d="M1462.06,236.95v11.87a3,3,0,0,1-3,3h-12.34a3,3,0,0,1-3-3v-17.5c1.61-1.18,4-.49,7.46,3.41C1454.13,238,1457,238.87,1462.06,236.95Z"/><path class="cls-7" d="M1459.06,251.91h-12.34a3.1,3.1,0,0,1-3.1-3.1V231.26l0,0c1.84-1.35,4.4-.2,7.61,3.43,3,3.42,5.93,4,10.74,2.19l.15-.06v12A3.1,3.1,0,0,1,1459.06,251.91Zm-15.22-20.55v17.45a2.89,2.89,0,0,0,2.88,2.88h12.34a2.89,2.89,0,0,0,2.88-2.88V237.1c-4.82,1.79-7.77,1.16-10.83-2.3S1445.58,230.15,1443.84,231.37Z"/><path class="cls-8" d="M1441,244.7V186.14a4.77,4.77,0,0,1-4.09-2.22,4.86,4.86,0,0,1,4.09-7.58h23.67a4.83,4.83,0,0,1,4.74,3.17,5,5,0,0,1-4.61,6.63v62.68a5.73,5.73,0,0,1-5.72,5.72h-12.34a5.73,5.73,0,0,1-5.72-5.72V244.7Zm2.73,0v4.12a3,3,0,0,0,3,3h12.34a3,3,0,0,0,3-3V186.14h-18.32V244.7Zm20.93-61.29h.26c2.5-.24,2.83-3.94.17-4.3l-.43,0h-23.94c-2.63.24-2.38,4.07,0,4.31h23.92Z"/><circle class="cls-7" cx="1448.49" cy="222.97" r="1.84"/><path class="cls-9" d="M1096,121h15.63l-11.46,7V149.9c-.1,3.23-4.21,3-4.17,0Z"/><path class="cls-9" d="M1111.59,171.79v11.87a3,3,0,0,1-3,3h-12.34a3,3,0,0,1-3-3v-17.5c1.61-1.18,4-.49,7.46,3.41C1103.66,172.89,1106.52,173.71,1111.59,171.79Z"/><path class="cls-7" d="M1108.6,186.76h-12.34a3.1,3.1,0,0,1-3.1-3.1V166.11l0,0c1.84-1.35,4.4-.2,7.61,3.43,3,3.42,5.93,4,10.74,2.19l.15-.06v12A3.1,3.1,0,0,1,1108.6,186.76Zm-15.22-20.55v17.45a2.89,2.89,0,0,0,2.88,2.88h12.34a2.89,2.89,0,0,0,2.88-2.88V172c-4.82,1.79-7.77,1.16-10.83-2.3S1095.11,165,1093.38,166.22Z"/><path class="cls-8" d="M1090.53,179.54V121a4.77,4.77,0,0,1-4.09-2.22,4.86,4.86,0,0,1,4.09-7.58h23.67a4.83,4.83,0,0,1,4.74,3.17,5,5,0,0,1-4.61,6.63v62.68a5.73,5.73,0,0,1-5.72,5.72h-12.34a5.73,5.73,0,0,1-5.72-5.72v-4.12Zm2.73,0v4.12a3,3,0,0,0,3,3h12.34a3,3,0,0,0,3-3V121h-18.32v58.56Zm20.93-61.29h.26c2.5-.24,2.83-3.94.17-4.3l-.43,0h-23.94c-2.63.24-2.38,4.07,0,4.31h23.92Z"/><circle class="cls-7" cx="1098.02" cy="157.81" r="1.84"/><path class="cls-9" d="M1134.45,121h15.63l-11.46,7V149.9c-.1,3.23-4.21,3-4.17,0Z"/><path class="cls-9" d="M1150.09,171.79v11.87a3,3,0,0,1-3,3h-12.34a3,3,0,0,1-3-3v-17.5c1.61-1.18,4-.49,7.46,3.41C1142.16,172.89,1145,173.71,1150.09,171.79Z"/><path class="cls-7" d="M1147.1,186.76h-12.34a3.1,3.1,0,0,1-3.1-3.1V166.11l0,0c1.84-1.35,4.4-.2,7.61,3.43,3,3.42,5.93,4,10.74,2.19l.15-.06v12A3.1,3.1,0,0,1,1147.1,186.76Zm-15.22-20.55v17.45a2.89,2.89,0,0,0,2.88,2.88h12.34a2.89,2.89,0,0,0,2.88-2.88V172c-4.82,1.79-7.77,1.16-10.83-2.3S1133.61,165,1131.88,166.22Z"/><path class="cls-8" d="M1129,179.54V121a4.77,4.77,0,0,1-4.09-2.22,4.86,4.86,0,0,1,4.09-7.58h23.67a4.83,4.83,0,0,1,4.74,3.17,5,5,0,0,1-4.61,6.63v62.68a5.73,5.73,0,0,1-5.72,5.72h-12.34a5.73,5.73,0,0,1-5.72-5.72v-4.12Zm2.73,0v4.12a3,3,0,0,0,3,3h12.34a3,3,0,0,0,3-3V121h-18.32v58.56Zm20.93-61.29h.26c2.5-.24,2.83-3.94.17-4.3l-.43,0h-23.94c-2.63.24-2.38,4.07,0,4.31h23.92Z"/><circle class="cls-7" cx="1136.52" cy="157.81" r="1.84"/><path class="cls-9" d="M1417.36,358.33l3.2,4.56c2.31,3.29,4.08,4.09,7.65,5.48a18.33,18.33,0,0,1,5.4,3,14,14,0,0,1,2.75,3.48l1.53,2.18,11.05-7.76-1.53-2.18a14,14,0,0,1-2.34-3.76,18,18,0,0,1-1-5.82c-.12-3.93-.15-6-2.54-9.35l-.57-.81c-2,3.69-4,6.83-10.13,7.12-5,0-9.17.34-13.5,3.88Zm20.37,3.29a1.67,1.67,0,1,1-.41,2.33,1.67,1.67,0,0,1,.41-2.33Zm-.45-5.24a1.34,1.34,0,1,1-.33,1.86,1.34,1.34,0,0,1,.33-1.86Zm-2.61,3.73a2.24,2.24,0,1,1-3.13-.55A2.24,2.24,0,0,1,1434.67,360.12Z"/><path class="cls-7" d="M1437.87,377.17l-1.59-2.27a14,14,0,0,0-2.73-3.46,18.16,18.16,0,0,0-5.37-3c-3.55-1.38-5.36-2.19-7.7-5.52l-3.26-4.64.08-.06c4.36-3.57,8.55-3.87,13.57-3.9,5.9-.28,7.88-3.11,10-7.06l.08-.15.67,1c2.38,3.39,2.44,5.48,2.56,9.28v.13a18,18,0,0,0,1,5.79,14,14,0,0,0,2.32,3.73l1.6,2.28Zm-20.36-18.82,3.15,4.48c2.3,3.28,4.09,4.08,7.6,5.44a18.36,18.36,0,0,1,5.43,3,14.18,14.18,0,0,1,2.77,3.5l1.47,2.09,10.88-7.64-1.47-2.09a14.14,14.14,0,0,1-2.35-3.79,18.13,18.13,0,0,1-1-5.86v-.13c-.12-3.88-.17-5.83-2.52-9.16l-.47-.67c-2.16,3.94-4.2,6.74-10.14,7C1425.92,354.59,1421.79,354.89,1417.51,358.35Zm21.19,6.42-.31,0a1.77,1.77,0,1,1,.31,0Zm0-3.34a1.55,1.55,0,0,0-.9.28h0a1.56,1.56,0,1,0,1.17-.26Zm-5.85,2.33a2.35,2.35,0,1,1,1.92-3.7h0a2.35,2.35,0,0,1-1.92,3.7Zm0-4.49a2.14,2.14,0,1,0,1.75.91h0A2.14,2.14,0,0,0,1432.83,359.27Zm5.22-.35a1.44,1.44,0,0,1-.83-2.63h0a1.45,1.45,0,0,1,2,.35,1.44,1.44,0,0,1-1.18,2.27Zm-.71-2.45a1.23,1.23,0,1,0,.92-.2,1.22,1.22,0,0,0-.92.2Z"/><path class="cls-8" d="M1445,375.45l-7.83,5.5-3.21-4.56a11.5,11.5,0,0,0-2.19-2.86c-4.37-3.64-8.77-2.22-13.55-9L1410,352.76a3.24,3.24,0,0,1-4-1.05l-1.56-2.23a3.23,3.23,0,0,1,.38-4.15l-11.34-16.14A13.83,13.83,0,0,1,1396.8,310l3-2.14a13.83,13.83,0,0,1,19.21,3.36l11.34,16.14a3.24,3.24,0,0,1,4,1.05l1.56,2.23a3.23,3.23,0,0,1-.38,4.15l8.26,11.75c4.7,6.7,1.94,10.57,3.85,15.83a11.5,11.5,0,0,0,1.94,3l3.2,4.56-7.83,5.5Zm3.91-6.19-1.53-2.18a14,14,0,0,1-2.34-3.76,18,18,0,0,1-1-5.82c-.12-3.93-.15-6-2.54-9.35l-8.19-11.66-21,14.75,8.19,11.66c2.31,3.29,4.08,4.09,7.65,5.48a18.33,18.33,0,0,1,5.4,3,14,14,0,0,1,2.75,3.48l1.53,2.18Z"/><path class="cls-9" d="M1445.14,394.62c-8.74-.26-4.19-10-.06-16.34C1449.27,384.58,1453.89,394.31,1445.14,394.62Z"/><path class="cls-5" d="M1001.32,497a1.55,1.55,0,0,0-1.55,1.55V503a1.55,1.55,0,0,0,1.55,1.55h70a1.55,1.55,0,0,0,1.55-1.55v-4.5a1.55,1.55,0,0,0-1.55-1.55h-70Z"/><rect class="cls-2" x="1009.26" y="486.56" width="54.11" height="7.72" rx="2.53" ry="2.53"/><path class="cls-9" d="M1028.71,444.93l33.88,19.56,25.16-43.58a6.77,6.77,0,0,0-2.47-9.21l-22.2-12.82a6.76,6.76,0,0,0-9.21,2.47Z"/><path class="cls-7" d="M1062.63,464.64l-.09-.05-34-19.61.05-.09,25.16-43.58a6.86,6.86,0,0,1,9.36-2.51l22.2,12.81a6.87,6.87,0,0,1,2.51,9.36Zm-33.77-19.75,33.69,19.45,25.11-43.49a6.66,6.66,0,0,0-2.43-9.07L1063,399a6.64,6.64,0,0,0-9.07,2.43Z"/><path class="cls-14" d="M1087.54,521.45c1.1.29,3.72,1.09,4.5,1.87,49.13-34.92,32.88-80.11,9.58-102.64a8,8,0,0,1,.1,1.63c-.09,1.15-.37,1.81-.59,3.3C1129.3,457.8,1125.35,495.36,1087.54,521.45Z"/><rect class="cls-6" x="1077.52" y="391.62" width="2.2" height="11.57" transform="translate(195.15 1132.82) rotate(-60)"/><rect class="cls-6" x="999.77" y="502.39" width="73.1" height="2.2"/><rect class="cls-6" x="1009.26" y="492.08" width="54.11" height="2.2"/><path class="cls-9" d="M1074.21,524.34A18.92,18.92,0,0,1,1059,532a19.22,19.22,0,0,1-16.21-8.89,14.16,14.16,0,0,1-7.93,4.61h-.07l-31.7,5.32c-1.15.19-2.31.32-3.46.54s-3.25.61-3.56,2.1v7.22a3.67,3.67,0,0,0,3.65,3.65h87.73a3.67,3.67,0,0,0,3.65-3.65V528a3.67,3.67,0,0,0-3.65-3.65Z"/><path class="cls-7" d="M1087.43,546.63H999.7a3.76,3.76,0,0,1-3.76-3.76v-7.22c.33-1.56,2.3-1.94,3.6-2.2h0c.68-.13,1.38-.23,2-.33l1.41-.22,31.76-5.34a14,14,0,0,0,7.87-4.57l.09-.11.08.12a19,19,0,0,0,31.26,1.27l0,0h13.28a3.76,3.76,0,0,1,3.76,3.76v14.89A3.76,3.76,0,0,1,1087.43,546.63Zm-44.68-23.39a14.23,14.23,0,0,1-7.89,4.53h-.07l-31.71,5.33-1.42.22c-.67.1-1.36.2-2,.33h0c-1.25.24-3.14.61-3.43,2v7.2a3.54,3.54,0,0,0,3.54,3.54h87.73a3.54,3.54,0,0,0,3.54-3.54V528a3.54,3.54,0,0,0-3.54-3.54h-13.17a19.24,19.24,0,0,1-31.51-1.2Z"/><path class="cls-15" d="M1079.43,523.75v14.17c-.15,4.13,5.94,4.82,6.06,0V523.75Z"/><path class="cls-8" d="M1071.32,507.32h-70A4.28,4.28,0,0,1,997,503v-4.5a4.28,4.28,0,0,1,4.27-4.27h5.88a5.21,5.21,0,0,1-.65-2.53v-2.66a5.27,5.27,0,0,1,5.25-5.25h49.05a5.27,5.27,0,0,1,5.25,5.25v2.66a5.2,5.2,0,0,1-.65,2.53h5.88a4.28,4.28,0,0,1,4.27,4.27V503a4.28,4.28,0,0,1-4.27,4.27Zm-70-10.32a1.55,1.55,0,0,0-1.55,1.55V503a1.55,1.55,0,0,0,1.55,1.55h70a1.55,1.55,0,0,0,1.55-1.55v-4.5a1.55,1.55,0,0,0-1.55-1.55h-70Zm10.47-2.72h49.05a2.54,2.54,0,0,0,2.53-2.53v-2.66a2.54,2.54,0,0,0-2.53-2.53h-49.05a2.54,2.54,0,0,0-2.53,2.53v2.66A2.54,2.54,0,0,0,1011.79,494.28Z"/><path class="cls-5" d="M1058.87,526.09A13.07,13.07,0,1,0,1045.8,513,13.1,13.1,0,0,0,1058.87,526.09Z"/><path class="cls-16" d="M1058.87,526.37A13.36,13.36,0,1,1,1072.23,513,13.37,13.37,0,0,1,1058.87,526.37Zm0-26.15A12.79,12.79,0,1,0,1071.66,513,12.81,12.81,0,0,0,1058.87,500.22Z"/><path class="cls-8" d="M1084.37,408l2.61-4.52-2.66-1.54,3-5.19c.91-1.58.89-2.75-.34-3.47l-8.81-5.09c-1.23-.71-2.26-.15-3.17,1.44l-3,5.19-2.66-1.54-2.61,4.52-2.27-1.31a9.5,9.5,0,0,0-12.93,3.47l-25.16,43.58-.37-.21a3.64,3.64,0,0,0-5,1.33l-1.91,3.31a3.64,3.64,0,0,0,1.33,5l39.34,22.71a3.64,3.64,0,0,0,5-1.33l1.91-3.31a3.64,3.64,0,0,0-1.33-5l-.37-.21,25.16-43.58a9.5,9.5,0,0,0-3.47-12.93l-2.27-1.31Zm-7-17.1,7.62,4.4-.05.09-3,5.19-7.62-4.4,3-5.19.05-.09Zm-13.81,77.28L1025,445.93l38.59,22.28Zm-2.45,5.11L1021.8,450.6a.92.92,0,0,1-.33-1.25l1.91-3.31a.92.92,0,0,1,1.25-.33L1064,468.42a.92.92,0,0,1,.33,1.25l-1.91,3.31a.92.92,0,0,1-1.24.33Zm9.19-76.28,12.94,7.47-1.25,2.17-12.94-7.47,1.25-2.17Zm-41.62,47.9,25.16-43.58a6.76,6.76,0,0,1,9.21-2.47l22.2,12.82a6.77,6.77,0,0,1,2.47,9.21l-25.16,43.58Z"/><path class="cls-8" d="M1058.87,530.7A17.69,17.69,0,1,1,1076.56,513a17.69,17.69,0,0,1-17.69,17.69Zm0-7.06A10.63,10.63,0,1,0,1048.24,513,10.63,10.63,0,0,0,1058.87,523.65Z"/><path class="cls-9" d="M1058.87,521.12a8.1,8.1,0,1,0-8.1-8.1A8.12,8.12,0,0,0,1058.87,521.12Z"/><path class="cls-5" d="M1088.54,433.6a11.12,11.12,0,1,0-11.12-11.12A11.15,11.15,0,0,0,1088.54,433.6Z"/><path class="cls-16" d="M1088.54,433.89a11.41,11.41,0,1,1,11.41-11.41A11.42,11.42,0,0,1,1088.54,433.89Zm0-22.25a10.84,10.84,0,1,0,10.84,10.84A10.85,10.85,0,0,0,1088.54,411.64Z"/><path class="cls-8" d="M1088.54,435.45a13,13,0,1,1,13-13,13,13,0,0,1-13,13Zm0-5.17a7.79,7.79,0,1,0-7.79-7.79A7.79,7.79,0,0,0,1088.54,430.27Z"/><path class="cls-9" d="M1088.54,428.42a5.94,5.94,0,1,0-5.94-5.94A6,6,0,0,0,1088.54,428.42Z"/><path class="cls-8" d="M1090.11,525.25a3.61,3.61,0,0,0-2.55-1.07l-20.13.22,3.12-4.36a12.82,12.82,0,0,0,2.28-7.44,13.89,13.89,0,0,0-.22-2.47l-.51-2.8,2.82-.38c5.4-.74,10.9-4.16,14.95-7.68a46.38,46.38,0,0,0,12.28-16.95,36.27,36.27,0,0,0,2.18-21.84c-2-9.34-7.79-17.14-14.83-23.41l-4.06-3.62,5.34-1.08a10.25,10.25,0,0,0,8.21-10,10.38,10.38,0,0,0-.08-1.29l-1-7.66,5.55,5.37c13,12.56,22.38,30.27,23.2,48.5a57.48,57.48,0,0,1-6.76,29.76c-6.13,11.6-15.72,21-26.33,28.55l-1.87,1.33-1.63-1.63Zm1.92-1.92c49.13-34.92,32.88-80.11,9.58-102.64a13.11,13.11,0,0,1,.1,1.63A13,13,0,0,1,1091.32,435c36.16,32.24,4.77,71.78-16,74.61a16.59,16.59,0,0,1,.26,3,15.52,15.52,0,0,1-2.79,9l14.77-.16A6.35,6.35,0,0,1,1092,523.33Z"/><path class="cls-8" d="M1072.77,521.61h14.67a6.39,6.39,0,0,1,6.37,6.37v14.89a6.39,6.39,0,0,1-6.37,6.37H999.7a6.39,6.39,0,0,1-6.37-6.37v-7.44c.58-4.35,5.84-4.53,9.29-5.11l31.63-5.31c3.72-.82,6.76-2.89,8.89-7.66A16.49,16.49,0,0,0,1059,529.23a16.15,16.15,0,0,0,13.79-7.62Zm1.44,2.72A18.92,18.92,0,0,1,1059,532a19.22,19.22,0,0,1-16.21-8.89,14.16,14.16,0,0,1-7.93,4.61h-.07l-31.7,5.32c-1.15.19-2.31.32-3.46.54s-3.25.61-3.56,2.1v7.22a3.67,3.67,0,0,0,3.65,3.65h87.73a3.67,3.67,0,0,0,3.65-3.65V528a3.67,3.67,0,0,0-3.65-3.65Z"/><path class="cls-15" d="M1062.93,398.79l-21.76,37.7c-2.2,3.5,2.74,7.15,5.25,3l21.76-37.7Z"/><path class="cls-5" d="M1061.14,473.31,1021.8,450.6a.92.92,0,0,1-.33-1.25l1.91-3.31a.92.92,0,0,1,1.25-.33L1064,468.42a.92.92,0,0,1,.33,1.25l-1.91,3.31a.92.92,0,0,1-1.24.33Z"/><path class="cls-3" d="M1477.9,196H1298.8a3.88,3.88,0,0,1-3.93-3.83h0a3.88,3.88,0,0,1,3.93-3.83h179.1a3.88,3.88,0,0,1,3.93,3.83h0A3.88,3.88,0,0,1,1477.9,196Z"/><path class="cls-3" d="M1515.4,429.15H1336.3a3.88,3.88,0,0,1-3.93-3.83h0a3.88,3.88,0,0,1,3.93-3.83h179.1a3.88,3.88,0,0,1,3.93,3.83h0A3.88,3.88,0,0,1,1515.4,429.15Z"/><rect class="cls-3" x="1157.49" y="226.96" width="163.02" height="7.67" rx="3.83" ry="3.83"/><rect class="cls-3" x="1013.45" y="124.9" width="156.57" height="7.67" rx="3.83" ry="3.83"/><rect class="cls-3" x="1102.86" y="279.64" width="133.9" height="7.67" rx="3.83" ry="3.83"/><rect class="cls-3" x="1353.93" y="166.73" width="7.67" height="384.66" rx="3.83" ry="3.83"/><rect class="cls-3" x="1346.77" y="543.55" width="22" height="7.67" rx="3.83" ry="3.83"/><path class="cls-5" d="M1357.77,433.82a8.5,8.5,0,1,1,8.5-8.5A8.51,8.51,0,0,1,1357.77,433.82Z"/><path class="cls-17" d="M1357.77,419.32a6,6,0,1,1-6,6,6,6,0,0,1,6-6m0-5a11,11,0,1,0,11,11,11,11,0,0,0-11-11Z"/><path class="cls-5" d="M1319.19,200a8.5,8.5,0,1,1,8.5-8.5A8.51,8.51,0,0,1,1319.19,200Z"/><path class="cls-17" d="M1319.19,185.47a6,6,0,1,1-6,6,6,6,0,0,1,6-6m0-5a11,11,0,1,0,11,11,11,11,0,0,0-11-11Z"/><path class="cls-5" d="M1212.3,239.29a8.5,8.5,0,1,1,8.5-8.5A8.51,8.51,0,0,1,1212.3,239.29Z"/><path class="cls-17" d="M1212.3,224.79a6,6,0,1,1-6,6,6,6,0,0,1,6-6m0-5a11,11,0,1,0,11,11,11,11,0,0,0-11-11Z"/><path class="cls-5" d="M1212.3,292a8.5,8.5,0,1,1,8.5-8.5A8.51,8.51,0,0,1,1212.3,292Z"/><path class="cls-17" d="M1212.3,277.48a6,6,0,1,1-6,6,6,6,0,0,1,6-6m0-5a11,11,0,1,0,11,11,11,11,0,0,0-11-11Z"/><path class="cls-5" d="M1051.88,137.23a8.5,8.5,0,1,1,8.5-8.5A8.51,8.51,0,0,1,1051.88,137.23Z"/><path class="cls-17" d="M1051.88,122.73a6,6,0,1,1-6,6,6,6,0,0,1,6-6m0-5a11,11,0,1,0,11,11,11,11,0,0,0-11-11Z"/></svg>