<svg id="Layer_1" data-name="Layer 1" xmlns="http://www.w3.org/2000/svg" viewBox="0 0 1920 424"><defs><style>.cls-1,.cls-18{fill:#f5f5f5;}.cls-1,.cls-11,.cls-13,.cls-15,.cls-3,.cls-4,.cls-6,.cls-7,.cls-9{fill-rule:evenodd;}.cls-2{fill:#d6d6d6;}.cls-10,.cls-3{fill:#fff;}.cls-4{fill:#02435f;}.cls-15,.cls-5,.cls-6{fill:#6b2c90;}.cls-7{fill:none;}.cls-15,.cls-7{stroke:#6b2c90;stroke-miterlimit:22.93;stroke-width:0.22px;}.cls-8{fill:#ededed;}.cls-9{fill:#094064;}.cls-11,.cls-12{fill:#d9d7de;}.cls-13{fill:#8053a1;}.cls-14{fill:#231f20;}.cls-16{fill:silver;}.cls-17{fill:#cbcbca;}</style></defs><title>Infograth_all</title><polygon class="cls-1" points="1287.51 226.25 1287.51 164.5 1324.5 164.5 1324.5 87.5 1425.46 87.5 1425.46 156.75 1421.46 156.75 1421.46 91.5 1328.5 91.5 1328.5 168.5 1291.51 168.5 1291.51 226.25 1287.51 226.25"/><path class="cls-2" d="M1425,88v68.25h-3V91h-94v77h-37v57.75h-3V165h37V88h100m1-1H1324v77h-37v62.75h5V169h37V92h92v65.25h5V87Z"/><polygon class="cls-1" points="319.42 423.5 319.42 309.5 862.46 309.5 862.46 257.33 862.33 257.33 862.33 253.33 978.58 253.33 978.58 44.5 1191.5 44.5 1191.5 110.63 1257.58 110.63 1257.58 226.25 1253.58 226.25 1253.58 114.63 1187.5 114.63 1187.5 48.5 982.58 48.5 982.58 257.33 866.46 257.33 866.46 313.5 323.42 313.5 323.42 423.5 319.42 423.5"/><path class="cls-2" d="M1191,45v66.13h66.08V225.75h-3V114.13H1188V48H982.08V256.83H866V313h-543V423h-3V310H863V256.83h-.12v-3H979.08V45H1191m1-1H978.08V252.83H861.83v5H862V309h-543V424h5V314H867V257.83H983.08V49H1187v66.13h66.08V226.75h5V110.13H1192V44Z"/><path class="cls-3" d="M1476.37,265.21h14.91c6.48-1.27,7.89-8.68,6.69-11.12L1476.37,222V201.24h-15.56V222l-21.59,32.13c-1.2,2.44.21,9.85,6.69,11.12h30.46Z"/><path class="cls-4" d="M1476.37,267h-30.63l-.17,0a10.22,10.22,0,0,1-7.51-6.15c-.92-2.11-1.5-5.34-.43-7.5l.05-.11L1459,221.45v-20.2h-.88a3.38,3.38,0,1,1,0-6.73h20.76c5.15,0,4.89,6.73,0,6.73h-.78v20.19l21.36,31.77.05.11c1.07,2.16.5,5.38-.43,7.5a10.22,10.22,0,0,1-7.51,6.15l-.17,0Zm0-1.78h14.91c6.48-1.27,7.89-8.68,6.69-11.12L1476.37,222V201.24h-15.56V222l-21.59,32.13c-1.2,2.44.21,9.85,6.69,11.12h30.46ZM1459,199.47h19.9c2.52,0,2.82-3.18,0-3.18h-20.79c-2.64,0-2.38,3.18,0,3.18Z"/><rect class="cls-5" x="1469.03" y="208.47" width="5.03" height="2.26"/><rect class="cls-5" x="1469.03" y="212.59" width="5.03" height="2.26"/><rect class="cls-5" x="1469.03" y="216.72" width="5.03" height="2.26"/><rect class="cls-5" x="1469.03" y="220.84" width="5.03" height="2.26"/><path class="cls-6" d="M1443.88,247.17l-4.65,6.93c-1.2,2.44.21,9.85,6.69,11.12h45.37c6.48-1.27,7.89-8.68,6.69-11.12l-.18-.27c-11.46-2.89-15.24,1-22.19,1.93a1.71,1.71,0,0,0-3.42.18,25.85,25.85,0,0,1-4.54-.58,1.71,1.71,0,0,0-3.28-1,32.75,32.75,0,0,1-3.92-1.84,3.39,3.39,0,1,0-6-3.19,24.45,24.45,0,0,0-10.59-2.17Zm7.28,8.62a2.71,2.71,0,1,1-2.71,2.71,2.71,2.71,0,0,1,2.71-2.71Zm7.46.65a1.2,1.2,0,1,1-1.2,1.2A1.2,1.2,0,0,1,1458.62,256.43Z"/><path class="cls-7" d="M1443.88,247.17l-4.65,6.93c-1.2,2.44.21,9.85,6.69,11.12h45.37c6.48-1.27,7.89-8.68,6.69-11.12l-.18-.27c-11.46-2.89-15.24,1-22.19,1.93a1.71,1.71,0,0,0-3.42.18,25.85,25.85,0,0,1-4.54-.58,1.71,1.71,0,0,0-3.28-1,32.75,32.75,0,0,1-3.92-1.84,3.39,3.39,0,1,0-6-3.19,24.45,24.45,0,0,0-10.59-2.17m7.28,8.62a2.71,2.71,0,1,1-2.71,2.71,2.71,2.71,0,0,1,2.71-2.71Zm7.46.65a1.2,1.2,0,1,1-1.2,1.2A1.2,1.2,0,0,1,1458.62,256.43Z"/><circle class="cls-5" cx="1473.48" cy="244.9" r="1.2"/><path class="cls-3" d="M1459,199.47h19.9c2.52,0,2.82-3.18,0-3.18h-20.79c-2.64,0-2.38,3.18,0,3.18Z"/><ellipse class="cls-8" cx="1444.48" cy="340.11" rx="377.6" ry="14.89"/><path class="cls-9" d="M1252.84,308.19c-4.41-1.37-5.87-4.61-5.92-8.86V232.69H1246a3.38,3.38,0,1,1,0-6.73h20.76c5.15,0,4.89,6.73,0,6.73H1266v66.54c0,4.17-1.2,7.45-5.82,8.93a13.94,13.94,0,0,1-7.38,0Zm-5.92-77.27h19.9c2.52,0,2.82-3.18,0-3.18H1246c-2.64,0-2.38,3.18,0,3.18Zm9.56,75.94a9.44,9.44,0,0,0,2.45-.18A6.35,6.35,0,0,0,1264,301l.23-2.36v-66H1248.7v66.22l.09,2C1249.32,304.53,1252.12,307.09,1256.48,306.86Z"/><path class="cls-6" d="M1252.83,306.31c-3.34-1.31-4.13-3.84-4.13-7.06V259.63h9.62v39c0,2.6,3.25,2.64,3.25,0v-39h2.69v40.21c0,2.89-1.15,5.22-3.95,6.41A11.61,11.61,0,0,1,1252.83,306.31Z"/><path class="cls-5" d="M1256.49,307a10.55,10.55,0,0,1-3.68-.59h0c-3.68-1.44-4.18-4.41-4.18-7.12v-39.7h9.76v39.08a1.67,1.67,0,0,0,1.57,1.89,1.43,1.43,0,0,0,1.06-.47,2,2,0,0,0,.49-1.42V259.56h2.83v40.28c0,3.18-1.34,5.35-4,6.47A10.38,10.38,0,0,1,1256.49,307Zm-7.72-47.27v39.56c0,2.67.49,5.58,4.09,7h0a11.54,11.54,0,0,0,7.43-.06c2.59-1.1,3.9-3.23,3.9-6.34V259.7h-2.55v38.95a1.79,1.79,0,0,1-1.69,2,1.82,1.82,0,0,1-1.71-2V259.7Z"/><path class="cls-9" d="M1285.34,308.19c-4.41-1.37-5.87-4.61-5.92-8.86V232.69h-.88a3.38,3.38,0,1,1,0-6.73h20.76c5.15,0,4.89,6.73,0,6.73h-.78v66.54c0,4.17-1.2,7.45-5.82,8.93a13.94,13.94,0,0,1-7.38,0Zm-5.92-77.27h19.9c2.52,0,2.82-3.18,0-3.18h-20.79c-2.64,0-2.38,3.18,0,3.18Zm9.56,75.94a9.44,9.44,0,0,0,2.45-.18,6.35,6.35,0,0,0,5.1-5.65l.23-2.36v-66H1281.2v66.22l.09,2C1281.82,304.53,1284.62,307.09,1289,306.86Z"/><path class="cls-6" d="M1285.33,306.31c-3.34-1.31-4.13-3.84-4.13-7.06V259.63h9.62v39c0,2.6,3.25,2.64,3.25,0v-39h2.69v40.21c0,2.89-1.15,5.22-3.95,6.41A11.61,11.61,0,0,1,1285.33,306.31Z"/><path class="cls-5" d="M1289,307a10.55,10.55,0,0,1-3.68-.59h0c-3.68-1.44-4.18-4.41-4.18-7.12v-39.7h9.76v39.08a1.67,1.67,0,0,0,1.57,1.89,1.43,1.43,0,0,0,1.06-.47,2,2,0,0,0,.49-1.42V259.56h2.83v40.28c0,3.18-1.34,5.35-4,6.47A10.38,10.38,0,0,1,1289,307Zm-7.72-47.27v39.56c0,2.67.49,5.58,4.09,7h0a11.54,11.54,0,0,0,7.43-.06c2.59-1.1,3.9-3.23,3.9-6.34V259.7h-2.55v38.95a1.79,1.79,0,0,1-1.69,2,1.82,1.82,0,0,1-1.71-2V259.7Z"/><path class="cls-4" d="M1476.33,266.07h-30.45l-.17,0a10.16,10.16,0,0,1-7.47-6.11c-.92-2.1-1.49-5.3-.43-7.45l.05-.11,21.22-31.57V200.71h-.87a3.36,3.36,0,1,1,0-6.69h20.64c5.12,0,4.86,6.69,0,6.69h-.78v20.07l21.24,31.58.05.11c1.06,2.15.49,5.35-.43,7.45a10.16,10.16,0,0,1-7.47,6.11l-.17,0Zm0-1.77h14.82c6.44-1.26,7.85-8.63,6.65-11.05l-21.47-31.95V200.71h-15.47v20.6l-21.46,31.94c-1.2,2.43.21,9.79,6.65,11.05h30.28Zm-17.24-65.36h19.78c2.5,0,2.81-3.16,0-3.16h-20.66c-2.63,0-2.37,3.16,0,3.16Z"/><rect class="cls-5" x="1469.03" y="207.9" width="5" height="2.25"/><rect class="cls-5" x="1469.03" y="212" width="5" height="2.25"/><rect class="cls-5" x="1469.03" y="216.1" width="5" height="2.25"/><rect class="cls-5" x="1469.03" y="220.19" width="5" height="2.25"/><path class="cls-6" d="M1444,246.37l-4.63,6.89c-1.2,2.43.21,9.79,6.65,11.05h45.1c6.44-1.26,7.85-8.63,6.65-11.05l-.18-.27c-11.39-2.87-15.15,1-22.06,1.92a1.7,1.7,0,0,0-3.4.18,25.7,25.7,0,0,1-4.51-.58,1.7,1.7,0,0,0-3.26-1,32.55,32.55,0,0,1-3.89-1.83,3.37,3.37,0,1,0-5.95-3.17,24.31,24.31,0,0,0-10.53-2.15Zm7.24,8.57a2.69,2.69,0,1,1-2.69,2.69,2.69,2.69,0,0,1,2.69-2.69Zm7.41.64a1.2,1.2,0,1,1-1.2,1.2A1.2,1.2,0,0,1,1458.68,255.58Z"/><path class="cls-5" d="M1476.33,264.37H1446a8.38,8.38,0,0,1-6.05-4.7c-1.25-2.53-1.27-5.21-.66-6.46l4.65-6.93h.15a24.31,24.31,0,0,1,10.39,2.13,3.44,3.44,0,0,1,6.07,3.23,32.11,32.11,0,0,0,3.76,1.77,1.77,1.77,0,0,1,3.38,1,25.55,25.55,0,0,0,4.35.56,1.77,1.77,0,0,1,3.53-.19,36.07,36.07,0,0,0,5.54-1.36,26.45,26.45,0,0,1,16.47-.55h0l.2.29c.62,1.25.6,3.94-.66,6.46a8.38,8.38,0,0,1-6,4.69Zm-32.27-17.94-4.61,6.86c-.59,1.2-.57,3.84.67,6.32a8.25,8.25,0,0,0,5.94,4.62h45.09a8.24,8.24,0,0,0,5.92-4.62c1.23-2.49,1.26-5.12.66-6.33l-.16-.24a26.32,26.32,0,0,0-16.37.55,35.82,35.82,0,0,1-5.63,1.37h-.07v-.07a1.63,1.63,0,0,0-3.26.17v.07h-.07a25.64,25.64,0,0,1-4.52-.58l-.07,0,0-.07a1.63,1.63,0,0,0-3.12-.94l0,.07-.07,0a32.25,32.25,0,0,1-3.9-1.84l-.06,0,0-.06a3.3,3.3,0,1,0-5.82-3.1l0,.06-.06,0a24.18,24.18,0,0,0-10.39-2.15Zm7.2,14a2.76,2.76,0,1,1,2.76-2.76A2.77,2.77,0,0,1,1451.26,260.39Zm0-5.38a2.62,2.62,0,1,0,2.62,2.62A2.63,2.63,0,0,0,1451.26,255Zm7.41,3a1.27,1.27,0,1,1,1.27-1.27A1.27,1.27,0,0,1,1458.68,258Zm0-2.39a1.13,1.13,0,1,0,1.13,1.13A1.13,1.13,0,0,0,1458.68,255.65Z"/><circle class="cls-5" cx="1473.46" cy="244.11" r="1.2"/><path class="cls-6" d="M1427.94,198.56a2.62,2.62,0,0,0-5.21,0h-23.47a23.62,23.62,0,0,0,47,0Zm10,1.92a.81.81,0,1,1-.81.81.81.81,0,0,1,.81-.81Zm-7.21,4.76a3.45,3.45,0,1,1-3.45,3.45,3.45,3.45,0,0,1,3.45-3.45Zm-14.06-1.69a1.79,1.79,0,1,1-1.79,1.79A1.79,1.79,0,0,1,1416.7,203.55Z"/><path class="cls-5" d="M1422.78,220.07a23.69,23.69,0,0,1-23.59-21.5v-.08h23.48a2.69,2.69,0,0,1,5.33,0h18.38v.08a23.69,23.69,0,0,1-23.59,21.5Zm-23.44-21.44a23.55,23.55,0,0,0,46.89,0h-18.35v-.06a2.55,2.55,0,0,0-5.07,0v.06Zm31.42,13.59a3.52,3.52,0,1,1,3.52-3.52A3.53,3.53,0,0,1,1430.76,212.21Zm0-6.91a3.38,3.38,0,1,0,3.38,3.38A3.39,3.39,0,0,0,1430.76,205.31Zm-14.06,1.9a1.86,1.86,0,1,1,1.86-1.86A1.87,1.87,0,0,1,1416.7,207.21Zm0-3.59a1.72,1.72,0,1,0,1.72,1.72A1.73,1.73,0,0,0,1416.7,203.62Zm21.26-1.46a.88.88,0,1,1,.88-.88A.88.88,0,0,1,1438,202.16Zm0-1.61a.74.74,0,1,0,.74.74A.74.74,0,0,0,1438,200.54Z"/><circle class="cls-5" cx="1432.1" cy="191.98" r="1.3"/><path class="cls-4" d="M1432.2,172.81a25.37,25.37,0,1,1-18.85,0V162.64h-.87a3.33,3.33,0,1,1,0-6.64H1433c5.08,0,4.82,6.64,0,6.64h-.77v10.17Zm-1.75,1.22V162.64H1415.1V174a23.62,23.62,0,1,0,15.35,0Zm-17.1-13.14H1433c2.48,0,2.79-3.13,0-3.13h-20.5c-2.61,0-2.35,3.13,0,3.13Z"/><path class="cls-3" d="M1583.25,302a1,1,0,0,0-1,1V306a1,1,0,0,0,1,1H1629a1,1,0,0,0,1-1V303a1,1,0,0,0-1-1h-45.73Z"/><rect class="cls-10" x="1588.44" y="295.2" width="35.35" height="5.04" rx="1.65" ry="1.65"/><path class="cls-6" d="M1601.15,268l22.13,12.78,16.44-28.47a4.42,4.42,0,0,0-1.61-6l-14.5-8.37a4.42,4.42,0,0,0-6,1.61Z"/><path class="cls-5" d="M1623.31,280.87l-.06,0L1601.05,268l0-.06,16.44-28.47a4.48,4.48,0,0,1,6.12-1.64l14.5,8.37a4.49,4.49,0,0,1,1.64,6.12ZM1601.25,268l22,12.71,16.4-28.41a4.35,4.35,0,0,0-1.59-5.92l-14.5-8.37a4.34,4.34,0,0,0-5.92,1.59Z"/><path class="cls-11" d="M1639.58,318a9.13,9.13,0,0,1,2.94,1.22c32.1-22.82,21.48-52.34,6.26-67.06a5.23,5.23,0,0,1,.07,1.06c-.06.75-.24,1.18-.39,2.16C1666.87,276.41,1664.29,300.94,1639.58,318Z"/><rect class="cls-12" x="1633.04" y="233.17" width="1.44" height="7.56" transform="matrix(0.5, -0.87, 0.87, 0.5, 611.68, 1533.36)"/><rect class="cls-12" x="1582.24" y="305.54" width="47.76" height="1.44"/><rect class="cls-12" x="1588.44" y="298.8" width="35.35" height="1.44"/><path class="cls-6" d="M1630.88,319.88a12.36,12.36,0,0,1-10,5,12.56,12.56,0,0,1-10.59-5.81,9.25,9.25,0,0,1-5.18,3h0l-20.71,3.48c-.75.13-1.51.21-2.26.36s-2.12.4-2.33,1.37V332a2.4,2.4,0,0,0,2.38,2.38h57.32a2.4,2.4,0,0,0,2.38-2.38v-9.73a2.4,2.4,0,0,0-2.38-2.38Z"/><path class="cls-5" d="M1639.51,334.44h-57.32a2.46,2.46,0,0,1-2.45-2.45v-4.72c.21-1,1.5-1.27,2.35-1.43h0c.44-.09.9-.15,1.34-.22l.92-.14,20.75-3.49a9.16,9.16,0,0,0,5.14-3l.06-.07.05.08a12.43,12.43,0,0,0,20.43.83l0,0h8.67a2.46,2.46,0,0,1,2.45,2.45V332A2.46,2.46,0,0,1,1639.51,334.44Zm-29.19-15.28a9.3,9.3,0,0,1-5.15,3h0l-20.71,3.48-.93.14c-.44.06-.89.13-1.33.21h0c-.82.16-2,.4-2.24,1.31V332a2.32,2.32,0,0,0,2.31,2.31h57.32a2.32,2.32,0,0,0,2.31-2.31v-9.73a2.32,2.32,0,0,0-2.31-2.31h-8.6a12.57,12.57,0,0,1-20.59-.79Z"/><path class="cls-13" d="M1634.28,319.49v9.26a2,2,0,1,0,4,0v-9.26Z"/><path class="cls-9" d="M1629,308.76h-45.73a2.8,2.8,0,0,1-2.79-2.79V303a2.8,2.8,0,0,1,2.79-2.79h3.84a3.4,3.4,0,0,1-.43-1.65v-1.74a3.44,3.44,0,0,1,3.43-3.43h32a3.44,3.44,0,0,1,3.43,3.43v1.74a3.4,3.4,0,0,1-.43,1.65H1629a2.8,2.8,0,0,1,2.79,2.79V306a2.8,2.8,0,0,1-2.79,2.79ZM1583.25,302a1,1,0,0,0-1,1V306a1,1,0,0,0,1,1H1629a1,1,0,0,0,1-1V303a1,1,0,0,0-1-1h-45.73Zm6.84-1.78h32a1.66,1.66,0,0,0,1.65-1.65v-1.74a1.66,1.66,0,0,0-1.65-1.65h-32a1.66,1.66,0,0,0-1.65,1.65v1.74A1.66,1.66,0,0,0,1590.09,300.24Z"/><path class="cls-3" d="M1620.85,321a8.54,8.54,0,1,0-8.54-8.54A8.56,8.56,0,0,0,1620.85,321Z"/><path class="cls-14" d="M1620.85,321.21a8.73,8.73,0,1,1,8.73-8.73A8.74,8.74,0,0,1,1620.85,321.21Zm0-17.09a8.36,8.36,0,1,0,8.36,8.36A8.37,8.37,0,0,0,1620.85,304.12Z"/><path class="cls-9" d="M1637.51,243.89l1.71-3-1.74-1,2-3.39c.6-1,.58-1.8-.22-2.26l-5.76-3.33c-.8-.46-1.48-.1-2.07.94l-2,3.39-1.74-1-1.71,3-1.48-.86a6.21,6.21,0,0,0-8.45,2.26l-16.44,28.47-.24-.14a2.38,2.38,0,0,0-3.24.87l-1.25,2.16a2.38,2.38,0,0,0,.87,3.24l25.7,14.84a2.38,2.38,0,0,0,3.24-.87l1.25-2.16a2.38,2.38,0,0,0-.87-3.24l-.24-.14,16.44-28.47a6.21,6.21,0,0,0-2.26-8.45l-1.48-.86ZM1633,232.71l5,2.87,0,.06-2,3.39-5-2.87,2-3.39,0-.06Zm-9,50.49-25.22-14.56,25.22,14.56Zm-1.6,3.34-25.7-14.84a.6.6,0,0,1-.22-.81l1.25-2.16a.6.6,0,0,1,.81-.22l25.7,14.84a.6.6,0,0,1,.22.81l-1.25,2.16a.6.6,0,0,1-.81.22Zm6-49.84,8.45,4.88L1636,243l-8.45-4.88.82-1.41ZM1601.15,268l16.44-28.47a4.42,4.42,0,0,1,6-1.61l14.5,8.37a4.42,4.42,0,0,1,1.61,6l-16.44,28.47Z"/><path class="cls-9" d="M1620.85,324a11.56,11.56,0,1,1,11.56-11.56A11.56,11.56,0,0,1,1620.85,324Zm0-4.61a6.94,6.94,0,1,0-6.95-6.95A6.95,6.95,0,0,0,1620.85,319.43Z"/><path class="cls-6" d="M1620.85,317.77a5.29,5.29,0,1,0-5.29-5.29A5.3,5.3,0,0,0,1620.85,317.77Z"/><path class="cls-3" d="M1640.24,260.6a7.27,7.27,0,1,0-7.27-7.27A7.28,7.28,0,0,0,1640.24,260.6Z"/><path class="cls-14" d="M1640.24,260.78a7.45,7.45,0,1,1,7.45-7.45A7.46,7.46,0,0,1,1640.24,260.78Zm0-14.54a7.08,7.08,0,1,0,7.08,7.08A7.09,7.09,0,0,0,1640.24,246.25Z"/><path class="cls-9" d="M1640.24,261.8a8.47,8.47,0,1,1,8.47-8.47,8.47,8.47,0,0,1-8.47,8.47Zm0-3.38a5.09,5.09,0,1,0-5.09-5.09A5.09,5.09,0,0,0,1640.24,258.42Z"/><circle class="cls-5" cx="1640.24" cy="253.33" r="3.88"/><path class="cls-9" d="M1641.26,320.47a2.36,2.36,0,0,0-1.66-.7l-13.15.14,2-2.85a8.37,8.37,0,0,0,1.49-4.86,9.07,9.07,0,0,0-.14-1.61l-.33-1.83,1.84-.25c3.53-.48,7.12-2.72,9.76-5a30.3,30.3,0,0,0,8-11.07,23.7,23.7,0,0,0,1.43-14.27c-1.34-6.1-5.09-11.2-9.69-15.3l-2.66-2.37,3.49-.7a6.7,6.7,0,0,0,5.36-6.56,6.78,6.78,0,0,0-.05-.84l-.63-5,3.63,3.51c8.48,8.2,14.62,19.77,15.16,31.69a37.55,37.55,0,0,1-4.42,19.44c-4,7.58-10.27,13.72-17.2,18.65l-1.22.87-1.06-1.06Zm1.26-1.26c32.1-22.82,21.48-52.34,6.26-67.06a8.56,8.56,0,0,1,.07,1.06,8.48,8.48,0,0,1-6.79,8.31c23.63,21.07,3.12,46.9-10.47,48.75a10.84,10.84,0,0,1,.17,1.93,10.14,10.14,0,0,1-1.82,5.89l9.65-.1A4.15,4.15,0,0,1,1642.52,319.22Z"/><path class="cls-9" d="M1629.93,318.1h9.58a4.17,4.17,0,0,1,4.16,4.16V332a4.17,4.17,0,0,1-4.16,4.16h-57.32A4.17,4.17,0,0,1,1578,332v-4.86c.38-2.84,3.82-3,6.07-3.34l20.67-3.47a7.89,7.89,0,0,0,5.81-5,10.77,10.77,0,0,0,10.34,7.77,10.55,10.55,0,0,0,9-5Zm.94,1.78a12.36,12.36,0,0,1-10,5,12.56,12.56,0,0,1-10.59-5.81,9.25,9.25,0,0,1-5.18,3h0l-20.71,3.48c-.75.13-1.51.21-2.26.36s-2.12.4-2.33,1.37V332a2.4,2.4,0,0,0,2.38,2.38h57.32a2.4,2.4,0,0,0,2.38-2.38v-9.73a2.4,2.4,0,0,0-2.38-2.38Z"/><path class="cls-13" d="M1623.5,237.85l-14.22,24.63a2,2,0,1,0,3.43,2l14.22-24.63Z"/><path class="cls-3" d="M1622.33,286.54l-25.7-14.84a.6.6,0,0,1-.22-.81l1.25-2.16a.6.6,0,0,1,.81-.22l25.7,14.84a.6.6,0,0,1,.22.81l-1.25,2.16a.6.6,0,0,1-.81.22Z"/><path class="cls-6" d="M1531.05,200.42h10.19l-7.47,4.57v14.29a1.37,1.37,0,1,1-2.72,0Z"/><path class="cls-6" d="M1541.25,233.55v7.74a2,2,0,0,1-2,2h-8a2,2,0,0,1-2-2V229.88c1.05-.77,2.62-.32,4.87,2.23C1536.08,234.26,1537.94,234.8,1541.25,233.55Z"/><path class="cls-5" d="M1539.3,243.31h-8a2,2,0,0,1-2-2V229.84l0,0c1.2-.88,2.87-.13,5,2.24s3.87,2.62,7,1.43l.1,0v7.84A2,2,0,0,1,1539.3,243.31Zm-9.93-13.4v11.38a1.88,1.88,0,0,0,1.88,1.88h8a1.88,1.88,0,0,0,1.88-1.88v-7.64c-3.14,1.17-5.06.75-7.06-1.5S1530.5,229.12,1529.37,229.91Z"/><path class="cls-9" d="M1527.52,238.61V200.42a3.11,3.11,0,0,1-2.67-1.45,3.17,3.17,0,0,1,2.66-4.94h15.43a3.15,3.15,0,0,1,3.09,2.07,3.25,3.25,0,0,1-3,4.33v40.88a3.74,3.74,0,0,1-3.73,3.73h-8a3.74,3.74,0,0,1-3.73-3.73v-2.69Zm1.78,0v2.69a2,2,0,0,0,2,2h8a2,2,0,0,0,2-2V200.42H1529.3v38.19Zm13.65-40h.17a1.41,1.41,0,0,0,.11-2.8l-.28,0h-15.61a1.42,1.42,0,0,0,0,2.81h15.6Z"/><circle class="cls-5" cx="1532.4" cy="224.44" r="1.2"/><path class="cls-6" d="M1556.16,200.42h10.19l-7.47,4.57v14.29a1.37,1.37,0,1,1-2.72,0Z"/><path class="cls-6" d="M1566.35,233.55v7.74a2,2,0,0,1-2,2h-8a2,2,0,0,1-2-2V229.88c1.05-.77,2.62-.32,4.87,2.23C1561.18,234.26,1563,234.8,1566.35,233.55Z"/><path class="cls-5" d="M1564.4,243.31h-8a2,2,0,0,1-2-2V229.84l0,0c1.2-.88,2.87-.13,5,2.24s3.87,2.62,7,1.43l.1,0v7.84A2,2,0,0,1,1564.4,243.31Zm-9.93-13.4v11.38a1.88,1.88,0,0,0,1.88,1.88h8a1.88,1.88,0,0,0,1.88-1.88v-7.64c-3.14,1.17-5.06.75-7.06-1.5S1555.61,229.12,1554.48,229.91Z"/><path class="cls-9" d="M1552.62,238.61V200.42A3.11,3.11,0,0,1,1550,199a3.17,3.17,0,0,1,2.66-4.94h15.43a3.15,3.15,0,0,1,3.09,2.07,3.25,3.25,0,0,1-3,4.33v40.88a3.74,3.74,0,0,1-3.73,3.73h-8a3.74,3.74,0,0,1-3.73-3.73v-2.69Zm1.78,0v2.69a2,2,0,0,0,2,2h8a2,2,0,0,0,2-2V200.42h-11.95v38.19Zm13.65-40h.17a1.41,1.41,0,0,0,.11-2.8l-.28,0h-15.61a1.42,1.42,0,0,0,0,2.81h15.6Z"/><circle class="cls-5" cx="1557.51" cy="224.44" r="1.2"/><path class="cls-3" d="M1346.45,264.69h19.33v-3.44a2.31,2.31,0,0,0-2.54-2.54h-37.33c-1.91-.09-2.56,1.09-1.21,2.43l4.63,4.52v68.69a2.31,2.31,0,0,0,2.54,2.54h31.36a2.31,2.31,0,0,0,2.54-2.54V266.73h-19.33v-2Z"/><rect class="cls-12" x="1357.16" y="268.06" width="8.62" height="55.49"/><rect class="cls-5" x="1334.78" y="263.37" width="5.03" height="2.26"/><rect class="cls-5" x="1334.78" y="267.49" width="5.03" height="2.26"/><rect class="cls-5" x="1334.78" y="271.62" width="5.03" height="2.26"/><rect class="cls-5" x="1334.78" y="275.74" width="5.03" height="2.26"/><rect class="cls-5" x="1334.78" y="279.87" width="5.03" height="2.26"/><rect class="cls-5" x="1334.78" y="283.99" width="5.03" height="2.26"/><path class="cls-9" d="M1346.45,256.93l5.36-17.29a3.28,3.28,0,1,1,6.21,2l-4.74,15.29H1356l6.88-19.78a3.4,3.4,0,0,1,4.12-2.46,3.35,3.35,0,0,1,2.09,4.46l-6.25,17.78h.4a4.08,4.08,0,0,1,4.35,4.36v73a4.08,4.08,0,0,1-4.35,4.36h-31.31a4.08,4.08,0,0,1-4.35-4.36V266.41l-4.1-4a3.34,3.34,0,0,1-1.06-3.62,3.45,3.45,0,0,1,3.55-1.85Zm0,7.76h19.33v-3.44a2.31,2.31,0,0,0-2.54-2.54h-37.33c-1.91-.09-2.56,1.09-1.21,2.43l4.63,4.52v68.69a2.31,2.31,0,0,0,2.54,2.54h31.36a2.31,2.31,0,0,0,2.54-2.54V266.73h-19.33v-2Zm11.31-7.76h3.11l6.49-18.3c.83-2.35-2.12-3.22-2.81-.95l-6.78,19.25Zm-9.45,0h3.11l4.9-15.82c.74-2.38-2.12-3.22-2.81-.95Z"/><path class="cls-15" d="M1695.36,331.72V334a1.84,1.84,0,0,1-1.83,1.83h-1.68A1.83,1.83,0,0,1,1690,334v-2.27Z"/><path class="cls-15" d="M1747.89,331.72V334a1.83,1.83,0,0,1-1.83,1.83h-1.68a1.84,1.84,0,0,1-1.83-1.83v-2.27Z"/><rect class="cls-12" x="1680.23" y="327.78" width="77.46" height="2.13"/><path class="cls-9" d="M1682.3,320.48v-42.6a9.93,9.93,0,0,1,10.12-9.67h53.06a9.93,9.93,0,0,1,10.12,9.67v42.6a4,4,0,0,1,3.89,4v3.2a4,4,0,0,1-4,4h-73a4,4,0,0,1-4-4v-3.2a4,4,0,0,1,3.89-4Zm73.17,1.81h-73a2.22,2.22,0,0,0-2.21,2.21v3.2a2.22,2.22,0,0,0,2.21,2.21h73a2.22,2.22,0,0,0,2.21-2.21v-3.2a2.22,2.22,0,0,0-2.21-2.21Zm-71.36-1.81h69.68v-42.6a8.12,8.12,0,0,0-8.31-7.86h-53.06a8.12,8.12,0,0,0-8.31,7.86Z"/><path class="cls-15" d="M1684.11,320.48h69.68v-42.6a8.12,8.12,0,0,0-8.31-7.86h-53.06a8.12,8.12,0,0,0-8.31,7.86Z"/><path class="cls-9" d="M1692.93,275.81H1745a4.41,4.41,0,0,1,4.4,4.4v23.54a4.41,4.41,0,0,1-4.4,4.4h-52.05a4.41,4.41,0,0,1-4.4-4.4V280.21a4.41,4.41,0,0,1,4.4-4.4Zm0,1.81a2.6,2.6,0,0,0-2.59,2.59v23.54a2.6,2.6,0,0,0,2.59,2.59H1745a2.6,2.6,0,0,0,2.59-2.59V280.21a2.6,2.6,0,0,0-2.59-2.59Z"/><rect class="cls-10" x="1690.34" y="277.62" width="57.23" height="28.72" rx="2.59" ry="2.59"/><path class="cls-3" d="M1719,309.51a4.65,4.65,0,1,1-4.65,4.65,4.65,4.65,0,0,1,4.65-4.65Zm0,1.75a2.91,2.91,0,1,0,2.91,2.91A2.91,2.91,0,0,0,1719,311.25Z"/><path class="cls-9" d="M1701.12,298.34a11.87,11.87,0,0,1,.53-2.75,14.56,14.56,0,0,1,6.3-7.75,21.23,21.23,0,0,1,21.84,0,14.56,14.56,0,0,1,6.3,7.75,11.87,11.87,0,0,1,.53,2.75c.21,2-2.27,2.33-2.59.56v-.1a9.51,9.51,0,0,0-.43-2.22,12.11,12.11,0,0,0-5.25-6.41,18.48,18.48,0,0,0-18.93,0,12.11,12.11,0,0,0-5.25,6.41,9.51,9.51,0,0,0-.43,2.22v.1C1703.39,300.68,1700.91,300.37,1701.12,298.34Z"/><path class="cls-3" d="M1718.91,285.77c9,0,16.32,5.6,16.81,12.66.1.83-.62.91-.73.31-.47-6.75-7.49-12.12-16.08-12.12s-15.61,5.36-16.08,12.12c-.11.61-.82.52-.73-.31C1702.59,291.37,1709.93,285.77,1718.91,285.77Z"/><path class="cls-6" d="M1710.72,306.34h-3.51L1697,292.21c-.4-.55,0-.89.45-.45Z"/><rect class="cls-5" x="1718.23" y="280.01" width="1.28" height="2.84"/><rect class="cls-5" x="1738.55" y="298.79" width="2.84" height="1.28"/><rect class="cls-5" x="1696.33" y="298.79" width="2.84" height="1.28"/><path class="cls-13" d="M1738.93,308.15v9.22a2,2,0,1,0,4,0v-9.22Z"/><path class="cls-13" d="M1743,275.81v-2.69a2,2,0,1,0-4,0v2.69Z"/><path class="cls-13" d="M1697.06,291.57a.5.5,0,0,1,.43.21l13.23,14.56h-1Z"/><path class="cls-15" d="M1156.91,336.9h12.92a2.81,2.81,0,0,0,2.92-2.92V300.5h-31.68V334a2.81,2.81,0,0,0,2.92,2.92Z"/><path class="cls-9" d="M1169.87,338.67h-25.95a4.57,4.57,0,0,1-4.62-4.67V300.5H1136v-6.59a4.84,4.84,0,0,1,4.61-4.64h32.62a4.84,4.84,0,0,1,4.61,4.64v6.59h-3.32V334a4.57,4.57,0,0,1-4.62,4.67Zm-30.56-39.94h36.77V294a3.07,3.07,0,0,0-2.95-2.95H1140.7a3.07,3.07,0,0,0-2.95,2.95v4.75Zm17.61,38.17h12.92a2.81,2.81,0,0,0,2.92-2.92V300.5h-31.68V334a2.81,2.81,0,0,0,2.92,2.92Z"/><rect class="cls-12" x="1141.77" y="291.03" width="4.61" height="7.7"/><rect class="cls-12" x="1141.74" y="311.43" width="30.34" height="12.39"/><rect class="cls-10" x="1144.35" y="315.08" width="10.39" height="1.85"/><rect class="cls-10" x="1144.35" y="318.14" width="10.39" height="1.85"/><path class="cls-13" d="M1167.91,311.43h-4.33v-5.17a2.16,2.16,0,0,1,4.33,0Z"/><path class="cls-13" d="M1168,323.82h-4.33v8.71a2.16,2.16,0,0,0,4.33,0Z"/><rect class="cls-16" x="1507.34" y="334.55" width="14.3" height="4.98" rx="2.49" ry="2.49"/><rect class="cls-16" x="1511.74" y="155.61" width="5.55" height="183.53" rx="2.78" ry="2.78"/><rect class="cls-16" x="1511.31" y="140.91" width="5.55" height="127.89" rx="2.78" ry="2.78" transform="translate(1309.23 1718.95) rotate(-90)"/><circle class="cls-10" cx="1514.41" cy="204.86" r="5.52"/><path class="cls-17" d="M1514.41,201a3.9,3.9,0,1,1-3.9,3.9,3.9,3.9,0,0,1,3.9-3.9m0-3.25a7.15,7.15,0,1,0,7.15,7.15,7.15,7.15,0,0,0-7.15-7.15Z"/><rect class="cls-16" x="1201.55" y="334.55" width="14.3" height="4.98" rx="2.49" ry="2.49"/><rect class="cls-16" x="1205.95" y="192.44" width="5.55" height="146.7" rx="2.78" ry="2.78"/><rect class="cls-16" x="1242.52" y="173.3" width="5.55" height="127.89" rx="2.78" ry="2.78" transform="translate(1008.05 1482.55) rotate(-90)"/><circle class="cls-10" cx="1208.62" cy="237.25" r="5.52"/><path class="cls-17" d="M1208.62,233.35a3.9,3.9,0,1,1-3.9,3.9,3.9,3.9,0,0,1,3.9-3.9m0-3.25a7.15,7.15,0,1,0,7.15,7.15,7.15,7.15,0,0,0-7.15-7.15Z"/><rect class="cls-16" x="1468.75" y="102.16" width="5.55" height="127.89" rx="2.78" ry="2.78" transform="translate(1305.42 1637.64) rotate(-90)"/><circle class="cls-10" cx="1514.41" cy="166.11" r="5.52"/><path class="cls-17" d="M1514.41,162.21a3.9,3.9,0,1,1-3.9,3.9,3.9,3.9,0,0,1,3.9-3.9m0-3.25a7.15,7.15,0,1,0,7.15,7.15,7.15,7.15,0,0,0-7.15-7.15Z"/><rect class="cls-18" x="0.5" y="419.5" width="322.92" height="4"/><path class="cls-2" d="M322.92,420v3H1v-3H322.92m1-1H0v5H323.92v-5Z"/></svg>