<?xml version="1.0" encoding="utf-8"?>
<!-- Generator: Adobe Illustrator 21.1.0, SVG Export Plug-In . SVG Version: 6.00 Build 0)  -->
<svg version="1.1" id="Layer_1" xmlns="http://www.w3.org/2000/svg" xmlns:xlink="http://www.w3.org/1999/xlink" x="0px" y="0px"
	 viewBox="0 0 287 65" style="enable-background:new 0 0 287 65;" xml:space="preserve">
<style type="text/css">
	.st0{fill:#6B2C91;}
</style>
<g>
	<g>
		<path d="M45.7,23.6l2.8-8.2l2,0.7l1.6-4.6l-6.2-2.1l-5.5,16c5.8,4.8,8.3,12.9,5.7,20.4c-3.4,9.7-14,14.9-23.7,11.6
			c-9.7-3.4-14.9-14-11.6-23.7c2.6-7.5,9.5-12.3,17.1-12.6l5.5-16l-6.2-2.1l-1.6,4.6l2,0.7l-2.8,8.2c-8.3,1.3-15.6,7-18.5,15.5
			C2.1,44.2,8.6,57.5,20.9,61.7c12.2,4.2,25.6-2.3,29.8-14.5C53.6,38.7,51.4,29.7,45.7,23.6z"/>
		<g>
			
				<ellipse transform="matrix(9.580307e-02 -0.9954 0.9954 9.580307e-02 -11.7239 48.3741)" class="st0" cx="20.8" cy="30.6" rx="2.1" ry="2.1"/>
			<path class="st0" d="M28.8,36.1c-5.9,3.5-12,3.1-15.3-2.6c-0.8,2-1.4,4.2-1.3,6.5c0.1,2.1,0.5,4,1.2,5.8c0,0.1,0.1,0.1,0.1,0.2
				c0,0.1,0.1,0.1,0.1,0.2c0,0.1,0.1,0.1,0.1,0.2c2.6,5.8,8.5,9.8,15.3,9.6c8-0.2,15-6.4,15.5-14.2C44.9,34.6,37.5,30.8,28.8,36.1z
				 M24.7,47.8c-1.1,0-2.1-0.9-2.1-2c0-1.1,0.9-2.1,2-2.1c1.1,0,2.1,0.9,2.1,2C26.7,46.8,25.9,47.8,24.7,47.8z M31.5,51.9
				c-0.7,0-1.3-0.5-1.3-1.3c0-0.6,0.5-1.1,1.1-1.1c0.7,0,1.3,0.5,1.3,1.3C32.6,51.4,32.1,51.9,31.5,51.9z M36.7,45.1
				c-1.9,0-3.4-1.4-3.5-3.3c0-1.9,1.4-3.4,3.3-3.5c1.9,0,3.4,1.4,3.5,3.3S38.5,45.1,36.7,45.1z"/>
		</g>
	</g>
	<g>
		<path d="M67.6,39.8v9.4h-5.2V23.3h9.9c3,0,5.3,0.8,7,2.3c1.7,1.5,2.6,3.5,2.6,6s-0.9,4.5-2.6,6s-4,2.3-7,2.3H67.6z M67.6,35.8h4.7
			c1.4,0,2.5-0.4,3.3-1.2c0.7-0.8,1.1-1.8,1.1-3c0-1.2-0.4-2.3-1.1-3.1c-0.7-0.8-1.8-1.2-3.3-1.2h-4.7V35.8z"/>
		<path d="M97.3,46.3c-0.6,1-1.3,1.8-2.3,2.4c-0.9,0.6-2,0.8-3.2,0.8c-2,0-3.6-0.7-4.7-2.1c-1.1-1.4-1.7-3.5-1.7-6.4V30h5.2v11.2
			c0,1.7,0.2,2.8,0.7,3.4c0.5,0.6,1.2,0.9,2.1,0.9c0.8,0,1.5-0.1,2.1-0.4c0.6-0.3,1.1-0.7,1.5-1.2V30h5.2v19.2h-4.3L97.3,46.3z"/>
		<path d="M116.5,34.4l-1.9-0.1c-0.8,0-1.4,0.2-1.9,0.5s-0.9,0.8-1.1,1.3v13h-5.2V30h4.8l0.2,2.8c0.4-1,1-1.8,1.7-2.4
			c0.7-0.6,1.5-0.8,2.5-0.8c0.3,0,0.5,0,0.7,0.1c0.2,0,0.4,0.1,0.7,0.2L116.5,34.4z"/>
		<path d="M136.8,40.1c0,2.8-0.7,5.1-2,6.8s-3.1,2.6-5.5,2.6c-1,0-1.9-0.2-2.7-0.6c-0.8-0.4-1.4-0.9-2-1.6v9.2h-5.2V30h4.7l0.3,2.3
			c0.6-0.8,1.3-1.5,2-1.9c0.8-0.5,1.7-0.7,2.8-0.7c2.4,0,4.2,0.9,5.5,2.8c1.3,1.9,2,4.3,2,7.3V40.1z M131.7,39.7
			c0-1.8-0.3-3.3-0.9-4.4c-0.6-1.1-1.5-1.7-2.8-1.7c-0.8,0-1.4,0.2-2,0.5c-0.5,0.3-1,0.8-1.3,1.4v8.4c0.3,0.5,0.8,1,1.3,1.2
			s1.2,0.4,2,0.4c1.3,0,2.2-0.5,2.8-1.5c0.6-1,0.9-2.3,0.9-4V39.7z"/>
		<path d="M145.8,49.1h-5.2V21.5h5.2V49.1z"/>
		<path d="M158.8,49.5c-2.9,0-5.1-0.9-6.7-2.6s-2.4-4-2.4-6.8v-0.7c0-2.9,0.8-5.2,2.3-7.1c1.6-1.8,3.7-2.7,6.4-2.7
			c2.6,0,4.6,0.8,5.9,2.4c1.4,1.6,2.1,3.7,2.1,6.4V41H155l-0.1,0.1c0.1,1.3,0.5,2.4,1.2,3.2c0.7,0.8,1.8,1.2,3.2,1.2
			c1.2,0,2.1-0.1,3-0.4c0.8-0.2,1.6-0.6,2.5-1.1l1.4,3.2c-0.8,0.6-1.8,1.2-3.1,1.6C161.8,49.3,160.3,49.5,158.8,49.5z M158.4,33.6
			c-1,0-1.8,0.4-2.4,1.1s-0.9,1.7-1,2.8l0,0.1h6.3v-0.4c0-1.1-0.2-2-0.7-2.7S159.5,33.6,158.4,33.6z"/>
		<path d="M193.1,43.6h-8.4l-1.7,5.6h-5.4l8.7-25.8h5.3l8.7,25.8h-5.4L193.1,43.6z M186,39.5h5.8l-2.9-9.1h-0.1L186,39.5z"/>
		<path d="M201.9,39.7c0-3,0.7-5.5,2-7.3c1.3-1.9,3.1-2.8,5.5-2.8c1,0,1.8,0.2,2.6,0.6c0.8,0.4,1.4,1,2,1.8V21.5h5.2v27.7h-4.4
			l-0.4-2.4c-0.6,0.9-1.3,1.6-2.1,2c-0.8,0.5-1.8,0.7-2.8,0.7c-2.4,0-4.2-0.9-5.5-2.6c-1.3-1.7-2-4-2-6.8V39.7z M207.1,40.1
			c0,1.7,0.3,3,0.9,4c0.6,1,1.5,1.4,2.8,1.4c0.7,0,1.4-0.2,2-0.5c0.6-0.3,1-0.7,1.4-1.3v-8.2c-0.4-0.6-0.8-1.1-1.4-1.4
			s-1.2-0.5-1.9-0.5c-1.3,0-2.2,0.6-2.8,1.7c-0.6,1.1-0.9,2.6-0.9,4.4V40.1z"/>
		<path d="M229.1,45.2h11.6v4h-16.7V23.3h5.2V45.2z"/>
		<path d="M255.4,49.1c-0.2-0.4-0.4-0.9-0.5-1.4c-0.1-0.5-0.2-1-0.3-1.5c-0.5,0.9-1.2,1.7-2.1,2.3c-0.9,0.6-1.9,0.9-3.1,0.9
			c-2,0-3.6-0.5-4.6-1.6c-1.1-1-1.6-2.4-1.6-4.2c0-1.9,0.7-3.3,2.2-4.4c1.4-1,3.6-1.6,6.3-1.6h2.9v-1.5c0-0.9-0.2-1.6-0.7-2.1
			c-0.5-0.5-1.2-0.8-2.2-0.8c-0.8,0-1.5,0.2-1.9,0.6c-0.5,0.4-0.7,1-0.7,1.7h-5l0-0.1c-0.1-1.6,0.6-3,2.1-4.2
			c1.5-1.2,3.4-1.8,5.9-1.8c2.3,0,4.2,0.6,5.6,1.7c1.4,1.2,2.1,2.8,2.1,5v7.9c0,0.9,0.1,1.7,0.2,2.5c0.1,0.8,0.4,1.6,0.6,2.4H255.4z
			 M250.7,45.7c0.9,0,1.7-0.2,2.4-0.7c0.7-0.4,1.2-1,1.5-1.6v-2.7h-2.9c-1.1,0-1.9,0.3-2.5,0.8s-0.8,1.2-0.8,2
			c0,0.7,0.2,1.2,0.6,1.6C249.4,45.5,249.9,45.7,250.7,45.7z"/>
		<path d="M281.3,40.1c0,2.9-0.6,5.1-1.9,6.9s-3.1,2.6-5.5,2.6c-1.1,0-2.1-0.2-2.9-0.7c-0.8-0.5-1.5-1.2-2.1-2.1l-0.4,2.4H264V21.5
			h5.2V32c0.6-0.8,1.2-1.4,2-1.8c0.8-0.4,1.7-0.6,2.7-0.6c2.4,0,4.3,0.9,5.6,2.8s1.9,4.3,1.9,7.4V40.1z M276.1,39.7
			c0-1.9-0.3-3.3-0.8-4.4s-1.5-1.6-2.8-1.6c-0.8,0-1.5,0.2-2,0.5s-1,0.8-1.3,1.4v8.1c0.3,0.6,0.8,1,1.3,1.3c0.6,0.3,1.3,0.5,2.1,0.5
			c1.3,0,2.3-0.5,2.8-1.4c0.5-0.9,0.8-2.3,0.8-4V39.7z"/>
	</g>
</g>
</svg>
