<svg id="Layer_1" data-name="Layer 1" xmlns="http://www.w3.org/2000/svg" viewBox="0 0 453 635"><defs><style>.cls-1{fill:#f5f5f5;}.cls-1,.cls-4,.cls-5,.cls-7{fill-rule:evenodd;}.cls-2{fill:#d6d6d6;}.cls-3{fill:#ededed;}.cls-4{fill:#094064;}.cls-5,.cls-6{fill:#6b2c90;}.cls-5{stroke:#6b2c90;stroke-miterlimit:22.93;stroke-width:0.22px;}.cls-7{fill:#02435f;}</style></defs><title>Infograth_all</title><polygon class="cls-1" points="99.54 541.38 99.54 328.5 68.42 328.5 68.42 251.46 4.54 251.46 4.54 15.5 274.54 15.5 274.54 136.5 395.42 136.5 395.42 140.5 270.54 140.5 270.54 19.5 8.54 19.5 8.54 247.46 72.42 247.46 72.42 324.5 103.54 324.5 103.54 541.38 99.54 541.38"/><path class="cls-2" d="M274,16V137H394.92v3H271V19H8V248H71.92v77H103V540.87h-3V328H68.92V251H5V16H274m1-1H4V252H67.92v77H99V541.87h5V324H72.92V247H9V20H270V141H395.92v-5H275V15Z"/><polygon class="cls-1" points="431.42 371.25 431.42 300.5 386.42 300.5 386.42 323.38 339.54 323.38 339.54 240.33 444.67 240.33 444.67 195.38 448.67 195.38 448.67 244.33 343.54 244.33 343.54 319.38 382.42 319.38 382.42 296.5 435.42 296.5 435.42 371.25 431.42 371.25"/><path class="cls-2" d="M448.17,195.88v48H343v76h39.88V297h52v73.75h-3V300h-46v22.88H340v-82H445.17v-45h3m1-1h-5v45H339v84h47.88V301h44v70.75h5V296h-54v22.88H344v-74H449.17v-50Z"/><ellipse class="cls-3" cx="133.04" cy="613.88" rx="121.75" ry="14.88"/><path class="cls-4" d="M67.67,616.56c-4-1.25-5.38-4.22-5.42-8.11v-61h-.81a3.09,3.09,0,1,1,0-6.17h19c4.72,0,4.48,6.17,0,6.17h-.72v60.94c0,3.82-1.1,6.82-5.33,8.18a12.76,12.76,0,0,1-6.76,0Zm-5.42-70.77H80.48c2.3,0,2.59-2.91,0-2.91h-19c-2.42,0-2.18,2.91,0,2.91ZM71,615.34a8.65,8.65,0,0,0,2.25-.16A5.81,5.81,0,0,0,77.93,610l.21-2.16V547.42H63.88v60.65l.08,1.86C64.45,613.21,67,615.55,71,615.34Z"/><path class="cls-5" d="M67.66,614.84c-3.06-1.2-3.78-3.52-3.78-6.46V572.08h8.81v35.73c0,2.38,3,2.42,3,0V572.08h2.46v36.83c0,2.65-1,4.78-3.62,5.87A10.63,10.63,0,0,1,67.66,614.84Z"/><path class="cls-4" d="M98.64,616.56c-4-1.25-5.38-4.22-5.42-8.11v-61h-.81a3.09,3.09,0,1,1,0-6.17h19c4.72,0,4.48,6.17,0,6.17h-.72v60.94c0,3.82-1.1,6.82-5.33,8.18a12.76,12.76,0,0,1-6.76,0Zm-5.42-70.77h18.22c2.3,0,2.59-2.91,0-2.91h-19c-2.42,0-2.18,2.91,0,2.91ZM102,615.34a8.65,8.65,0,0,0,2.25-.16A5.81,5.81,0,0,0,108.9,610l.21-2.16V547.42H94.85v60.65l.08,1.86C95.43,613.21,98,615.55,102,615.34Z"/><path class="cls-5" d="M98.64,614.84c-3.06-1.2-3.78-3.52-3.78-6.46V572.08h8.81v35.73c0,2.38,3,2.42,3,0V572.08h2.46v36.83c0,2.65-1,4.78-3.62,5.87A10.63,10.63,0,0,1,98.64,614.84Z"/><path class="cls-5" d="M188.69,593.46a2.66,2.66,0,0,0-5.29,0H159.57a24,24,0,0,0,47.76,0Zm10.18,1.95a.82.82,0,1,1-.82.82.82.82,0,0,1,.82-.82Zm-7.32,4.84a3.51,3.51,0,1,1-3.51,3.51,3.51,3.51,0,0,1,3.51-3.51Zm-14.27-1.72a1.82,1.82,0,1,1-1.82,1.82A1.82,1.82,0,0,1,177.28,598.52Z"/><circle class="cls-6" cx="192.91" cy="586.78" r="1.32"/><path class="cls-7" d="M193,567.32a25.76,25.76,0,1,1-19.14,0V557H173a3.38,3.38,0,1,1,0-6.74h20.79c5.16,0,4.9,6.74,0,6.74H193v10.33Zm-1.78,1.24V557H175.66v11.57a24,24,0,1,0,15.58,0Zm-17.36-13.34H193.8c2.52,0,2.83-3.18,0-3.18H173c-2.65,0-2.39,3.18,0,3.18Z"/></svg>