<svg id="Layer_1" data-name="Layer 1" xmlns="http://www.w3.org/2000/svg" viewBox="0 0 793 438"><defs><style>.cls-1{fill:#ededed;}.cls-2{fill:#f5f5f5;}.cls-3{fill:#d6d6d6;}.cls-11,.cls-12,.cls-4{fill:#6b2c90;}.cls-13,.cls-4{stroke:#6b2c90;stroke-miterlimit:22.93;stroke-width:0.22px;}.cls-10,.cls-12,.cls-13,.cls-4,.cls-5,.cls-8,.cls-9{fill-rule:evenodd;}.cls-5{fill:#094064;}.cls-6{fill:#d9d7de;}.cls-7,.cls-9{fill:#fff;}.cls-8{fill:#8053a1;}.cls-10{fill:#02435f;}.cls-13{fill:none;}</style></defs><title>Infograth_all</title><path class="cls-1" d="M793,197.61c-29.53-2.89-71.22-4.69-117.44-4.69-89.53,0-162.1,6.75-162.1,15.08s72.58,15.08,162.1,15.08c46.21,0,87.91-1.8,117.44-4.69Z"/><polygon class="cls-2" points="2.5 431.67 2.5 338.6 85.58 338.6 85.58 249.44 317.5 249.44 317.5 101.5 600.5 101.5 600.5 140.1 596.6 140.27 596.6 105.39 321.39 105.39 321.39 253.33 89.48 253.33 89.48 342.5 6.39 342.5 6.39 431.67 2.5 431.67"/><path class="cls-3" d="M600,102v37.62l-2.9.12V104.9H320.9V252.83H89V342H5.9v89.17H3V339.1H86.08V249.94H318V102H600m1-1H317V248.94H85.08V338.1H2v94.06H6.9V343H90V253.83H321.9V105.9H596.1v34.9l4.9-.21V101Z"/><polygon class="cls-2" points="663.52 163.38 663.52 91.44 641.6 91.44 641.6 54.4 608.46 54.4 608.46 140.04 604.56 140 604.56 50.5 645.5 50.5 645.5 87.54 667.42 87.54 667.42 163.45 663.52 163.38"/><path class="cls-3" d="M645,51V88h21.92v74.9l-2.9,0v-72H642.1v-37H608v85.64l-2.9,0V51H645m1-1H604.06v90.5l4.9,0V54.9H641.1v37H663v71.94l4.9.08V87H646V50Z"/><path class="cls-4" d="M666.41,210.11h12.92a2.81,2.81,0,0,0,2.92-2.92V173.71H650.57v33.48a2.81,2.81,0,0,0,2.92,2.92Z"/><path class="cls-5" d="M679.37,211.88H653.42a4.57,4.57,0,0,1-4.62-4.67v-33.5h-3.32v-6.59a4.84,4.84,0,0,1,4.61-4.64h32.62a4.84,4.84,0,0,1,4.61,4.64v6.59H684v33.5a4.57,4.57,0,0,1-4.62,4.67ZM648.8,171.94h36.77v-4.75a3.07,3.07,0,0,0-2.95-2.95H650.2a3.07,3.07,0,0,0-2.95,2.95v4.75Zm17.61,38.17h12.92a2.81,2.81,0,0,0,2.92-2.92V173.71H650.57v33.48a2.81,2.81,0,0,0,2.92,2.92Z"/><rect class="cls-6" x="651.27" y="164.24" width="4.61" height="7.7"/><rect class="cls-6" x="651.24" y="184.64" width="30.34" height="12.39"/><rect class="cls-7" x="653.85" y="188.29" width="10.39" height="1.85"/><rect class="cls-7" x="653.85" y="191.35" width="10.39" height="1.85"/><path class="cls-8" d="M677.41,184.64h-4.33v-5.17a2.16,2.16,0,0,1,4.33,0Z"/><path class="cls-8" d="M677.55,197h-4.33v8.71a2.16,2.16,0,0,0,4.33,0Z"/><path class="cls-9" d="M610.82,210.06h14.91c6.48-1.27,7.89-8.68,6.69-11.12l-21.6-32.14V146.09H595.26v20.72l-21.59,32.13c-1.2,2.44.21,9.85,6.69,11.12h30.46Z"/><path class="cls-10" d="M610.82,211.83H580.19l-.17,0a10.22,10.22,0,0,1-7.51-6.15c-.92-2.11-1.5-5.34-.43-7.5l.05-.11,21.35-31.75v-20.2h-.88a3.38,3.38,0,1,1,0-6.73h20.76c5.15,0,4.89,6.73,0,6.73h-.78v20.19L634,198l.05.11c1.07,2.16.5,5.38-.43,7.5a10.22,10.22,0,0,1-7.51,6.15l-.17,0Zm0-1.78h14.91c6.48-1.27,7.89-8.68,6.69-11.12l-21.6-32.14V146.09H595.26v20.72l-21.59,32.13c-1.2,2.44.21,9.85,6.69,11.12h30.46Zm-17.34-65.74h19.9c2.52,0,2.82-3.18,0-3.18H592.6c-2.64,0-2.38,3.18,0,3.18Z"/><rect class="cls-11" x="603.48" y="153.31" width="5.03" height="2.26"/><rect class="cls-11" x="603.48" y="157.44" width="5.03" height="2.26"/><rect class="cls-11" x="603.48" y="161.56" width="5.03" height="2.26"/><rect class="cls-11" x="603.48" y="165.68" width="5.03" height="2.26"/><path class="cls-12" d="M578.33,192l-4.65,6.93c-1.2,2.44.21,9.85,6.69,11.12h45.37c6.48-1.27,7.89-8.68,6.69-11.12l-.18-.27c-11.46-2.89-15.24,1-22.19,1.93a1.71,1.71,0,0,0-3.42.18,25.85,25.85,0,0,1-4.54-.58,1.71,1.71,0,0,0-3.28-1,32.75,32.75,0,0,1-3.92-1.84,3.39,3.39,0,1,0-6-3.19A24.45,24.45,0,0,0,578.33,192Zm7.28,8.62a2.71,2.71,0,1,1-2.71,2.71,2.71,2.71,0,0,1,2.71-2.71Zm7.46.65a1.2,1.2,0,1,1-1.2,1.2A1.2,1.2,0,0,1,593.06,201.28Z"/><path class="cls-13" d="M578.33,192l-4.65,6.93c-1.2,2.44.21,9.85,6.69,11.12h45.37c6.48-1.27,7.89-8.68,6.69-11.12l-.18-.27c-11.46-2.89-15.24,1-22.19,1.93a1.71,1.71,0,0,0-3.42.18,25.85,25.85,0,0,1-4.54-.58,1.71,1.71,0,0,0-3.28-1,32.75,32.75,0,0,1-3.92-1.84,3.39,3.39,0,1,0-6-3.19A24.45,24.45,0,0,0,578.33,192m7.28,8.62a2.71,2.71,0,1,1-2.71,2.71,2.71,2.71,0,0,1,2.71-2.71Zm7.46.65a1.2,1.2,0,1,1-1.2,1.2A1.2,1.2,0,0,1,593.06,201.28Z"/><circle class="cls-11" cx="607.93" cy="189.74" r="1.2"/><path class="cls-9" d="M593.48,144.31h19.9c2.52,0,2.82-3.18,0-3.18H592.6c-2.64,0-2.38,3.18,0,3.18Z"/><path class="cls-4" d="M719.12,207.82v2.24a1.81,1.81,0,0,1-1.81,1.81h-1.66a1.81,1.81,0,0,1-1.81-1.81v-2.24Z"/><path class="cls-4" d="M771.07,207.82v2.24a1.81,1.81,0,0,1-1.81,1.81H767.6a1.81,1.81,0,0,1-1.81-1.81v-2.24Z"/><rect class="cls-6" x="704.16" y="203.92" width="76.59" height="2.11"/><path class="cls-5" d="M706.22,196.7V154.58a9.82,9.82,0,0,1,10-9.56h52.46a9.82,9.82,0,0,1,10,9.56V196.7a4,4,0,0,1,3.84,4v3.17a4,4,0,0,1-4,4H706.35a4,4,0,0,1-4-4v-3.17a4,4,0,0,1,3.84-4Zm72.35,1.79H706.35a2.19,2.19,0,0,0-2.19,2.19v3.17a2.19,2.19,0,0,0,2.19,2.19h72.22a2.19,2.19,0,0,0,2.19-2.19v-3.17a2.19,2.19,0,0,0-2.19-2.19ZM708,196.7h68.9V154.58a8,8,0,0,0-8.22-7.77H716.23a8,8,0,0,0-8.22,7.77Z"/><path class="cls-4" d="M708,196.7h68.9V154.58a8,8,0,0,0-8.22-7.77H716.23a8,8,0,0,0-8.22,7.77Z"/><path class="cls-5" d="M716.72,152.53h51.47a4.36,4.36,0,0,1,4.35,4.35v23.27a4.36,4.36,0,0,1-4.35,4.35H716.72a4.36,4.36,0,0,1-4.35-4.35V156.88a4.36,4.36,0,0,1,4.35-4.35Zm0,1.79a2.57,2.57,0,0,0-2.56,2.56v23.27a2.57,2.57,0,0,0,2.56,2.56h51.47a2.57,2.57,0,0,0,2.56-2.56V156.88a2.57,2.57,0,0,0-2.56-2.56Z"/><rect class="cls-7" x="714.16" y="154.32" width="56.59" height="28.4" rx="2.56" ry="2.56"/><path class="cls-9" d="M742.46,185.85a4.6,4.6,0,1,1-4.6,4.6,4.6,4.6,0,0,1,4.6-4.6Zm0,1.73a2.87,2.87,0,1,0,2.87,2.87A2.87,2.87,0,0,0,742.46,187.57Z"/><path class="cls-5" d="M724.82,174.81a11.74,11.74,0,0,1,.52-2.71,14.4,14.4,0,0,1,6.23-7.66,21,21,0,0,1,21.59,0,14.4,14.4,0,0,1,6.23,7.66,11.74,11.74,0,0,1,.52,2.71c.21,2-2.24,2.31-2.56.55v-.1a9.4,9.4,0,0,0-.42-2.19,12,12,0,0,0-5.19-6.34,18.27,18.27,0,0,0-18.72,0,12,12,0,0,0-5.19,6.34,9.41,9.41,0,0,0-.42,2.19v.1C727.07,177.12,724.61,176.81,724.82,174.81Z"/><path class="cls-9" d="M742.41,162.37c8.88,0,16.13,5.54,16.62,12.52.09.82-.61.9-.72.3-.47-6.68-7.41-12-15.9-12s-15.43,5.3-15.9,12c-.11.6-.81.51-.72-.3C726.28,167.91,733.53,162.37,742.41,162.37Z"/><path class="cls-12" d="M734.31,182.71h-3.47l-10.06-14c-.4-.54,0-.88.44-.44Z"/><rect class="cls-11" x="741.74" y="156.69" width="1.26" height="2.81"/><rect class="cls-11" x="761.83" y="175.25" width="2.81" height="1.26"/><rect class="cls-11" x="720.09" y="175.25" width="2.81" height="1.26"/><path class="cls-8" d="M762.21,184.5v9.12a2,2,0,1,0,4,0V184.5Z"/><path class="cls-8" d="M766.19,152.53v-2.66a2,2,0,1,0-4,0v2.66Z"/><path class="cls-8" d="M720.81,168.11a.5.5,0,0,1,.43.2l13.08,14.4h-1Z"/></svg>